<?xml version="1.0" encoding="utf-8"?>
<!-- Generator: Adobe Illustrator 21.0.2, SVG Export Plug-In . SVG Version: 6.00 Build 0)  -->
<svg version="1.1" id="Layer_1" xmlns="http://www.w3.org/2000/svg" xmlns:xlink="http://www.w3.org/1999/xlink" x="0px" y="0px"
	 width="100px" height="100px" viewBox="0 0 100 100" style="enable-background:new 0 0 100 100;" xml:space="preserve">
<style type="text/css">
	.st0{fill:#CE195F;}
	.st1{fill:#F29C9E;}
	.st2{fill:#D8AE64;}
	.st3{fill:#0E3552;}
	.st4{fill:#FFFFFF;}
	.st5{fill:#F22C67;}
	.st6{fill:#ACDCD5;}
	.st7{fill:#4FC5C9;}
	.st8{fill:#14847C;}
</style>
<path class="st0" d="M44.1,5.2L9.1,40l0.6,37.8l80.8-1.2l-0.6-37.8L53.8,5.1C51.1,2.6,46.8,2.6,44.1,5.2z"/>
<path class="st1" d="M14.2,39.7L46.5,7.6c0.6-0.6,1.5-1,2.5-1c1,0,1.9,0.3,2.5,0.9l36.1,33.7l2.3-2.4L53.8,5.1
	c-2.7-2.5-7.1-2.5-9.7,0.1l-33,32.7L14.2,39.7z"/>
<path class="st1" d="M90,40.4L12.1,93.3c1.6,1.6,3.7,2.6,6.1,2.6l64.1-0.9c4.6-0.1,8.3-3.9,8.3-8.5L90,40.4z"/>
<path class="st1" d="M88.4,92.1L9.1,41.6l0.7,45.9c0.1,4.6,3.9,8.3,8.5,8.3l64.1-0.9C84.8,94.9,86.9,93.8,88.4,92.1z"/>
<path class="st0" d="M83.4,94.8c0.2,0,0.4-0.1,0.6-0.1c0.1,0,0.1,0,0.2-0.1c0.2-0.1,0.4-0.1,0.6-0.2c0,0,0.1,0,0.1-0.1
	c0.2-0.1,0.4-0.2,0.7-0.3c0,0,0.1,0,0.1,0c0.2-0.1,0.5-0.2,0.7-0.3c0,0,0,0,0,0c0.2-0.1,0.5-0.3,0.7-0.4c0,0,0,0,0,0
	c0.5-0.3,0.9-0.7,1.2-1.1L49.9,67.6L12.1,93.3c0.6,0.6,1.2,1.1,2,1.5c0,0,0,0,0,0c0.2,0.1,0.5,0.2,0.7,0.3c0,0,0.1,0,0.1,0
	c0.2,0.1,0.4,0.2,0.7,0.2c0,0,0.1,0,0.1,0c0.2,0.1,0.4,0.1,0.6,0.2c0.1,0,0.1,0,0.2,0c0.2,0,0.4,0.1,0.7,0.1c0.1,0,0.1,0,0.2,0
	c0.3,0,0.6,0,0.9,0l64.1-0.9c0.3,0,0.6,0,0.9-0.1C83.3,94.8,83.4,94.8,83.4,94.8z"/>
<rect x="12" y="28.3" transform="matrix(0.9754 -0.2203 0.2203 0.9754 -10.4194 11.9924)" class="st2" width="73" height="48.9"/>
<rect x="14.5" y="30.8" transform="matrix(0.9754 -0.2203 0.2203 0.9754 -10.4192 11.9923)" class="st3" width="68" height="43.9"/>
<rect x="33.6" y="47.4" transform="matrix(0.9754 -0.2203 0.2203 0.9754 -9.5124 11.7776)" class="st4" width="28.9" height="2.2"/>
<polygon class="st4" points="61.3,42.1 33.2,48.5 33,48 61.2,41.6 "/>
<rect x="22.8" y="54" transform="matrix(0.9754 -0.2203 0.2203 0.9754 -10.9473 12.1747)" class="st4" width="52.5" height="2.2"/>
<rect x="23.8" y="58.4" transform="matrix(0.9754 -0.2203 0.2203 0.9754 -11.8821 12.499)" class="st4" width="52.5" height="2.2"/>
<rect x="24.8" y="62.7" transform="matrix(0.9754 -0.2203 0.2203 0.9754 -12.8163 12.8223)" class="st4" width="52.5" height="2.2"/>
<rect x="66" y="64.1" transform="matrix(0.9754 -0.2203 0.2203 0.9754 -12.5954 17.4798)" class="st4" width="12.1" height="2.2"/>
<g>
	<g>
		<g>
			<g>
				<g>
					<path class="st1" d="M66.1,29.8c-0.4,0.1-0.7,0.5-0.6,0.8c-0.1-0.3-0.5-0.5-0.9-0.4c-0.4,0.1-0.7,0.5-0.6,1
						c0.3,1.1,2,1.6,2,1.6s1.3-1.2,1-2.4C66.9,30,66.5,29.7,66.1,29.8z"/>
				</g>
			</g>
		</g>
		<path class="st5" d="M67,30.4c-0.1-0.4-0.5-0.7-1-0.6c-0.4,0.1-0.7,0.5-0.6,0.8l0.6,2.1C66,32.8,67.3,31.5,67,30.4z"/>
	</g>
	<g>
		<path class="st6" d="M63.5,36.4c0,0-1.3-0.1-1.6-1c-0.3-1,0.4-1.7,1.3-1.9c0.9-0.2,2.5,1,4.4,1.7c1.9,0.7,5.6,1.2,6.3,1
			c0.7-0.2,2.4-1.1,2.7-1.7c0.3,1,1.2,4.6,1.2,4.6s-1.6-0.3-3,0.3c-1,0.6-2.7,2.8-5.2,2.8c-2.5,0.1-4.4-1.6-5-2.8
			C64.1,38.1,63.5,36.4,63.5,36.4z"/>
		<path class="st7" d="M71.9,28.1c0,0,0,0.9-1.1,1.8c-1.1,0.9-4.5,3.3-3.8,5.9c0.7,2.6,3,2.4,3.6,2.2c0.6-0.2,3.3-2,1.6-3.9
			c0.7-0.3,1.2-1.4,0.3-2c0.5-0.3,0.7-1.3-0.2-1.8C72.9,29.5,71.9,28.1,71.9,28.1z"/>
		<path class="st7" d="M77.9,39c0,0-0.1-0.5-0.3-1.3c-1,0-2.1,0.2-3.1,0.6C72.7,39,72,41.1,69,41.2c-2.3,0.1-4.4-2.7-5.2-3.9
			c0.2,0.6,0.5,1.4,0.8,2.1c0.6,1.2,2.5,2.8,5,2.8c2.5-0.1,4.3-2.2,5.2-2.8C76.3,38.7,77.9,39,77.9,39z"/>
		<path class="st5" d="M61.3,35.8c0,0,0.3,0.3,1.2,0c0-0.1-0.1-0.4-0.1-0.4L61.3,35.8z"/>
		<ellipse transform="matrix(0.9679 -0.2511 0.2511 0.9679 -6.6926 16.8975)" class="st8" cx="62.9" cy="34.7" rx="0.2" ry="0.2"/>
		<path class="st1" d="M61.3,36c0,0,0-0.5,0.8-0.9c0.1,0.2,0.3,0.3,0.5,0.3C62.7,35.4,61.3,36,61.3,36z"/>
	</g>
</g>
<g>
	<path class="st4" d="M27.1,40.9c0-0.3,0-0.5,0.1-0.7c0.1-0.2,0.2-0.4,0.3-0.5c0.1-0.1,0.3-0.2,0.4-0.2s0.3,0,0.4,0
		c0.1,0.1,0.3,0.2,0.4,0.4c0.1,0.2,0.2,0.4,0.2,0.7c0,0.4,0,0.8,0.1,1.2c0.1,0.4,0.1,0.9,0.2,1.3c0.1,0.4,0.2,0.9,0.3,1.3
		c0.1,0.4,0.2,0.8,0.3,1.1c0.1,0.3,0.2,0.5,0.3,0.7c0.1,0.2,0.2,0.2,0.3,0.2c0.1-0.1,0.2-0.3,0.3-0.6c0.1-0.3,0.1-0.6,0.1-0.9
		c0-0.4,0-0.8,0-1.2c0-0.4,0-0.9,0-1.4c0-0.5,0-1,0-1.5c0-0.5,0-1,0.1-1.4c0.1-0.5,0.1-0.9,0.3-1.3c0.1-0.4,0.3-0.8,0.5-1.1
		c0.2-0.3,0.5-0.5,0.8-0.7c0.3-0.2,0.7-0.3,1.2-0.3c0.1,0,0.1,0,0.1,0.1c0,0,0,0.1,0,0.1c0,0,0,0.1,0,0.1c0,0,0,0-0.1,0
		c-0.5,0-0.8,0-1.1,0.2c-0.3,0.2-0.6,0.4-0.8,0.7c-0.2,0.3-0.3,0.7-0.4,1.1c-0.1,0.4-0.2,0.9-0.2,1.3c0,0.5-0.1,1-0.1,1.5
		c0,0.5,0,1,0,1.5c0,0.5,0,1,0,1.4c0,0.5,0,0.9,0,1.2c0,0.4-0.1,0.7-0.2,0.9c-0.1,0.2-0.2,0.4-0.4,0.5c-0.1,0-0.3,0.1-0.4,0.1
		c-0.2,0-0.3,0-0.5-0.1c-0.2-0.1-0.4-0.2-0.5-0.3c-0.2-0.2-0.4-0.4-0.6-0.7c-0.2-0.3-0.3-0.8-0.5-1.3c-0.2-0.5-0.3-1.2-0.4-1.9
		c0,0.8-0.1,1.6-0.1,2.3c-0.1,0.7-0.2,1.3-0.3,1.8c-0.1,0.5-0.3,0.9-0.5,1.2c-0.2,0.3-0.4,0.5-0.7,0.5c-0.3,0-0.5,0-0.7-0.1
		c-0.2-0.1-0.4-0.3-0.6-0.6c-0.2-0.3-0.3-0.6-0.4-1c-0.1-0.4-0.2-0.8-0.3-1.2c-0.1-0.4-0.2-0.9-0.2-1.3c-0.1-0.5-0.1-0.9-0.1-1.3
		c0-0.4,0-0.8,0-1.2c0-0.4,0-0.7,0-1c0-0.2,0.1-0.3,0.1-0.5c0.1-0.1,0.2-0.2,0.3-0.3c0.1-0.1,0.2-0.1,0.4-0.1c0.1,0,0.2,0,0.3,0
		c0.1,0,0.2,0.1,0.3,0.2c0.1,0.1,0.1,0.2,0.1,0.2c0,0.8,0,1.6,0.1,2.3c0,0.7,0.1,1.4,0.2,2c0.1,0.6,0.1,1.1,0.2,1.6
		c0.1,0.5,0.2,0.8,0.3,1.1c0.1,0.3,0.2,0.5,0.2,0.7c0.1,0.1,0.1,0.2,0.2,0.2c0.1,0,0.2-0.1,0.3-0.3c0.1-0.2,0.2-0.4,0.3-0.7
		c0.1-0.3,0.2-0.6,0.2-1c0.1-0.4,0.1-0.8,0.2-1.2c0-0.4,0.1-0.8,0.1-1.2c0-0.4,0.1-0.8,0.1-1.2c0-0.4,0-0.7,0.1-1c0-0.3,0-0.5,0-0.7
		c0-0.1,0-0.1,0-0.1c0,0,0-0.1,0.1-0.1c0,0,0,0,0.1,0c0,0,0,0.1,0,0.1c0,0.3,0,0.7,0,1c0,0.3,0,0.6,0,1
		C27.2,42.1,27.2,41.6,27.1,40.9z"/>
	<path class="st4" d="M35.5,42.4C35.5,42.4,35.6,42.4,35.5,42.4c0.1-0.1,0.1-0.1,0.2-0.1c0,0,0,0,0.1,0c0,0,0,0.1,0,0.1
		c-0.1,0.4-0.3,0.8-0.4,1.1c-0.1,0.3-0.3,0.6-0.5,0.8c-0.2,0.2-0.3,0.4-0.5,0.5c-0.2,0.1-0.3,0.2-0.5,0.2c-0.3,0-0.6-0.1-0.8-0.2
		c-0.2-0.2-0.4-0.4-0.6-0.7c-0.2-0.3-0.3-0.6-0.3-0.9c-0.1-0.3,0-0.7,0-1c0.1-0.3,0.2-0.6,0.4-0.8c0.2-0.2,0.5-0.3,0.8-0.4
		c0.2,0,0.4,0,0.6,0.1c0.1,0.1,0.2,0.2,0.3,0.4c0,0.2,0,0.4-0.1,0.6c-0.1,0.2-0.3,0.4-0.6,0.6c0,0.1,0,0.3,0,0.5
		c0,0.2,0.1,0.4,0.1,0.6c0,0.2,0.1,0.4,0.2,0.5c0.1,0.2,0.2,0.2,0.3,0.3c0,0,0.1,0,0.2-0.1c0.1-0.1,0.2-0.2,0.4-0.4
		c0.1-0.2,0.3-0.4,0.4-0.7C35.3,43.2,35.4,42.8,35.5,42.4z M33.5,42.6c0.2-0.1,0.3-0.3,0.3-0.4c0.1-0.1,0.1-0.3,0.1-0.4
		c0-0.1,0-0.2-0.1-0.2c-0.1-0.1-0.1-0.1-0.2,0c-0.1,0-0.1,0.1-0.1,0.2c0,0.1,0,0.2,0,0.3c0,0.1,0,0.2,0,0.3
		C33.5,42.4,33.5,42.5,33.5,42.6z"/>
	<path class="st4" d="M37.8,44.7c0.1,0,0.2-0.1,0.3-0.3c0.1-0.1,0.2-0.3,0.3-0.6c0,0,0-0.1,0.1-0.1c0,0,0.1,0,0.1,0c0,0,0,0,0.1,0.1
		c0,0,0,0.1,0,0.1c0,0.1-0.1,0.3-0.2,0.4c-0.1,0.2-0.2,0.3-0.3,0.4C38,44.9,37.9,45,37.7,45c-0.1,0.1-0.3,0.1-0.5,0.1
		c-0.2,0-0.5-0.2-0.7-0.4c-0.2-0.2-0.4-0.5-0.6-0.8c-0.2-0.3-0.3-0.7-0.5-1.2c-0.1-0.4-0.2-0.9-0.3-1.4c0-0.4,0-0.7,0-1.1
		c0-0.4,0.1-0.7,0.2-1.1c0.1-0.3,0.2-0.6,0.3-0.8c0.1-0.2,0.3-0.4,0.4-0.5c0.1-0.1,0.3-0.2,0.4-0.3c0.1-0.1,0.2-0.1,0.3-0.1
		c0.2,0,0.3,0,0.4,0.1c0.1,0.1,0.2,0.2,0.2,0.4c0.1,0.2,0.1,0.4,0.1,0.6c0,0.2,0,0.5-0.1,0.8c-0.1,0.3-0.1,0.6-0.3,0.8
		c-0.1,0.3-0.2,0.6-0.4,0.8l-0.2,0.2l0,0.4c0.1,0.5,0.1,1,0.2,1.3c0.1,0.4,0.2,0.7,0.3,1c0.1,0.3,0.2,0.6,0.3,0.7
		C37.6,44.7,37.7,44.7,37.8,44.7z M36.7,40.5l0,0.3c0-0.1,0.1-0.1,0.1-0.2c0-0.1,0.1-0.1,0.1-0.2c0.2-0.4,0.3-0.8,0.4-1.2
		c0.1-0.4,0.1-0.7,0.1-0.9c0-0.3,0-0.5-0.1-0.6c-0.1-0.1-0.1-0.2-0.2-0.2c-0.1,0-0.1,0-0.2,0.2c0,0.1-0.1,0.3-0.1,0.5
		c0,0.2-0.1,0.4-0.1,0.7c0,0.2,0,0.5,0,0.7c0,0.2,0,0.4,0,0.6C36.7,40.4,36.7,40.5,36.7,40.5z"/>
	<path class="st4" d="M40.5,40.5c0,0,0,0.1-0.1,0.1c0,0-0.1,0-0.1,0s-0.1,0-0.1,0s0-0.1,0-0.1c0-0.1,0-0.2,0-0.3c0-0.1,0-0.2,0-0.3
		c0-0.1,0-0.1-0.1-0.2c0,0-0.1-0.1-0.1,0c-0.1,0-0.2,0.1-0.2,0.3c0,0.1-0.1,0.3-0.1,0.5c0,0.2,0,0.4,0,0.7c0,0.3,0,0.5,0.1,0.8
		c0,0.3,0.1,0.5,0.1,0.8c0.1,0.3,0.1,0.5,0.2,0.7c0.1,0.2,0.1,0.3,0.2,0.5c0.1,0.1,0.1,0.2,0.2,0.2c0.1,0,0.2-0.1,0.4-0.2
		c0.1-0.2,0.3-0.4,0.4-0.6c0.1-0.3,0.3-0.6,0.5-1c0.2-0.4,0.3-0.8,0.5-1.3c0,0,0-0.1,0.1-0.1c0,0,0.1,0,0.1,0c0,0,0.1,0,0.1,0
		c0,0,0,0,0,0.1c-0.1,0.5-0.3,1-0.5,1.4c-0.2,0.4-0.3,0.8-0.5,1.2c-0.2,0.3-0.4,0.6-0.6,0.8c-0.2,0.2-0.5,0.3-0.7,0.2
		c-0.3,0-0.5-0.1-0.7-0.2c-0.2-0.1-0.4-0.3-0.6-0.5c-0.2-0.2-0.3-0.5-0.4-0.7c-0.1-0.3-0.1-0.6-0.2-0.9c0-0.3,0-0.6,0-0.9
		c0-0.3,0.1-0.6,0.3-0.8c0.1-0.2,0.3-0.4,0.5-0.6c0.2-0.2,0.5-0.3,0.8-0.3c0.2,0,0.3,0,0.4,0.1c0.1,0.1,0.2,0.1,0.2,0.3
		c0,0.1,0.1,0.2,0.1,0.4C40.5,40.2,40.5,40.3,40.5,40.5z"/>
	<path class="st4" d="M43.9,38.7c0,0.1,0.1,0.1,0.1,0.1c0,0,0.1-0.1,0.1-0.2c0-0.1,0.1-0.2,0.2-0.2c0.1-0.1,0.1-0.1,0.2-0.1
		c0.1,0,0.2,0,0.3,0.2c0.1,0.1,0.2,0.3,0.3,0.5c0.1,0.2,0.1,0.5,0.1,0.8c0,0.3,0,0.6,0,0.9c0,0.3-0.1,0.6-0.1,0.9
		c-0.1,0.3-0.2,0.5-0.3,0.7c-0.1,0.2-0.3,0.4-0.5,0.5c-0.2,0.1-0.4,0.2-0.7,0.1c-0.2,0-0.4-0.1-0.6-0.3c-0.2-0.2-0.4-0.3-0.5-0.6
		c-0.1-0.2-0.3-0.5-0.3-0.8c-0.1-0.3-0.1-0.6-0.1-0.8c0-0.3,0-0.6,0.1-0.8c0.1-0.3,0.2-0.5,0.4-0.7c0.1-0.1,0.2-0.2,0.4-0.3
		c0.1-0.1,0.3-0.1,0.4-0.1c0.1,0,0.2,0,0.3,0.1C43.8,38.5,43.9,38.6,43.9,38.7z M44,42.5c0.1,0,0.2,0,0.3-0.1
		c0.1-0.1,0.2-0.2,0.3-0.4c0.1-0.2,0.2-0.4,0.3-0.6c0.1-0.3,0.1-0.6,0.1-0.9c-0.2,0-0.3-0.1-0.5-0.2c-0.1-0.1-0.3-0.2-0.4-0.3
		c-0.1-0.1-0.2-0.2-0.2-0.4c0-0.1-0.1-0.3-0.1-0.4c-0.1,0.1-0.2,0.2-0.2,0.4c-0.1,0.2-0.1,0.4-0.1,0.6c0,0.2,0,0.5,0,0.7
		c0,0.3,0,0.5,0.1,0.7c0,0.2,0.1,0.4,0.2,0.5C43.9,42.4,43.9,42.5,44,42.5z M44.6,38.5c-0.1,0-0.2,0.1-0.2,0.2
		c-0.1,0.1-0.1,0.3-0.1,0.5c0,0.2,0,0.4,0.2,0.6c0.1,0.2,0.3,0.4,0.6,0.5c0,0,0-0.1,0-0.2c0-0.1,0-0.2,0-0.3c0-0.1,0-0.3-0.1-0.4
		c0-0.1-0.1-0.3-0.1-0.4c0-0.1-0.1-0.2-0.1-0.3C44.7,38.5,44.7,38.5,44.6,38.5z"/>
	<path class="st4" d="M47.2,37.6c0,0.2,0.1,0.4,0.1,0.6c0,0.2,0,0.4,0.1,0.6c0,0.2,0,0.4,0,0.6c0,0.2,0,0.4,0,0.7
		c0.1-0.3,0.1-0.5,0.2-0.7c0.1-0.2,0.1-0.4,0.2-0.6c0.1-0.2,0.1-0.4,0.2-0.7c0.1-0.2,0.2-0.5,0.3-0.8c0.1-0.2,0.2-0.3,0.4-0.3
		c0.1,0,0.3,0,0.4,0.1c0.1,0.1,0.3,0.2,0.4,0.5c0.1,0.2,0.2,0.5,0.2,0.8c0-0.2,0.1-0.4,0.1-0.5c0-0.2,0.1-0.3,0.1-0.5
		c0-0.2,0.1-0.3,0.1-0.5c0-0.2,0.1-0.4,0.2-0.6c0.1-0.1,0.2-0.2,0.4-0.2c0.2,0,0.3,0,0.5,0.1c0.2,0.1,0.3,0.2,0.5,0.5
		c0.1,0.2,0.3,0.5,0.3,0.8c0,0.1,0,0.3,0,0.6c0,0.2,0,0.5,0,0.8c0,0.3,0,0.6,0,0.9c0,0.3,0,0.6,0,0.8c0,0.2,0,0.4,0.1,0.6
		c0,0.2,0.1,0.2,0.1,0.2c0.1,0,0.2-0.1,0.3-0.3c0.1-0.2,0.2-0.4,0.4-0.7c0.1-0.3,0.3-0.6,0.4-1.1c0.1-0.4,0.3-0.9,0.4-1.4
		c0-0.1,0.1-0.1,0.1-0.1c0.1,0,0.1,0,0.1,0.1c-0.2,0.6-0.3,1.1-0.5,1.6c-0.2,0.5-0.3,0.9-0.5,1.2c-0.2,0.3-0.3,0.6-0.5,0.7
		c-0.2,0.2-0.4,0.3-0.6,0.2c-0.4,0-0.7-0.1-0.9-0.4c-0.2-0.3-0.4-0.6-0.4-1.1c-0.1-0.5-0.1-1-0.1-1.6c0-0.6,0-1.3,0.1-2.1
		c0,0,0,0,0,0.1c0,0.1-0.1,0.2-0.1,0.4c0,0.2-0.1,0.4-0.1,0.7c-0.1,0.3-0.1,0.5-0.2,0.8c-0.1,0.3-0.1,0.6-0.2,0.9
		c-0.1,0.3-0.1,0.6-0.1,0.8c0,0.1-0.1,0.3-0.2,0.4c-0.1,0.1-0.2,0.2-0.4,0.2c-0.1,0-0.3,0-0.4,0c-0.1,0-0.2-0.1-0.2-0.3
		c0-0.1,0-0.3,0-0.5c0-0.2,0-0.5,0-0.7c0-0.2,0-0.5,0-0.7c0-0.2,0-0.5,0-0.6c0-0.2,0-0.3,0-0.5c0-0.1,0-0.2,0-0.2
		c-0.2,0.5-0.3,1.1-0.5,1.7c-0.1,0.6-0.3,1.1-0.4,1.7c0,0.2-0.1,0.4-0.3,0.5c-0.1,0.1-0.3,0.2-0.5,0.2c-0.2,0-0.3,0.1-0.4,0
		c-0.1,0-0.2-0.1-0.2-0.1c0-0.1,0-0.2,0-0.3c0-0.2,0-0.4-0.1-0.6c0-0.3-0.1-0.6-0.1-0.9c0-0.4-0.1-0.8-0.2-1.3c0-0.1,0-0.2,0.1-0.2
		c0.1-0.1,0.1-0.1,0.2-0.2c0.1,0,0.2-0.1,0.3-0.1c0.1,0,0.2,0,0.3,0c0.1,0,0.2,0,0.3,0C47.1,37.5,47.1,37.6,47.2,37.6z"/>
	<path class="st4" d="M56.9,37C56.9,37,56.9,37,56.9,37C57,37,57,37,57.1,37c0,0,0,0,0.1,0c0,0,0,0.1,0,0.1
		c-0.1,0.4-0.3,0.8-0.4,1.1c-0.1,0.3-0.3,0.6-0.5,0.8c-0.2,0.2-0.3,0.4-0.5,0.5c-0.2,0.1-0.3,0.2-0.5,0.2c-0.3,0-0.6-0.1-0.8-0.2
		c-0.2-0.2-0.4-0.4-0.6-0.7c-0.2-0.3-0.3-0.6-0.3-0.9c-0.1-0.3,0-0.7,0-1c0.1-0.3,0.2-0.6,0.4-0.8c0.2-0.2,0.5-0.3,0.8-0.4
		c0.2,0,0.4,0,0.6,0.1c0.1,0.1,0.2,0.2,0.3,0.4c0,0.2,0,0.4-0.1,0.6c-0.1,0.2-0.3,0.4-0.6,0.6c0,0.1,0,0.3,0,0.5
		c0,0.2,0.1,0.4,0.1,0.6c0,0.2,0.1,0.4,0.2,0.5c0.1,0.2,0.2,0.2,0.3,0.3c0,0,0.1,0,0.2-0.1c0.1-0.1,0.2-0.2,0.4-0.4
		c0.1-0.2,0.3-0.4,0.4-0.7C56.6,37.8,56.8,37.5,56.9,37z M54.9,37.2c0.2-0.1,0.3-0.3,0.3-0.4c0.1-0.1,0.1-0.3,0.1-0.4
		c0-0.1,0-0.2-0.1-0.2c-0.1-0.1-0.1-0.1-0.2,0c-0.1,0-0.1,0.1-0.1,0.2c0,0.1,0,0.2,0,0.3c0,0.1,0,0.2,0,0.3
		C54.9,37.1,54.9,37.1,54.9,37.2z"/>
</g>
</svg>
