<?xml version="1.0" encoding="utf-8"?>
<!-- Generator: Adobe Illustrator 21.0.2, SVG Export Plug-In . SVG Version: 6.00 Build 0)  -->
<svg version="1.1" id="Layer_1" xmlns="http://www.w3.org/2000/svg" xmlns:xlink="http://www.w3.org/1999/xlink" x="0px" y="0px"
	 width="100px" height="100px" viewBox="0 0 100 100" style="enable-background:new 0 0 100 100;" xml:space="preserve">
<style type="text/css">
	.st0{fill:#E6B65D;}
	.st1{fill:#FFCD63;}
	.st2{fill:#FFE183;}
	.st3{fill:#FFFFED;}
	.st4{fill:#FFFFD6;}
	.st5{fill:#F4EDD0;}
	.st6{opacity:0.16;fill:#FFFFFF;}
	.st7{fill:#FFFFFF;}
	.st8{opacity:0.16;}
</style>
<path class="st0" d="M72.1,87.4c-0.2-0.2-0.3-0.5-0.2-0.9l0.6-4.6c0-0.1,0.1-0.2,0.1-0.3c1.7-9.6,4.8-18.9,6.3-28.5
	c1-5.9,1.5-12,2.9-17.8c0-2.6-0.1-5.2-0.2-7.8c-0.2-2.4-3.8-2.3-4.2,0c-1.8,11.1-3.7,22.2-6.2,33.1C70.1,65.8,68.6,71,67,76.1
	c-0.6,2.1-1.3,4.3-1.9,6.5c-1.9-0.4-3.8-0.6-5.5-0.8c-4.6-0.6-9.6-1.9-14.2-1.4c-0.9,0.1-1.8,0.3-2.7,0.7c-0.4-2-0.8-3.9-1.4-5.9
	c-1.6-5.7-3.6-11.2-5.6-16.7c-3.8-10.6-7.7-21.8-7.6-33.2c0-2-2.8-2.6-3.2-0.5c-2.2,11.8,0.4,23.3,4,34.6c1.8,5.6,3.8,11.1,5.7,16.6
	c0.5,1.6,1.1,3.2,1.6,4.8c-0.5,2.6-0.8,5.3-0.6,7.9c-0.1,0.5-0.1,0.9,0,1.4c0.1,1.9,0.8,3.2,1.8,4.2c0.2,0.3,0.4,0.6,0.7,0.9
	c1.9,0,3.6,0.6,5.4,1.3c0.8,0.3,1.5,0.6,2.3,0.9c8.1,1.1,18.1,1.6,24.8-2.6c0,0,0.1-0.1,0.1-0.1c0.6-0.5,1-1.2,1.1-2
	c0.6-1.5,0.7-3.1,0.2-4.6C72,87.9,72.1,87.6,72.1,87.4z"/>
<path class="st1" d="M49.7,86c-0.1-0.9-0.4-1.5-0.8-2.3c-0.1-0.2-0.6-1.5-0.5-1.2c-0.3-1.1-0.3-2.4-0.5-3.5
	c-0.3-2.5-0.7-5.1-1.3-7.5c-1.3-5.4-3.4-10.5-5.5-15.6c-4-9.6-9.4-19.1-9.9-29.7c-0.1-2.2-3.7-2.2-3.9,0
	c-0.9,11.4,2.4,22.3,6.2,32.9C35.3,64,37,69,38.2,74.2c0.6,2.6,0.8,5.3,1.2,8c0.5,3.7,1.9,7.4,5.8,8.3C47.7,91.1,50,88.4,49.7,86z"
	/>
<path class="st1" d="M73.6,27.4c-3.7,9.2-6.4,18.8-9.1,28.3c-1.4,4.9-2.7,9.8-3.9,14.8c-0.6,2.4-1.2,4.8-1.7,7.2
	c-0.6,2.7-1.6,5.6-0.5,8.3c0.9,2.2,4.2,3.4,6.1,1.7c2.3-2.1,2.7-5.1,3.5-8c0.6-2.3,1.2-4.5,1.7-6.8c1.2-4.9,2.4-9.8,3.6-14.7
	c2.2-9.6,4.9-19.2,6.5-29C80.4,25.6,75,24,73.6,27.4z"/>
<path class="st2" d="M74.4,31.3c0.2-2.4-3.5-3.8-4.4-1.2c-0.2,0.5-0.3,0.9-0.5,1.4c-1.1-0.1-2.1,0.3-2.8,1.3c-0.7,1-1.1,2.2-1.4,3.4
	c-1.3-2-5.2-2.4-6.1,0.4c-0.5,1.4-0.9,2.9-1.4,4.3c-0.2,0.2-0.4,0.4-0.6,0.6c0.2-1.3,0.4-2.6,0.6-3.8c0.6-4.2-5.8-5.1-6.6-0.9
	c0,0.2-0.1,0.4-0.1,0.6c-1.4-0.5-3.2,0.2-3.6,2.1c0,0.2-0.1,0.4-0.1,0.6c-0.7-0.2-1.5-0.2-2.2-0.1c0-0.1-0.1-0.3-0.1-0.4
	c-0.3-1-1.2-1.5-2.1-1.6c-0.1-0.5-0.3-0.9-0.4-1.4c-0.7-2.5-3.9-1.5-4.3,0.5c-1-2.9-2-5.9-3.1-8.8c-1.1-3-5.3-1.1-4.5,1.8
	c2.7,10,5,20.2,7.4,30.3c1.2,5.1,2.3,10.2,3.4,15.2c0.5,2.4,1.1,4.9,1.6,7.3c0.3,1.2,0.5,2.6,0.7,3.8c-0.2,1.5,0.3,3,1.4,4.1
	c0.1,0.2,0.2,0.3,0.3,0.5c0.7,1.2,2,1.7,3.3,1.6c4,1.4,8.6,1.3,12.4-0.5c2-0.9,3.2-3,2.9-5.2c2.4-9.1,4-18.4,5.8-27.6
	c0.9-4.6,1.7-9.2,2.5-13.8C73.1,41,74,36.2,74.4,31.3z"/>
<path class="st3" d="M81.8,35.8c0.6-2.7,1.4-5.3,2.5-7.8c-0.3-1.8-1.1-3.5-2.4-5.1c-2.1-2.4-4.6-3.7-7.6-4.6
	c-4.8-1.3-9.8-2.1-14.7-2.7c-3.4-0.4-7-0.8-10.5-0.6c-4.6-0.8-9.4-0.8-13.9,0.1c-4.6,0.9-9.6,2.8-12.3,6.9
	c-3.1,4.7-2.6,11.2,1.7,14.4c2,3.8,6.3,6.6,10.7,7.5c0.8,0.4,1.7,0.7,2.5,0.9c0,0,0.1,0,0.1,0.1c5.4,3,11.1,2.6,16.5,0.8
	c0.7,0,1.4,0.1,2.1,0.1c6,3,14.7,1.4,19.1-3.8c1.1-1,2.2-2.3,3-3.5c0.4-0.5,0.7-1.1,1.1-1.7C80.3,36.6,81.1,36.2,81.8,35.8z"/>
<path class="st4" d="M68.8,31.5c0.2-0.2,0.4-0.4,0.6-0.5c0.4-0.4,0.8-0.8,1.1-1.2c1.6-1.3,2.7-3.1,2.9-5.3c0.5-4.6-2.7-7.4-6.8-8.8
	c-0.8-0.6-1.8-1.1-2.9-1.3c-6.8-1.4-13.8-1.9-20.8-1.5c-3.6,0.2-7.4,0.4-10.5,2.4c-4,2.6-5.8,8.5-2.6,12.4c1.4,1.7,3.3,2.6,5.4,2.6
	c0.1,0,0.1,0.1,0.2,0.1c2.2,1.9,5.1,2.4,8,1.9c0.1,0,0.2,0,0.3,0c0.5,0,1,0,1.4,0c-0.1,0.8,0,1.6,0.4,2.2c-0.1,0-0.1,0.1-0.2,0.2
	c-0.6-0.1-1.3,0-1.8,0.4c-0.4-0.8-1.6-0.7-1.8,0.2c-0.7,2.5-0.5,5.1-0.7,7.7c-0.1,1.3,0.9,2.3,2,2.5c0.1,0.2,0.3,0.5,0.4,0.7
	c0.1,0.1,0.1,0.1,0.2,0.2c0.7,0.9,1.8,1.6,3,1.7c0.2,0,0.3,0,0.5,0c3.2,0.7,6.2,0,9.2-1.2c1.1,0.8,2.4,1.3,3.7,1.5
	c3.8,0.4,7.2-2,8.6-5.5c1.3-3.2,0.6-6.7,0.5-10.1C69,32.3,68.9,31.9,68.8,31.5z"/>
<path class="st5" d="M81.4,23.5c-1.2-1.3-3-2-4.7-1.3c-1,0.4-1.8,1.3-2.3,2.3c-0.6-0.3-1.3-0.3-1.8,0.1c-0.5,0.4-0.9,0.9-1.3,1.4
	c-3,0.7-5.8,1.8-8.9,2.4c-3.3,0.6-6.6,1-9.9,1.2c-3.4,0.2-6.8,0.1-10.2-0.3c-1.7-0.2-3.3-0.4-4.9-0.8c-1.4-0.3-3-1-4.4-0.8
	c-0.5,0.1-0.9,0.2-1.2,0.4c-0.8-0.7-1.4-1.6-1.2-2.8c0.3-2-1.2-3.9-3.2-4.2c-2.2-0.3-3.7,1.2-4.2,3.2c-1.6,6.2,4.7,10.3,9.7,11.8
	c2.1,0.6,4.6,1.3,5.9,3.1c0.7,1,0.8,2.1,0.9,3.2c0,0.6,0,1.2,0.1,1.7c0,0.3,0.2,0.9,0.2,1.1c-0.1,1,1.2,1.4,1.7,0.5
	c0.2-0.3,0.6-0.5,0.8-0.9c0.3-0.4,0.5-1,0.7-1.5c0.4-1.2,0.6-2.5,0.5-3.7c0-0.4-0.1-0.8-0.1-1.2c1.3,0.3,2.5,0.5,3.8,0.7
	c5,0.7,10.1,0.8,15.1,0.3c1-0.1,2-0.2,3-0.4c-0.5,2.2-0.8,4.5-0.6,6.7c0.4,3.9,6.5,4,7,0c0.4-2.8,0.3-5.6,0.6-8.4
	c1.1-0.4,2.3-0.9,3.3-1.5C79.7,33.9,85.7,28.4,81.4,23.5z"/>
<path class="st6" d="M71.8,83.7c-0.2-2.7-0.4-5.3-0.6-8c-0.4-5.3-0.6-10.6-0.6-16c0-0.7,0-1.3,0-2c0-0.2,0-0.3,0-0.4
	c0-0.1,0-0.3,0-0.4c0-1.3,0.1-2.6,0.1-4c0.1-2.6,0.4-5.2,0.7-7.8c0.7-5.6,1.6-11.2,3.4-16.5c1-2.9,2-5.8,1.6-9
	c-0.2-1.3-0.7-2.8-1.6-3.8c-0.7-0.8-2.4-1.6-3.4-0.6c-0.9,0.9-1,1.6-1.3,2.8c-0.3,0.9-0.8,1.9-1.3,2.8c-1.3,2.4-2.8,4.6-4.1,7.1
	c-2.5,4.9-4.3,10.2-5.5,15.6c-2.4,10.7-2.4,21.9-2.1,32.8c0.1,2.7,0.2,5.3,0.4,8c0.1,1.1,0.1,2.2,0.2,3.3c0.4,3.4,2.7,6.3,6.3,6.8
	c3,0.4,6.1-1.5,7.3-4.3C72.3,88.1,71.9,85.8,71.8,83.7z"/>
<path class="st6" d="M52.1,93.4c0.5-6.8-0.4-14.1-1.5-20.8c-1-6.7-2.6-13.3-4.6-19.8c-2-6.2-4.5-12.2-7.1-18.2
	c-2.3-5.3-4.7-12-2-17.6c1.6-3.4-3.5-5.5-5.3-2.3c-6.9,12.5,0.9,26.1,3.9,38.6c1.5,6.4,2.7,13,3.5,19.5c0.4,3.4,0.7,6.8,0.9,10.2
	c0.2,3.4,0.1,6.9,0.3,10.3C40.8,100,51.6,100.2,52.1,93.4z"/>
<path class="st7" d="M77,19.6c-3.1-1.2-6.2-2.6-9.4-3.7c-0.5-1.6-1.8-2.9-3.6-3.1c-6-0.4-12-0.4-18-0.6c-5.2-0.2-10.4-0.4-14.2,3.6
	c-3.1,1.2-5.8,3.4-7.2,6.4c-1.8,3.9,0.2,7.7,4.3,8.6c1.5,0.3,3,0.5,4.5,0.5c0.4,2.3,2.2,3.6,4.4,4.1c3,0.7,6.5-0.3,8.7-2.5
	c1.4,1.3,3.3,2,5.2,1.9c0.1,0,0.2,0,0.3,0c2.4,0.6,5,0.4,7.4,0c1.3-0.2,2.5-0.4,3.8-0.8c1.2,0.1,2.4,0.1,3.5,0
	c1.6,1.1,3.6,1.6,5.8,0.9c2.5-0.9,4.1-3,4.2-5.4c0.8-0.7,1.5-1.6,2.2-2.5C80.6,24.5,80,20.8,77,19.6z M33,23.2
	c0.2,0.1,0.5,0.3,0.7,0.4c-0.4,0-0.7,0-1.1,0C32.7,23.4,32.8,23.3,33,23.2z"/>
<path class="st7" d="M70,64.1c-0.7-0.7-2.3-0.4-2.4,0.7c0,0.2,0.1,0.5,0.3,0.6c0.8,0.3,1.9,0.2,2.5-0.5C70.6,64.7,70.4,64.1,70,64.1
	z"/>
<path class="st7" d="M71.2,57.2c-0.1-0.5-0.5-1.1-1-1.1c-0.3,0-0.6,0.1-0.7,0.4c0,0.1,0,0.2,0,0.2c-0.3,0.3-0.4,0.7-0.2,1.1
	c0.2,0.4,0.7,0.7,1.2,0.6C71,58.3,71.3,57.7,71.2,57.2z"/>
<path class="st7" d="M62.4,58.4C62.3,58.1,62,58,61.7,58c-0.2,0-0.4,0.2-0.5,0.4c0-0.4-0.5-0.7-0.8-0.3c-0.5,0.6-0.2,1.5,0.5,1.7
	C61.7,60.1,62.7,59.2,62.4,58.4z"/>
<path class="st7" d="M62.3,67.1c-0.1-0.4-0.4-0.7-0.8-0.7c-0.4,0-0.8,0.2-1.2,0.5c-0.2,0.2-0.3,0.6-0.1,0.8c0.2,0.2,0.5,0.2,0.7,0.1
	c0,0,0,0,0,0C61.5,68.5,62.4,67.8,62.3,67.1z"/>
<path class="st7" d="M54.8,62.1c-0.1,0-0.2,0-0.3,0c-0.4,0-0.5,0.7-0.1,0.8c0.1,0,0.2,0.1,0.3,0.1c0.3,0.1,0.6-0.1,0.7-0.4
	C55.4,62.3,55.2,62.1,54.8,62.1z"/>
<path class="st7" d="M67.6,71.5c-0.1,0-0.1,0-0.2,0c-0.3-0.1-0.5,0.1-0.5,0.4c-0.1,0.2,0,0.5,0.4,0.5c0.1,0,0.1,0,0.2,0.1
	C68.1,72.5,68.3,71.5,67.6,71.5z"/>
<path class="st7" d="M74.3,62.1c-0.1,0-0.1,0-0.2,0c-0.3-0.1-0.5,0.1-0.5,0.4c-0.1,0.2,0,0.5,0.4,0.5c0.1,0,0.1,0,0.2,0.1
	C74.8,63.2,74.9,62.2,74.3,62.1z"/>
<path class="st7" d="M74.9,51.7c-0.1,0-0.1,0-0.2,0c-0.3-0.1-0.5,0.1-0.5,0.4c-0.1,0.2,0,0.5,0.4,0.5c0.1,0,0.1,0,0.2,0.1
	C75.3,52.8,75.5,51.7,74.9,51.7z"/>
<path class="st7" d="M57.5,69.1c-0.1,0-0.1,0-0.2,0c-0.3-0.1-0.5,0.1-0.5,0.4c-0.1,0.2,0,0.5,0.4,0.5c0.1,0,0.1,0,0.2,0.1
	C58,70.1,58.1,69.1,57.5,69.1z"/>
<path class="st7" d="M59.3,74.9c-0.1,0-0.2-0.1-0.3-0.1c-0.3-0.1-0.6,0.2-0.7,0.5c0,0.3,0.2,0.6,0.5,0.7c0.1,0,0.2,0,0.4,0
	c0.3,0,0.6-0.2,0.6-0.5C59.8,75.2,59.6,74.9,59.3,74.9z"/>
<path class="st7" d="M67,78.7c0-0.4-0.2-0.8-0.6-0.8c-0.4,0-0.7,0.2-0.8,0.6c0,0.1,0,0.2-0.1,0.3c-0.1,0.4,0.2,0.8,0.6,0.8
	c0.4,0,0.8-0.2,0.8-0.6C67,78.9,67,78.8,67,78.7z"/>
<path class="st7" d="M66,54.9c-0.8-0.1-1,1.1-0.2,1.2C66.7,56.3,66.8,55.1,66,54.9z"/>
<path class="st7" d="M55.6,79c0.3-0.2,0.4-0.6,0.1-0.9c-0.2-0.3-0.6-0.3-0.9-0.1c0,0-0.1,0-0.1,0.1c0,0,0,0,0,0c0,0,0,0,0,0
	c-0.2,0-0.3,0.2-0.4,0.3c-0.2,0.2-0.2,0.6,0,0.8c0.2,0.2,0.5,0.4,0.8,0.2c0.1-0.1,0.4-0.2,0.4-0.3c0,0,0,0,0,0c0,0,0,0,0,0
	C55.5,79,55.5,79,55.6,79z"/>
<path class="st7" d="M58.2,87.7c-0.6-0.1-0.8,0.9-0.1,1C58.7,88.8,58.8,87.8,58.2,87.7z"/>
<path class="st7" d="M52.4,87.9c-0.7-0.1-0.8,1-0.2,1.1C52.9,89.1,53.1,88,52.4,87.9z"/>
<path class="st7" d="M66.9,89.3c-0.7-0.1-0.8,0.9-0.1,1C67.4,90.4,67.6,89.4,66.9,89.3z"/>
<path class="st7" d="M57.9,27.7c-0.6-0.1-0.7,0.6-0.1,0.6C58.4,28.4,58.5,27.8,57.9,27.7z"/>
<path class="st8" d="M72.4,85.4l0.6-4.6c0-0.1,0.1-0.2,0.1-0.3c0.2-1.4,0.5-2.8,0.8-4.2c-0.5-0.4-1.3-0.4-1.9,0.2
	c-1.1,1-2.1,2-3.1,2.9c-0.3,0.1-0.5,0.1-0.8,0.2c-0.7,0.1-1.5,0.4-2.1,0.8c-0.5,0.1-1,0.2-1.5,0.4c-1,0-2,0.3-2.9,0.9
	c-0.4,0.2-0.7,0.5-1,0.8c-1.4,0.2-2.8,0.3-4.2,0.4c-0.9-0.2-1.9-0.2-2.8,0.1c-5.8,0-11.9-1.1-17.1-3.3c-0.6-0.3-1,0.5-0.6,1
	c0.2,0.2,0.3,0.3,0.5,0.4c-0.1,0.1-0.1,0.3-0.2,0.5c0,0.2-0.1,0.3-0.1,0.5c-0.3-0.2-0.6-0.3-0.9-0.3c0.2,0.2,0.4,0.4,0.4,0.8
	c0.1,1.4,0.2,2.8,0.1,4.2c0,0,0,0.1,0,0.1c0,0.2,0,0.4-0.1,0.6c0,0,0,0.1,0,0.1c0,0.1,0,0.2,0,0.3c0,0.3-0.1,0.5-0.3,0.7
	c0,0.1,0,0.2,0,0.3c0.2,1,0.5,1.9,0.9,2.9c0.2,0.5,0.6,0.7,0.9,0.7c0.5,0.5,1.1,0.7,1.8,0.7c0.3,0.3,0.6,0.5,1,0.7
	c0.1,0.1,0.2,0.2,0.3,0.3c1.2,0.2,2.3,0.5,3.4,1c0.2,0,0.4-0.1,0.7-0.2c0.1,0.2,0.2,0.4,0.2,0.5c0.6,0.2,1.1,0.4,1.7,0.6
	c1.6,0.2,3.2,0.4,4.9,0.6c0,0,0,0,0,0c0.5,0.1,0.9,0,1.4-0.1c0.1,0.1,0.1,0.1,0.2,0.2c3.2,0.2,6.4,0.2,9.5-0.3
	c1.3-0.4,2.6-1.1,3.8-1.8c0.8-0.3,1.5-0.8,2.1-1.4c0.9-0.7,1.8-1.5,2.5-2.4c0.1-0.1,0.2-0.3,0.3-0.4c0,0,0.1-0.1,0.1-0.1
	c1.2-0.5,2.1-1.3,2.5-2.5c0.1-0.4,0.2-0.9,0.3-1.3c0,0,0,0,0,0c0-0.1,0-0.2,0-0.3C73.4,86.9,72.3,86.5,72.4,85.4z"/>
<path d="M81.8,44c0.5-2.7,0.7-5.6,0.7-8.4c1.1-2.1,1.5-4.6,1.4-7c-0.1-5.4-2.3-10.8-6-14.8c-4.1-4.3-9.9-7.5-15.3-9.9
	c-5.1-2.2-10.8-3.5-16.2-1.6c-1.5,0.5-2.9,1.4-4.4,2.1c-1.7,0.8-3.3,1.2-5.2,1.3c-2.7,0.2-5.2,0.6-7.4,2.4c-4.1,3.3-5.7,8.5-7,13.3
	c-0.2-0.1-0.5-0.1-0.7,0.2c-1.1,1.4-1.3,2.9-1.3,4.6c0,2.2,0.1,4.4,0.2,6.6c0,1.4,0,2.8,1,3.8c0.9,0.9,2.1,1.3,3.4,1.4
	c0.1,0.2,0.2,0.4,0.3,0.6c0,5.1,0.2,10.3,1.5,15.3c0.2,0.7,0.4,1.5,0.7,2.2c0-0.1,0-0.1,0-0.2c1.1,4.1,3.5,8,5,12
	c2.5,6.8,3,14.1,3.5,21.2c0,0.1,0.1,0.2,0.1,0.3c0,0.5,0,0.9,0,1.4c0,0.1,0.2,0.1,0.2,0c0-0.3,0-0.6,0.1-1c0.1,0.4,0.2,0.7,0.4,1
	c0.4,2.4,2.6,3.9,5,4.6c4.2,1.2,8.8,1.9,13.1,2.1c6.6,0.3,17.4-1.3,18.7-9.4c0.1-0.4-0.4-0.6-0.7-0.4c0.1-1,0-2.2,0.1-3.1
	c0.1-1.6,0.3-3.2,0.6-4.7c0.5-3.5,1.3-7,2.1-10.4c0.8-3.3,1.7-6.7,2.4-10c0.6-2.8,1-5.5,1.5-8.3c0.2,0.1,0.4,0.2,0.5,0.4
	c0.4-1.7,0.8-3.5,1.1-5.3c0.1-0.5,0.3-1.1,0.4-1.7c0.1,0,0.1-0.1,0.2-0.1C82.1,44.3,82,44,81.8,44z M82.1,30.9c0,0,0.1-0.1,0.1-0.1
	c0,0.5,0,0.9,0,1.4C82.2,31.7,82.2,31.3,82.1,30.9z M82.5,30.5c0.1-0.1,0.2-0.2,0.2-0.3c0,0.5-0.1,1.1-0.2,1.6
	C82.5,31.4,82.5,30.9,82.5,30.5z M21.9,31.6c0-2.8-0.8-6.9,1-9.2c0.2-0.3,0.1-0.6-0.1-0.9c1.4-4.2,3.2-8.9,6.5-12
	c1.8-1.7,4.1-2.6,6.6-2.8c2.7-0.2,4.9-0.6,7.4-1.8c2.6-1.3,5.1-2.3,8-2.4c3-0.1,6,0.6,8.7,1.7c5.3,2,10.7,5,15,8.7
	c4.3,3.7,7.1,8.9,7.6,14.5c0,0.2,0,0.4,0,0.6c0,0.1,0,0.2,0,0.3c0,0.1-0.1,0.3-0.1,0.4c-0.1,0.3-0.2,0.5-0.3,0.7
	c-0.1,0.1-0.2,0.2-0.3,0.2c-0.2,0.1-0.4,0.3-0.5,0.5c0.2,0.2,0.4,0.5,0.4,0.8c0,0.2,0,0.3-0.1,0.5c0,0.1-0.1,0.1-0.1,0.2
	c0,0-0.1,0.1-0.1,0.1c0,0-0.1,0.1-0.1,0.1c0,1.1,0,2.2,0,3.2c-0.1,0.3-0.3,0.5-0.5,0.8c-1.5,2.1-3.9,3.2-5.4,5.5
	c-1.4,2.2-2.5,5.2-5.2,6.1c-2.6,0.9-4.7-2.1-7.4-1.4c-1.1,0.3-1.9,1-3,1.3c-1.6,0.4-3.1-0.5-4.5-1.1c-2.1-0.9-3.9-1.1-6.1-0.4
	c-3.1,0.9-5.5,2-8.4-0.1c-1.9-1.4-3.6-3.2-6-3.9c-2.5-0.8-6.6-0.2-8-2.9c-0.9-1.7-1.6-4.2-4.1-3.3c-0.3,0.1-0.4,0.3-0.5,0.5
	c0,0-0.1-0.1-0.1-0.1C21.6,34.8,21.9,32.9,21.9,31.6z M24.6,37.3c-0.3-0.1-0.6-0.2-0.9-0.4C24,36.9,24.3,37,24.6,37.3z M26.2,40.4
	c0.6,0.8,1.4,1.3,2.4,1.7c2.4,0.9,5.1,0.5,7.4,1.7c2.3,1.3,4,3.6,6.6,4.4c2.2,0.7,4.3-0.1,6.4-0.8c1.7-0.6,3.2-0.9,4.9-0.3
	c1.3,0.4,2.4,1.1,3.7,1.5c1.1,0.3,2.1,0.3,3.1,0c1.8-0.6,2.8-1.7,4.9-0.8c0.6,0.3,1.2,0.5,1.8,0.8c-4.6,0.9-9.3,1.4-14.1,1.2
	c-9.4-0.4-18.9-3-27-7.8C26.3,41.4,26.2,40.9,26.2,40.4z M27,50.6c-0.1-0.3-0.1-0.6-0.2-1c0-0.1,0-0.3,0-0.4
	c0.1,0.4,0.2,0.8,0.2,1.3C27,50.5,27,50.5,27,50.6z M37.5,88.9c0-0.2,0-0.5,0-0.7c0.7-1.2,2.7-1.7,3.9-2.1c3.1-1,6.3-1.8,9.6-2.2
	c3.3-0.5,6.6-0.6,9.8-0.5c1.6,0.1,3.1,0.2,4.7,0.3c1.4,0.2,3.3,0.2,4.6,0.8c3.1,1.5,0.8,4.6-0.7,6c-1.3,1.1-2.8,1.8-4.3,2.4
	c-3.2,1.1-6.6,1.5-10,1.4c-5.4-0.1-12.1-0.5-17-3.3c-0.4-0.4-0.7-0.8-0.8-1.4C37.4,89.4,37.5,89.2,37.5,88.9z M65.8,94.7
	c-3.1,1.2-6.5,1.6-9.9,1.6c-3.4,0-6.9-0.4-10.3-1C42.8,95,37.9,94.2,37,91c1,1.2,2.8,1.8,4.3,2.1c0.2,0,0.3-0.1,0.3-0.3
	c4.1,1.6,8.6,2.1,12.9,2.3c5.4,0.2,13-0.4,16.5-5.2c0.2-0.3,0.5-0.7,0.6-1.1c0.1,0.2,0.1,0.4,0.2,0.6c0,0,0,0,0,0.1
	C70.5,91.8,68.7,93.6,65.8,94.7z M79.6,51c-0.7,2.9-1.6,5.7-2.3,8.6c-0.9,3.3-1.8,6.7-2.6,10c-0.8,3.3-1.6,6.7-2.1,10.1
	c-0.3,1.8-0.5,3.6-0.7,5.4c0,0.2,0,0.3-0.1,0.5c-0.3-0.2-0.5-0.4-0.7-0.8c-0.1-0.2-0.1-0.4-0.2-0.6c-0.8-0.4-1.8-0.4-2.6-0.6
	c-1.8-0.3-3.7-0.6-5.5-0.8c-6.5-0.6-13.1,0-19.3,1.8c-1.6,0.4-4.5,1-6.1,2.4c-0.4-6.1-1-12.2-2.9-18.1c-1.7-5.2-4.5-10-6.2-15.2
	c0,0,0,0,0,0c-0.5-2.2-1-4.3-1.3-6.5c-0.2-1.6-0.4-3.3-0.6-4.9c0-0.1,0-0.2,0-0.2c8.3,5,17.5,8,27.2,8.5c9.1,0.5,18.9-1.1,27.1-5.4
	c-0.3,1.9-0.7,3.9-1.2,5.8C79.4,50.9,79.5,50.9,79.6,51z M80.7,44.4c-2.4,1-4.8,1.8-7.3,2.6c1.4-1.4,2.2-3.3,3.2-4.9
	c1.2-2,3.2-3.1,4.7-4.8c-0.1,1.8-0.2,3.5-0.4,5.3C80.9,43.2,80.8,43.8,80.7,44.4z"/>
</svg>
