<?xml version="1.0" encoding="utf-8"?>
<!-- Generator: Adobe Illustrator 21.0.2, SVG Export Plug-In . SVG Version: 6.00 Build 0)  -->
<svg version="1.1" id="Layer_1" xmlns="http://www.w3.org/2000/svg" xmlns:xlink="http://www.w3.org/1999/xlink" x="0px" y="0px"
	 width="100px" height="100px" viewBox="0 0 100 100" style="enable-background:new 0 0 100 100;" xml:space="preserve">
<style type="text/css">
	.st0{fill:#449EC6;}
	.st1{fill:#F22C67;}
	.st2{fill:#F29C9E;}
	.st3{fill:#4FC5C9;}
	.st4{fill:#F9DFBB;}
	.st5{fill:#ACDCD5;}
	.st6{fill:#0E3552;}
	.st7{fill:#FF8650;}
</style>
<rect x="48.3" y="9" class="st0" width="3.1" height="12.8"/>
<circle class="st1" cx="38.5" cy="17" r="3.2"/>
<circle class="st1" cx="44.2" cy="17" r="3.2"/>
<circle class="st1" cx="49.8" cy="17" r="3.2"/>
<circle class="st1" cx="55.5" cy="17" r="3.2"/>
<circle class="st1" cx="61.2" cy="17" r="3.2"/>
<circle class="st2" cx="44.2" cy="17" r="1.8"/>
<circle class="st2" cx="49.8" cy="17" r="1.9"/>
<circle class="st2" cx="61.2" cy="17" r="1.8"/>
<path class="st3" d="M70.7,39.6V26.1c0-3.5-2.8-6.3-6.3-6.3H35.3c-3.5,0-6.3,2.8-6.3,6.3v13.4H70.7z"/>
<path class="st4" d="M64.4,19.8H35.3c-3.5,0-6.3,2.8-6.3,6.3v0.3c0.6,1.1,1.4,1.9,2.7,1.9c3.9,0,3.7-2.9,5-2.9
	c1.4,0,0.7,6.8,2.2,6.8c1.5,0,1.4-6.9,3-6.9c1.6,0,1.5,4.2,4.5,4.2c3.1,0,2.2-5.3,4.2-5.3c2,0,2,4.6,4,4.6c2,0,2.4-3.8,4.3-3.8
	c1.9,0,1.5,7,5.7,7c3.5,0,4.5-4.8,6.2-6.6C70.3,22.3,67.6,19.8,64.4,19.8z"/>
<circle class="st2" cx="50.2" cy="29.9" r="1.3"/>
<circle class="st2" cx="54.3" cy="31.9" r="1.8"/>
<circle class="st1" cx="27.2" cy="36" r="3.2"/>
<circle class="st1" cx="32.8" cy="36" r="3.2"/>
<circle class="st1" cx="38.5" cy="36" r="3.2"/>
<circle class="st1" cx="44.2" cy="36" r="3.2"/>
<circle class="st1" cx="49.8" cy="36" r="3.2"/>
<circle class="st1" cx="55.5" cy="36" r="3.2"/>
<circle class="st1" cx="61.2" cy="36" r="3.2"/>
<circle class="st1" cx="66.8" cy="36" r="3.2"/>
<circle class="st1" cx="72.5" cy="36" r="3.2"/>
<circle class="st2" cx="72.5" cy="36" r="2"/>
<circle class="st2" cx="66.8" cy="36" r="1.8"/>
<circle class="st2" cx="61.2" cy="36" r="1.3"/>
<circle class="st2" cx="55.5" cy="36" r="2.1"/>
<circle class="st2" cx="44.2" cy="36" r="1.7"/>
<circle class="st2" cx="38.5" cy="36" r="2.2"/>
<circle class="st2" cx="27.2" cy="36" r="1.6"/>
<path class="st5" d="M80.5,64.8V44.9c0-3.5-2.8-6.3-6.3-6.3H25.5c-3.5,0-6.3,2.8-6.3,6.3v19.9H80.5z"/>
<path class="st4" d="M80.5,44.9c0-3.5-2.8-6.3-6.3-6.3H25.5c-2.2,0-4.1,1.1-5.2,2.8c0.2,3.2,1.2,8.2,5.2,7.8
	c5.7-0.5,3.4-4.3,6.2-4.3c2.9-0.1,1.5,7.9,5.7,7.9c4.3,0,3.2-9.7,7-9.7c3.9,0,2.1,6,5.4,6c3.4,0,2.1-5.9,5.7-5.9
	c3.7,0,0.2,10.5,4.4,10.5c4.3,0,0.7-10.9,3.2-10.9c2.5,0,1,5.4,4.5,5.4c3.6,0,1.7-3.6,3.7-3.6c2,0,1.2,5.5,5.1,5.5
	c1.6,0,3-0.8,4.1-1.9V44.9z"/>
<circle class="st2" cx="68.7" cy="51.1" r="1.1"/>
<circle class="st2" cx="49.5" cy="52.5" r="2"/>
<circle class="st2" cx="27.1" cy="51.7" r="1.1"/>
<circle class="st1" cx="15.8" cy="59.7" r="3.2"/>
<circle class="st1" cx="21.5" cy="59.7" r="3.2"/>
<circle class="st1" cx="27.2" cy="59.7" r="3.2"/>
<circle class="st1" cx="32.8" cy="59.7" r="3.2"/>
<circle class="st1" cx="38.5" cy="59.7" r="3.2"/>
<circle class="st1" cx="44.2" cy="59.7" r="3.2"/>
<circle class="st1" cx="49.8" cy="59.7" r="3.2"/>
<circle class="st1" cx="55.5" cy="59.7" r="3.2"/>
<circle class="st1" cx="61.2" cy="59.7" r="3.2"/>
<circle class="st1" cx="66.8" cy="59.7" r="3.2"/>
<circle class="st1" cx="72.5" cy="59.7" r="3.2"/>
<circle class="st1" cx="78.2" cy="59.7" r="3.2"/>
<circle class="st1" cx="83.8" cy="59.7" r="3.2"/>
<circle class="st2" cx="21.5" cy="59.7" r="1.5"/>
<circle class="st2" cx="15.8" cy="59.7" r="2.1"/>
<circle class="st2" cx="32.8" cy="59.7" r="1.6"/>
<circle class="st2" cx="44.2" cy="59.7" r="2.1"/>
<circle class="st2" cx="55.5" cy="59.7" r="2.1"/>
<circle class="st2" cx="61.2" cy="59.7" r="1.6"/>
<circle class="st2" cx="66.8" cy="59.7" r="2"/>
<circle class="st2" cx="72.5" cy="59.7" r="1.3"/>
<circle class="st2" cx="78.2" cy="59.7" r="2"/>
<circle class="st2" cx="83.8" cy="59.7" r="1.5"/>
<path class="st3" d="M91.3,94.3V68.7c0-3.5-2.8-6.3-6.3-6.3H14.7c-3.5,0-6.3,2.8-6.3,6.3v25.6H91.3z"/>
<path class="st4" d="M91.3,68.7c0-3.5-2.8-6.3-6.3-6.3H14.7c-3,0-5.5,2.1-6.2,4.9c0.8,4.3,2.9,11.2,7.2,11.1
	c5.8-0.2,4.8-9.2,8.3-9.2S22.5,86,29.4,85.8c6.9-0.2,2.4-18.2,4.7-18.2c2.4,0,1.3,4.9,4.6,5c3.4,0.1,0.7-5.2,3.9-5.1
	c3.2,0.1-1.1,16.4,6,16.4s2.1-16.6,6.3-16.6s0.3,6.4,3.9,6.4c3.6,0,0.7-5.1,2.8-5.1c2.1,0,0.6,7.3,6.4,7.3c5.8,0,3.3-7,7.6-7
	c4.3,0,2.1,9.3,8.6,9.3c3.3,0,5.6-2.8,7-5.9V68.7z"/>
<circle class="st2" cx="19.1" cy="81" r="1.6"/>
<circle class="st2" cx="38.8" cy="75.9" r="1.9"/>
<circle class="st2" cx="59.7" cy="80.9" r="1.8"/>
<path class="st5" d="M94.9,94.6c0,1.7-1.4,3.2-3.2,3.2H8c-1.7,0-3.2-1.4-3.2-3.2v-0.2c0-1.7,1.4-3.2,3.2-3.2h83.7
	c1.7,0,3.2,1.4,3.2,3.2V94.6z"/>
<path class="st6" d="M8,97.8h83.7c1.7,0,3.2-1.4,3.2-3.2v-0.1h-90v0.1C4.8,96.3,6.2,97.8,8,97.8z"/>
<g>
	
		<image style="overflow:visible;opacity:0.75;" width="15" height="20" xlink:href="176F8F2F.png"  transform="matrix(1 0 0 1 43 -4)">
	</image>
	<g>
		<path class="st7" d="M49.6,2.3c0.6,0.5,0.9,1.1,1.1,1.7C50.9,4.5,51,5.1,51,5.7c0,0.6-0.1,1.2-0.2,1.8c-0.2,0.6-0.5,1.2-0.8,1.7
			c-0.5-0.6-0.6-1.2-0.8-1.8C49.1,6.9,49,6.4,49,5.8c0-0.6,0-1.1,0.1-1.7C49.2,3.5,49.4,2.9,49.6,2.3z"/>
	</g>
</g>
</svg>
