<?xml version="1.0" encoding="utf-8"?>
<!-- Generator: Adobe Illustrator 21.0.2, SVG Export Plug-In . SVG Version: 6.00 Build 0)  -->
<svg version="1.1" id="Layer_1" xmlns="http://www.w3.org/2000/svg" xmlns:xlink="http://www.w3.org/1999/xlink" x="0px" y="0px"
	 width="100px" height="100px" viewBox="0 0 100 100" style="enable-background:new 0 0 100 100;" xml:space="preserve">
<style type="text/css">
	.st0{fill:#006395;}
	.st1{fill:#00547C;}
	.st2{fill:#DBDBDB;}
	.st3{fill:#B0B0B0;}
	.st4{fill:#7DC4B2;}
	.st5{fill:#4C8C7B;}
	.st6{fill:#A80E1D;}
	.st7{fill:#D9212B;}
	.st8{fill:#7F7F7F;}
	.st9{fill:#363636;}
	.st10{fill:#9E9E9E;}
	.st11{fill:#288EB8;}
	.st12{fill:#156D85;}
	.st13{fill:#FBC91A;}
	.st14{fill:#F4A11D;}
	.st15{fill:#56BCA2;}
	.st16{fill:#C4C4C4;}
	.st17{fill:#005984;}
</style>
<path class="st0" d="M69.9,99.2l-54.4-3.9c-0.8-0.1-1.4-0.7-1.3-1.5l5.1-67.9c0.1-0.8,0.8-1.4,1.6-1.3l54.4,3.9
	c0.8,0.1,1.4,0.7,1.3,1.5l-5.1,67.9C71.5,98.7,70.8,99.3,69.9,99.2z"/>
<g>
	<polygon class="st1" points="19.1,94.1 18.9,94.1 24.3,26 24.5,26 	"/>
</g>
<path class="st2" d="M75.6,29.8l-0.9-0.2c-0.1,0-0.1,0.2-0.1,0.3L69.7,97c0.3,0.6,0.6,1.1,1,1.7c0.1-0.1,0.2-0.5,0.1-1.5l4.9-67
	C75.8,29.9,75.7,29.7,75.6,29.8z"/>
<path class="st3" d="M69.7,97.2l-53-3.8l0.3,1.3l53.2,4c0.1,0,0.2,0,0.3,0l0,0l0,0c0.1,0,0.1,0,0.2-0.1c-0.3-0.5-0.6-1.1-1-1.7
	L69.7,97.2z"/>
<g>
	<path class="st4" d="M81.9,27.8l-1.4-0.1l0-0.1c0,0-0.1-1.5-2.1-1.6c-2-0.2-49.5-3.8-49.5-3.8s-2-0.1-2.5,2.2
		c0,0.1-0.1,0.2-0.1,0.4L21,88.7c-0.1,0.8,1.3,5,2.1,5.1L76.1,98c0.8,0.1,1.5-0.5,1.6-1.3l5.6-67.4C83.3,28.5,82.7,27.8,81.9,27.8z"
		/>
	<g>
		<path class="st2" d="M82.3,29.1l-1.5-0.7c-0.1,0-0.1,0.2-0.1,0.3l-5.4,64.9c0.3,0.5,1.3,3.4,1.6,3.9c0.1-0.1,0.2-0.5,0.2-1.5
			l5.4-66.5C82.4,29.2,82.3,29,82.3,29.1z"/>
		<path class="st2" d="M75.1,93.5l-52.6-4.2l1.9,3.9l52,4.3c0.1,0,0.2,0,0.3,0l0,0l0,0c0.1,0,0.1,0,0.2-0.1
			c-0.3-0.5-1.4-3.7-1.7-4.2L75.1,93.5z"/>
	</g>
	<g>
		<polygon class="st5" points="25.8,88.8 25.6,88.8 31.4,22.7 31.6,22.7 		"/>
	</g>
</g>
<g>
	<polygon class="st6" points="15.1,84.2 14.9,84.2 35.9,17.9 36,17.9 	"/>
</g>
<g>
	<path class="st7" d="M68.8,98.4l-54.3-10c-0.8-0.1-1.3-0.9-1.2-1.7l13.4-68c0.2-0.8,0.9-1.3,1.7-1.2l54.3,10
		c0.8,0.1,1.3,0.9,1.2,1.7l-13.4,68C70.4,98.1,69.6,98.6,68.8,98.4z"/>
	<path class="st3" d="M68.8,96.4l-53-9.7l0.1,1.4L69.2,98c0.1,0,0.2,0.1,0.3,0.1l0,0l0,0c0.1,0,0.1,0,0.2-0.1
		c-0.3-0.6-0.5-1.2-0.8-1.8L68.8,96.4z"/>
</g>
<g>
	<path class="st8" d="M78.6,91l-52.7-0.4c-1,0-1.8-0.7-1.8-1.5l1.5-73.2c0-0.8,0.8-1.5,1.8-1.5l51.8,0.9c1,0,1.8,0.7,1.8,1.5
		l-0.5,72.7C80.4,90.3,79.6,91,78.6,91z"/>
	<g>
		<polygon class="st9" points="30.5,87.5 30.3,87.5 31.6,15.7 31.9,15.7 		"/>
	</g>
	<path class="st2" d="M79.6,16.6l-1.1-0.1c-0.1,0-0.1,0.2-0.1,0.3l-0.3,71.8c0.5,0.6,0.9,1.2,1.4,1.7c0.1-0.2,0.1-0.6,0-1.7
		l0.3-71.7C79.8,16.7,79.7,16.5,79.6,16.6z"/>
	<path class="st10" d="M78.1,88.9l-51-0.4l0.5,1.4l51.3,0.5c0.1,0,0.3,0,0.4,0h0l0,0c0.1,0,0.1,0,0.2-0.1c-0.5-0.6-0.9-1.2-1.4-1.7
		L78.1,88.9z"/>
</g>
<g>
	<path class="st11" d="M88.5,24.1l-1.3-0.2l0-0.1c0,0,0-1.4-1.9-1.8C83.3,21.6,37,14,37,14s-2-0.3-2.7,2c-0.1,0.1-0.1,0.2-0.1,0.4
		l-11,62.4C23,79.5,24,83.8,24.8,84l51.6,8.7c0.8,0.1,1.5-0.4,1.7-1.1l11.6-65.8C89.8,25,89.3,24.2,88.5,24.1z"/>
	<g>
		<path class="st2" d="M88.7,25.4l-1.4-0.8c-0.1,0-0.1,0.1-0.2,0.3L76,88.2c0.3,0.6,1,3.4,1.2,4c0.1-0.1,0.2-0.5,0.3-1.5l11.3-64.9
			C88.8,25.5,88.7,25.4,88.7,25.4z"/>
		<path class="st2" d="M75.9,88.1l-51.3-8.6l1.5,4l50.7,8.7c0.1,0,0.2,0,0.3,0l0,0l0,0c0.1,0,0.1,0,0.2-0.1c-0.3-0.6-1-3.7-1.3-4.3
			L75.9,88.1z"/>
	</g>
	<g>
		<polygon class="st12" points="27.8,79.3 27.6,79.2 39.3,14.8 39.5,14.8 		"/>
	</g>
</g>
<g>
	<path class="st13" d="M74.6,88l-51.2-0.4c-0.8,0-1.4-0.6-1.4-1.4l0.5-64c0-0.7,0.6-1.3,1.4-1.3l51.2,0.4c0.8,0,1.4,0.6,1.4,1.4
		l-0.5,64C76,87.4,75.4,88,74.6,88z"/>
	<g>
		
			<rect x="-5.3" y="54.1" transform="matrix(1.137541e-02 -0.9999 0.9999 1.137541e-02 -27.6619 80.4211)" class="st14" width="64.2" height="0.2"/>
	</g>
	<path class="st2" d="M75.5,22.5l-0.8-0.1c-0.1,0-0.1,0.2-0.1,0.3l-0.3,63.2c0.3,0.5,0.7,1,1,1.5c0.1-0.1,0.1-0.5,0-1.5l0.3-63.2
		C75.6,22.6,75.6,22.4,75.5,22.5z"/>
	<path class="st3" d="M74.3,86.1l-49.9-0.3l0.4,1.2l50.2,0.5c0.1,0,0.2,0,0.3,0h0l0,0c0.1,0,0.1,0,0.1-0.1c-0.3-0.5-0.7-1-1-1.5
		L74.3,86.1z"/>
</g>
<path class="st15" d="M69.8,12.3l-1.4,0.1l0-0.1c0,0-0.3-1.4-2.3-1.3c-2,0.1-48.8,2.4-48.8,2.4s-2,0.2-2.2,2.5c0,0.1,0,0.2,0,0.4
	l3,63.1c0,0.8,1.9,4.8,2.7,4.7l52.2-2.4c0.8,0,1.4-0.7,1.4-1.5l-3.2-66.5C71.3,12.9,70.6,12.3,69.8,12.3z"/>
<g>
	<path class="st2" d="M70.3,13.5L68.7,13c-0.1,0-0.1,0.2-0.1,0.3l3.1,64c0.4,0.5,1.7,3.2,2.1,3.7c0.1-0.2,0.1-0.5,0-1.5l-3.3-65.7
		C70.5,13.6,70.4,13.5,70.3,13.5z"/>
	<path class="st2" d="M71.6,77.3l-51.9,2.4l2.3,3.5l51.3-2.2c0.1,0,0.2,0,0.3,0l0,0l0,0c0.1,0,0.1,0,0.1-0.1
		c-0.4-0.5-1.8-3.4-2.2-3.9L71.6,77.3z"/>
</g>
<g>
	
		<rect x="21.2" y="13.5" transform="matrix(0.9991 -4.303614e-02 4.303614e-02 0.9991 -1.9683 0.9601)" class="st5" width="0.2" height="65.3"/>
</g>
<path class="st0" d="M81.1,6.8l-1.4-0.1l0-0.1c0,0-0.1-1.5-2.2-1.7c-2.1-0.2-51.9-3.6-51.9-3.6s-2.1-0.1-2.6,2.4
	c0,0.1-0.1,0.3-0.1,0.4l-5.1,67.1c-0.1,0.8,1.4,5.3,2.3,5.3l55.5,4c0.8,0.1,1.6-0.6,1.6-1.4l5.4-70.7C82.6,7.6,81.9,6.9,81.1,6.8z"
	/>
<g>
	<path class="st2" d="M81.4,8.2l-1.6-0.7c-0.1,0-0.1,0.2-0.1,0.3l-5.1,68.1c0.3,0.6,1.4,3.6,1.7,4.1c0.1-0.2,0.2-0.6,0.1-1.6
		l5.1-69.8C81.6,8.3,81.5,8.2,81.4,8.2z"/>
	<path class="st16" d="M74.5,75.8l-55.2-4l2,4L75.8,80c0.1,0,0.2,0,0.3,0l0,0l0,0c0.1,0,0.1,0,0.2-0.1c-0.3-0.6-1.5-3.8-1.8-4.4
		L74.5,75.8z"/>
</g>
<g>
	<polygon class="st17" points="22.6,71.3 22.5,71.3 28.1,1.9 28.3,1.9 	"/>
</g>
</svg>
