<?xml version="1.0" encoding="utf-8"?>
<!-- Generator: Adobe Illustrator 21.0.2, SVG Export Plug-In . SVG Version: 6.00 Build 0)  -->
<svg version="1.1" id="Layer_1" xmlns="http://www.w3.org/2000/svg" xmlns:xlink="http://www.w3.org/1999/xlink" x="0px" y="0px"
	 width="100px" height="100px" viewBox="0 0 100 100" style="enable-background:new 0 0 100 100;" xml:space="preserve">
<style type="text/css">
	.st0{fill:#DBE9F8;}
	.st1{fill:#FFEBB8;}
	.st2{fill:#FFA1BA;}
	.st3{fill:#F8F4F0;}
	.st4{fill:#F9F3ED;}
	.st5{fill:#FCECD9;}
	.st6{fill:#E4D6C5;}
	.st7{fill:#D84D4D;}
	.st8{fill:#C64646;}
	.st9{opacity:0.14;}
</style>
<path class="st0" d="M64.3,35.6C64.3,35.5,64.3,35.5,64.3,35.6c-0.4,1.1-0.7,2.3-1,3.5c-0.3,0-0.7,0-0.9,0.1
	c-3.3,0.8-6.2,2.7-9.6,3.5c0,0-0.1,0-0.1,0c-1.7,0.2-3.5,0.5-5.2,0.7c-0.1,0-0.2,0-0.3,0c-1,0.1-2.1,0.1-3.1,0.2
	c-0.9-0.3-1.7-0.7-2.6-1c-2-0.8-4-1.8-6-2.8c-2-1.1-3.8-2.6-6-3.5c-0.4-0.2-1.3-0.2-1.9,0.1c-0.2-0.3-0.3-0.5-0.5-0.8
	c-0.3-0.5-1.4-0.5-1.5,0.1c-0.2,1-0.4,2-0.3,2.9c0.1,1.1,0.6,2.2,0.9,3.3c0.7,2.4,1.5,4.8,2.4,7.1c1.6,4.5,3.2,8.9,4.9,13.3
	c1.6,4,3.3,8,5.3,11.8c1.1,2,2.2,4,3.4,5.9c1.3,2,2.5,4.2,4.9,5c0.1,0,0.2,0.1,0.3,0.1c-0.3,1.8-0.1,3.9,0,5.4c0,0-0.1,0-0.1,0
	c-2.9,0.5-5.8,1.1-8.8,1.3c-0.9,0.1-1.2,0.6-1,1.1c-0.5,0.3-0.8,0.8-0.1,1.3c1.4,0.9,3.1,1.1,4.7,0.9c1.2,1,3.9,1.3,5,1.4
	c2.2,0.2,4.5-0.1,6.6-0.8c0.4,0,0.7,0,1,0c2.8,0,5.9-0.7,8.2-2.4c1-0.7,1.1-1.7,0-2.4c-1.4-0.9-3-1.2-4.6-0.8c0,0-0.1,0-0.1,0
	c-1.8-0.7-3.8-1-5.7-0.9c0-1.2,0.1-2.6,0-3.9c0.3-0.1,0.5-0.4,0.7-0.6c1.6-0.1,2.9-1.3,3.9-2.6c0.6-0.2,1-0.6,1.1-1.1
	c0.1-0.3,0.1-0.5,0.2-0.8c0.6-0.9,1.1-1.8,1.7-2.6c0.7-1.1,1.8-2.5,1.8-3.9c0.5-0.9,0.9-1.8,1.3-2.8c0.8-2.2,1.5-4.4,2.1-6.6
	c1.2-4.5,2.1-9.1,2.8-13.7c0.8-4.8,1.7-9.7,2.2-14.5C70.9,33.6,65.4,33.4,64.3,35.6z"/>
<path class="st1" d="M66.1,40.7c-0.5,0.6-1.3,1-2.1,1.4c-0.3,0-0.6,0.1-0.9,0.2c-1.1,0.3-1.9,1-2.9,1.5c-1.7,0.9-3.6,1.1-5.5,1.6
	c-0.5,0-0.9,0.1-1.4,0.1c-1.8,0-3.6,0-5.5-0.1c-1.7-0.1-3.4-0.1-5.1-0.2c-1.5-0.1-3-0.2-4.4,0.2c-0.1,0-0.1,0-0.2,0
	c-2.1-0.5-4.4-2.1-6.6-1.8c-0.3-0.5-0.6-1.1-1-1.6c-0.2-0.3-1.3-0.5-1.2,0.1c0.1,1.8,0.5,3.6,1.1,5.3c-0.1,0.2-0.1,0.4,0.2,0.7
	c0,0,0,0,0.1,0.1c0.2,0.8,0.5,1.6,0.8,2.3c0,0.1,0,0.2,0.1,0.3c0.5,2.2,1.4,4.3,2.3,6.4c0.6,1.6,1.2,3.1,1.9,4.6
	c0.3,0.8,0.7,1.6,1,2.4c0.3,5.1,1.7,10.4,4.7,14.4c0.4,0.5,1.5,0.6,2.4,0.4c0,0,0,0.1,0.1,0.1c0.3,0.5,0.6,1,0.9,1.5
	c0.1,0.1,0.2,0.2,0.3,0.3c0.5,0.8,1.2,1.5,2.3,1.9c3.1,1.2,6.8,0.2,8.6-2.6c0.5-0.7,0.9-1.5,1.4-2.3c1.2-0.1,2.3-0.5,2.7-1.3
	c2.6-4.5,3.7-9.6,4.9-14.6c0.6-2.6,1.2-5.2,1.8-7.8c0.6-2.7,1.4-5.4,1.7-8.1c0-0.5-0.1-0.9-0.4-1.2c0.5-1.1,0.9-2.2,1.2-3.3
	C69.6,40,66.8,39.9,66.1,40.7z"/>
<path class="st2" d="M55.9,71.6c-0.1-1.1-2.1-0.9-2.6-0.2c-0.8,1.2-1.1,2.6-1.6,4c-0.4,1.3-1,2.4-1.7,3.6c-0.2,0.3,0.5,0.3,0.6,0.2
	C52.9,77.6,56.3,74.7,55.9,71.6z"/>
<path class="st2" d="M49,72.4c-0.2,1.5-0.5,3.2-1.1,4.7c-0.1,0.3,0.5,0.3,0.6,0.2c1-1.5,1.8-2.9,2.2-4.7C51,71.6,49.1,71.5,49,72.4z
	"/>
<path class="st2" d="M48.1,68.7c-0.6-0.8-2.3-0.6-2.8,0.2c-1,1.6,0.3,4.1,0,5.9c-0.1,0.6,1.3,0.6,1.5,0.1
	C47.6,73.1,49.5,70.7,48.1,68.7z"/>
<path class="st2" d="M44.6,74.2c-0.6-1.6-1.7-3-2.4-4.5c-0.7-1.4-1.3-3-2.2-4.3c-0.1-0.1-0.5-0.1-0.5,0c-0.8,3,1,7.3,3.1,9.3
	C43.1,75.1,45,75.2,44.6,74.2z"/>
<path class="st2" d="M38.4,58.1c0-0.2-0.6-0.3-0.6,0c-0.1,1.8-0.6,3.4-0.3,5.2c0.1,0.7,1.7,0.7,1.7,0C39.1,61.5,38.4,59.8,38.4,58.1
	z"/>
<path class="st2" d="M45.1,62c-0.3-0.8-0.6-1.7-1.2-2.3c-0.1-0.1-0.6-0.2-0.6,0.1c-0.3,0.7-0.2,1.6-0.2,2.4c0,0.9,0.2,1.7,0.4,2.5
	c0.2,0.7,2.3,0.7,2.2-0.2C45.7,63.6,45.4,62.8,45.1,62z"/>
<path class="st2" d="M49.3,61.2c-0.1-0.2-0.7-0.3-0.8,0c-0.8,1.8-0.4,4.1-0.4,6c0,0.9,2.2,0.9,2.1,0C50.1,65.3,50.2,62.9,49.3,61.2z
	"/>
<path class="st2" d="M52.2,62.8c-0.3,1.2-0.5,2.4-0.6,3.6c-0.1,1.1-0.4,2.5,0.2,3.5c0.1,0.2,0.5,0.2,0.7,0.1c0.8-0.9,1-2.2,1.3-3.4
	c0.3-1.2,0.5-2.4,0.6-3.6C54.3,62.2,52.3,62.1,52.2,62.8z"/>
<path class="st2" d="M57,63.2C56.6,64.1,56.2,65,56,66c-0.1,0.4-0.2,0.8-0.3,1.2c-0.1,0.3-0.1,0.5-0.2,0.8c-0.1,0.2-0.1,0.3-0.1,0.3
	c-0.4,0.2-0.8,0.6-0.6,1.1c0.8,1.6,3.5,1.1,4.2-0.3c0.9-1.7,1.5-3.8,1.6-5.7C60.7,62,57.4,62.1,57,63.2z"/>
<path class="st2" d="M60.2,52.5c-0.5,1.4-0.9,3.4-0.3,4.9c0.1,0.2,0.6,0.2,0.7,0.1c1-1.3,1.3-3.2,1.3-4.8C61.9,52,60.4,52,60.2,52.5
	z"/>
<path class="st2" d="M54.2,56.1c-0.3,1.4-0.5,3.2,0.2,4.6c0.2,0.4,1.2,0.5,1.4,0c0.5-1.4,0.4-3.1,0.6-4.6
	C56.6,55.3,54.4,55.2,54.2,56.1z"/>
<path class="st2" d="M51.3,53.2c0-0.5-1.1-0.5-1.3-0.1c-0.6,1.6-0.3,3.4,0,5c0,0.3,0.8,0.4,0.8,0C51,56.5,51.5,54.8,51.3,53.2z"/>
<path class="st2" d="M41,39.5c-1.1-0.7-2.2-1.3-3.5-1.7c-0.3-0.4-0.5-0.7-0.7-1c-0.5-0.6-1.1-1.2-1.8-1.6c-0.8-0.4-1.7-0.6-2.6-0.5
	c-1.2,0-2.6,0.7-3-0.8c-0.2-0.6-1.3-0.9-2.2-0.7c-0.3-0.3-0.6-0.6-0.8-0.9c-0.3-0.5-1.2-0.5-1.5,0c-0.6,1,0.5,1.8,1.3,2.3
	c0.3,0.9,1.1,1.5,2.1,1.8c0.3,0.1,0.6,0.1,0.9,0.2c0.7,0.4,1.3,0.7,2,0.8c0,0,0,0,0,0c0.1,0,0.1,0,0.2,0c0,0,0,0,0.1,0.1
	c0.6,0.5,1.2,1,1.8,1.5c0.3,0.2,0.6,0.5,0.8,0.7c0.2,0.1,0.3,0.3,0.5,0.4c0.2,0.1,0.3,0.2,0.5,0.2c0.1,0.1,0.1,0.1,0.1,0
	c0,0,0,0,0,0c0,0,0,0,0,0c0.3,0.3,1.5,0.5,2,0.1c0.1,0,0.2-0.1,0.3-0.2c1.1,0.5,2.1,0.6,3.3,0.3C41.4,40.4,41.6,39.8,41,39.5z"/>
<path class="st2" d="M55.2,40c-0.9-0.8-2.2-0.7-3.4-0.6c-0.6,0-1.2,0.1-1.7,0.1c-0.2,0-0.4,0-0.7,0c-0.6-0.2-1.3-0.1-1.7,0.3
	c-0.8,0-1.6,0-2.5,0c-0.7,0.1-0.8,0.7-0.2,1c1.1,0.5,2.4,0.7,3.6,1c1.3,0.3,2.5,0.6,3.9,0.4c0.5-0.1,0.9-0.3,1-0.7
	c0.6-0.1,1.2-0.3,1.6-0.7C55.5,40.7,55.5,40.3,55.2,40z"/>
<path class="st2" d="M66.7,30.3c-0.7,0.6-0.9,1.4-1.5,2.1c-0.6,0.7-1.4,1.2-2.1,1.8c-0.8,0.8-1.6,1.5-2.4,2.3
	c-0.1,0-0.2,0.1-0.3,0.1c-0.1,0.1-0.2,0.1-0.3,0.2c-0.3,0.2-0.7,0.4-1,0.6c-0.4,0.2-0.4,0.6-0.1,0.9c0.4,0.3,1,0.3,1.4,0.2
	c0.4-0.2,0.8-0.3,1.1-0.5c0.3,0,0.5-0.1,0.7-0.2c0.3-0.2,0.6-0.3,0.9-0.5c0.3-0.1,0.4-0.4,0.3-0.6c1.2-0.4,2.6-1.4,2.6-2.8
	c0-0.3-0.3-0.5-0.6-0.6c0.2-0.2,0.3-0.4,0.5-0.7c0.6-0.7,1.5-1.2,1.9-2C68.2,30.1,67,30.1,66.7,30.3z"/>
<path class="st2" d="M35.6,48.9c-0.1-0.3-1-0.3-1,0.1c0,1.6-0.2,3.4,0.3,5c0.2,0.7,2,0.6,2-0.2C36.8,52.1,36.1,50.5,35.6,48.9z"/>
<path class="st2" d="M43,54.2c-0.1-0.9-0.1-1.8-0.3-2.7c-0.1-0.5-1.5-0.5-1.7,0c-0.2,0.9-0.3,1.8-0.3,2.7c-0.1,0.9-0.2,1.9,0.1,2.8
	c0.2,0.7,2,0.7,2.2,0C43.2,56,43,55.1,43,54.2z"/>
<path class="st2" d="M46.1,54.2v1.5c0,0.4,1,0.4,1,0v-1.5C47.1,53.7,46.1,53.7,46.1,54.2z"/>
<path class="st2" d="M55,52.9c-0.3-1.1-0.6-2.1-0.5-3.2c0-1-2.3-1-2.3,0c-0.1,1.3,0.2,2.6,1.1,3.6C53.6,53.9,55.2,53.7,55,52.9z"/>
<path class="st2" d="M56.9,48.4c-0.4,1.3-0.9,2.6-1.2,4c-0.4,1.6,3.2,1.8,3.3,0.3c0.1-1.4,0.1-2.7,0.2-4.1
	C59.2,47.7,57.1,47.7,56.9,48.4z"/>
<path class="st3" d="M63.7,28.4c-0.5-1.2-1.5-2.3-2.2-3.4c-0.7-1-1.3-2.1-2.2-2.9C59.2,22,59.1,22,59,21.9c-1-1.2-2.7-1.8-4.3-1.9
	c-1.2-1.9-3.6-3.1-6.4-2.9c-2.3,0.2-3.9,1.3-4.9,2.9c-0.7-0.1-1.3-0.1-2,0c-1.6-1.5-3.9-2.3-6.3-1.8c-3.7,0.7-4.7,5-4.6,8.5
	c-1.7,1.1-3.6,3.2-2.2,4.8c0.1,0.6,0.3,1.1,0.8,1.7c2,2.5,5.6,2,8.4,1c0.3,4.2,5,6.6,9.3,5.7c1.9-0.4,3.3-1.4,4.2-2.7
	c0.2,0.2,0.5,0.4,0.8,0.5c2.6,1.5,6.4,1.7,8.4-0.8c0.8-1,1.2-2.3,1.6-3.6C63.5,32.4,64.5,30.5,63.7,28.4z"/>
<path class="st4" d="M60.3,25.2c-0.8-0.6-1.7-0.8-2.6-1.2c-1.1-0.5-1.6-1.4-2.2-2.4c-1.3-1.9-3.1-3.9-5.3-4.6
	c-0.1,0-0.5-0.1-0.5,0.1c-0.3,1.2,0.4,2.4,0.8,3.5c0.5,1.3,0.8,2.7,1.5,3.8c1.6,2.4,4.9,3.2,7.6,2.6C60.5,26.8,61.4,26,60.3,25.2z"
	/>
<path class="st5" d="M60.4,23.2c-0.9-0.6-1.8-0.8-2.8-1.2c-0.1-0.2-0.4-0.3-0.7-0.3c-1.1-0.7-1.9-2.2-2.9-3
	c-1.9-1.6-4.1-2.5-6.5-1.9c-0.6,0.2-0.4,0.7,0.1,0.7c2.8,0.1,4.1,2.5,5.5,4.5c0.3,0.4,0.6,0.7,1,1c-1.5,0.8-3.1,1.5-4.9,1.1
	c-2-0.4-3.7-1.8-5.8-1.7c-1.8,0.1-3.2,1.2-4.7,2c-2.7,1.4-4.7,0.3-7.3-0.7c-0.1,0-0.5,0-0.4,0.2c0.6,1.6,3.1,2.2,4.7,2.3
	c1,0,2.1-0.1,3.1-0.5c1.3-0.5,2.3-1.5,3.6-2c2-0.8,3.5,0.4,5.4,1c1.1,0.4,2.2,0.5,3.4,0.4c1.5-0.1,3.4-0.6,4.9-1.4
	c0.4,0.2,0.8,0.3,1.3,0.6c1.3,0.7,2.2,1.9,2.7,3.2c-2.2,1.1-3.6,3.2-6.5,2.4c-1.7-0.5-3.7-2.1-5.5-1.2c-1.1,0.5-1.9,1.3-3.1,1.6
	c-1.2,0.3-2.5,0.5-3.7,0.6c-3.6,0.4-6.7-0.3-8.8-3.5c0-0.1-0.3-0.1-0.2,0c2.4,5.4,9.2,5.7,14.2,4.1c0.5-0.2,1.1-0.4,1.6-0.7
	c0.8-0.6,1.2-1,2.3-0.7c1.4,0.4,2.6,1.2,4.1,1.3c1.1,0.1,2.2-0.1,3.2-0.5c1-0.5,1.8-1.3,2.7-2c0.2,1.7-0.6,3-1.2,4.4
	c-0.7,0.4-1.4,0.8-1.9,1.4c-0.2,0.3-0.5,0.6-0.7,0.9c-1,0.6-2,1.2-3.1,1.6c-0.3,0.1-0.6,0.4-0.7,0.7c-0.7-0.1-1.4-0.2-2.1-0.5
	c0,0-0.1,0-0.1,0.1c0.7,0.4,1.4,0.7,2.2,0.8c0,0.1,0.1,0.2,0.2,0.3c0.5,0.5,1.6,0.6,2.2,0.3c0.3-0.1,0.5-0.2,0.8-0.4
	c0.3-0.1,0.5-0.3,0.8-0.4c0,0,0.1,0,0.1,0c0.1,0,0.2-0.1,0.2-0.1c0.5,0.1,1.1-0.1,1.5-0.4c0.3-0.3,0.6-0.6,0.9-0.9
	c0.1,0,0.1-0.1,0.2-0.1c0.3-0.2,0.4-0.4,0.4-0.6c0.1-0.1,0.2-0.2,0.3-0.4c0,0,0-0.1,0.1-0.1c0.5,0,1-0.1,1.3-0.3
	C65.8,32.3,64.1,25.7,60.4,23.2z"/>
<path class="st5" d="M48.1,37.9c-1.9,1.2-3.5,1.8-5.6,0.4c-1.8-1.1-2.4-3.1-3.9-4.4c-1.2-1.1-2.6-0.9-4-0.5
	c-1.5,0.4-3.2,0.6-4.5-0.4c-1.5-1-1.5-2.7-1-4.3c0.1-0.3-0.4-0.3-0.5-0.1c-1.3,2.4-2.3,4.7,0.8,6c1.4,0.6,3,0.8,4.5,0.7
	c0.7-0.1,1.4-0.4,2-0.4c1,0,1.2,0.8,1.7,1.5c1.5,2.1,3.7,3.9,6.4,4.3c2,0.3,5.2-0.1,6.1-2.3C50.3,37.6,48.5,37.6,48.1,37.9z"/>
<path class="st6" d="M67.5,8.5c-0.2,0-0.4,0-0.5-0.1c-0.2-0.5-0.7-0.9-1.4-1.1c-1.1-0.4-2.1-0.1-3,0.6c-2-0.1-4.8,0.2-5.3,2.2
	c-0.3,1-0.1,2.4,0.1,3.7c0,0,0,0.1,0,0.1c-0.3,0-0.6,0.1-0.7,0.3c-0.2,0.9-0.3,1.7-0.3,2.5c-0.3,1.7-0.4,3.4-0.3,5.2
	c0,0.4,1,0.5,1.1,0.1c0.1-0.6,0.3-1.1,0.4-1.7c0.1,0,0.2,0,0.2-0.1c0,0.3,0,0.5,0,0.8c0,0.3,0.4,0.5,0.8,0.5c0,0.2,0,0.4,0.1,0.6
	c0,0.1,0.2,0.1,0.2,0c0.1-0.2,0.1-0.5,0.1-0.7c0.2-0.1,0.3-0.2,0.3-0.4c0-0.5,0-1.1,0-1.6c0-0.4,0.1-0.7,0.1-1.1
	c0.1-1,0.3-2.1,0.2-3.1c0.1-0.5,0.2-1,0.4-1.5c0.1-0.4-0.6-0.5-0.9-0.4c0-0.1,0-0.2,0-0.3c0.2-0.1,0.4-0.2,0.5-0.4
	c0.5-0.9,1.1-1.7,1.8-2.3c0.3-0.1,0.5-0.3,0.8-0.4c0.4,0,0.7-0.1,0.9-0.2c0.3,0.1,0.8,0.2,0.9,0.2c0.2-0.1,0.5-0.1,0.7-0.1
	c0,0.1,0.1,0.2,0.1,0.2c0.2,0.6,1.6,0.6,2,0.2c0.1-0.1,0.2-0.3,0.3-0.5C68,9.8,68.9,8.7,67.5,8.5z"/>
<path class="st7" d="M47.3,7.5c-0.1-0.2-0.4-0.3-0.6-0.4c-1.1-0.1-2.2,0.1-3.1,0.6c-0.3,0-0.7,0.1-1,0.2c-1.5-0.2-3.2,0.2-4.3,1.2
	c-0.5,0.1-1,0.2-1.3,0.4c-0.2,0-0.4,0-0.5,0.2c-0.3,0.4-0.6,0.8-0.7,1.3c0,0,0,0,0,0c-0.4,0.4-0.5,0.7-0.4,1.3
	c0.1,0.3,0.4,0.4,0.7,0.3c0,0.5-0.1,1,0,1.4c0.2,0.7,0.9,1,1.5,1c0.2,0,0.4,0,0.6,0c0.1,0.1,0.3,0.2,0.4,0.3c0.4,0.9,1,1.6,1.7,2.1
	c0.6,0.6,1.3,0.9,2.2,0.9c0.2,0,0.3,0,0.5,0c0.9,0.1,1.7-0.4,2.4-1.5c0.3,0,0.6-0.1,0.7-0.2c0.1-0.2,0.3-0.3,0.4-0.5
	c0.2-0.1,0.4-0.3,0.4-0.5c0-0.1,0-0.2,0-0.3c0.1-0.3,0.2-0.6,0.3-0.9c0.3-0.8,0.4-1.5,0.5-2.2C48.1,10.6,47.8,8.9,47.3,7.5z"/>
<path class="st8" d="M46.3,8.5c0-0.2-0.2-0.4-0.4-0.5c-0.4-0.6-1-1.1-1.7-1.5c-0.7-0.5-2.7,0.2-1.6,1c0.2,0.2,0.5,0.3,0.7,0.5
	c-0.3,0.1-0.5,0.4,0,0.6C43.6,8.7,43.8,8.8,44,9c-0.5,2.5-0.8,5-1.1,7.5c0,0.3,0.2,0.5,0.4,0.6c0.4,0.4,1.5,0.3,1.7-0.2
	c0-0.1,0.1-0.1,0.1-0.2c0.4-0.3,0.7-0.7,1-1.1c0.2-0.1,0.3-0.2,0.4-0.4c0-0.1,0.1-0.3,0.1-0.4C47.7,12.7,47.5,10.4,46.3,8.5z"/>
<path class="st7" d="M43.6,16.4c-0.1-0.2-0.3-0.3-0.5-0.3c0.2-2.7,0.1-5.4-0.2-8c-0.1-0.7-1.7-0.8-1.9-0.2c-0.5,2.2-0.8,4.5-0.7,6.8
	c0,0.3,0,0.5,0.1,0.8c-0.3-0.3-0.6-0.7-0.8-1.1c-0.1-0.2-0.2-0.5-0.3-0.8c0.5-0.7,0.6-1.7,0.6-2.5c0-0.3-0.4-0.5-0.6-0.5
	c0.1-0.4,0.2-0.8,0.1-1.2c0-0.1-0.1-0.2-0.2-0.3c0.2-0.2,0.5-0.4,0.8-0.5c0.8-0.3-0.1-0.8-0.6-0.6c-0.7,0.2-1.2,0.6-1.6,1.1
	c-1.4,0.7-1.8,3.5-1,4.6c0.2,0.2,0.4,0.4,0.6,0.4c0.5,1.5,1.7,2.6,3.2,3.3c0.2,0.7,0.6,1.4,1.3,1.9c0.4,0.4,1.6,0.5,1.7-0.3
	C43.9,18,44,17.3,43.6,16.4z"/>
<path class="st8" d="M45.7,15.4c0.1,0,0.1,0-0.1,0c0,0,0,0,0,0c-0.1,0-0.2,0.1-0.3,0.1c0,0,0,0,0,0c0,0,0,0,0,0
	c-0.1,0.1-0.2,0.1-0.3,0.2c-0.1,0-0.2,0.1-0.3,0.1c-0.4,0.2-0.8,0.5-1.2,0.8c-0.3,0.2,0.1,0.4,0.4,0.4c0.1,0,0.3,0,0.4-0.1
	c0,0.1,0,0.2,0,0.2c-0.1,0.3,0.5,0.4,0.6,0.4c0.3,0,0.7,0,0.8-0.3c0.2-0.5,0.5-0.9,0.7-1.4C46.5,15.5,46.1,15.4,45.7,15.4z"/>
<path class="st9" d="M67,29.7c-1.4-2.2-3-4.6-5.2-6c-1.3-0.8-2.8-1.3-4-2.4c-1.1-0.9-2.1-1.9-3.3-2.8c-1.7-1.2-4.7-2.5-6.7-1.3
	c-0.1,0.1-0.1,0.2,0,0.2c2.8,0.9,4,4.2,6.1,6.1c1.1,0.9,2.3,1.5,3.5,2.2c1.5,0.9,2.4,2.2,3.4,3.6c1.9,2.8,3,5.6,2.2,9.1
	c-0.8,3.4-1.7,6.7-2.3,10.2c-1,6.5-1.2,13.3-3.2,19.6c-0.8,2.6-1.9,5.2-3.4,7.6c-1.6,2.5-3.7,4.2-5.9,6c-1.3,1,0,2.5,1,3
	c0.2,0.1,0.4,0.2,0.6,0.2c-0.4,1.1-0.3,2.4-0.2,3.6c0.1,1.3,0.2,2.7,1.4,3.5c1.3,0.9,3.1,0.8,4.6,0.9c1,0,2,0,3,0.1
	c0.2,0,0.9,0.2,1.2,0.2c0,0.2,0.2,0.5,0.2,0.6c0.6,1.2,2.4,1.2,3.5,0.9c0.1,0,0.3-0.1,0.4-0.1c0.7-0.2,1.3-0.7,1.4-1.4
	c0.3-3.6-6.5-3.2-8.6-3.1c-0.5,0-2.4,0.4-2.7,0.1c-0.4-0.3-0.4-1.6-0.5-2c-0.2-1.1-0.4-2.2-0.8-3.2c0.5-0.1,1.1-0.3,1.5-0.5
	c4.5-2.4,7.6-7.2,9.4-11.8c2.1-5.2,2.8-10.7,3.3-16.2c0.3-3.2,0.5-6.3,0.9-9.5c0.4-3.2,1.4-6.4,1.6-9.6C69.6,34.6,68.5,32.1,67,29.7
	z"/>
<path d="M38.3,11.2c-0.1,0-0.2,0-0.3,0c-0.1,0-0.1,0.2,0,0.2c0.1,0,0.2,0,0.3,0C38.4,11.4,38.4,11.2,38.3,11.2z"/>
<path d="M42.2,10c-0.1,0-0.2,0-0.3,0c0,0-0.1,0-0.1,0c-0.1,0-0.1,0.1-0.1,0.1c-0.1,0-0.1,0.1,0,0.1c0,0,0.1,0.1,0.1,0.1
	c0,0,0.1,0,0.1,0c0.1,0,0.2,0,0.3,0c0.1,0,0.2-0.1,0.2-0.2C42.4,10.1,42.3,10,42.2,10z"/>
<path d="M40.6,14.7c-0.1,0-0.2,0-0.3,0c-0.4,0-0.4,0.6,0,0.6c0.1,0,0.2,0,0.3,0C41,15.3,41,14.7,40.6,14.7z"/>
<path d="M42.3,11.7c-0.1,0-0.2,0-0.3,0.1c0,0,0,0-0.1,0c-0.1,0-0.1,0.1,0,0.1c0,0,0,0,0.1,0c0.1,0.1,0.1,0.2,0.2,0.2
	c0.1,0,0.2-0.1,0.2-0.2C42.5,11.8,42.4,11.7,42.3,11.7z"/>
<path d="M46.3,9.8c-0.1-0.3-0.5-0.3-0.7,0c-0.1,0.1-0.1,0.2-0.1,0.4c0.1,0.5,0.8,0.5,0.8,0C46.4,10.1,46.3,9.9,46.3,9.8z"/>
<path d="M43.1,15.4c0,0.1,0,0.1-0.1,0.2c0-0.1,0,0,0,0.1c0,0.1,0,0.1,0,0.2c0,0,0,0,0,0c0.1,0,0.1,0,0.2,0c0,0,0.1,0,0.1,0
	c0.1,0,0.1,0,0.2-0.1C43.9,15.6,43.4,15,43.1,15.4z"/>
<path d="M45.2,12.3C45.2,12.2,45.2,12.2,45.2,12.3c-0.2-0.1-0.3-0.1-0.4,0c0,0-0.1,0-0.1,0c-0.2,0.1-0.2,0.3,0,0.3c0,0,0.1,0,0.1,0
	c0.1,0.1,0.2,0.1,0.3,0c0,0,0,0,0,0C45.4,12.6,45.4,12.3,45.2,12.3z"/>
<path d="M38,13c-0.4,0-0.4,0.7,0,0.7C38.5,13.7,38.5,13,38,13z"/>
<path d="M70.3,33.5c-0.2-0.8-0.6-1.6-1.1-2.3c0-0.2,0.1-0.4,0.1-0.5c0-0.5-0.6-0.7-0.9-0.4c-1.1-1.2-2.6-2.1-4.2-2.7
	C64,27,64,26.5,63.9,25.7c0-0.4-0.1-0.8-0.3-1.2c-0.7-1.1-2.1-1.9-3.2-2.5c-0.1,0-0.1-0.1-0.2-0.1c0-0.1,0-0.2,0.1-0.2
	c0.1-0.1,0.2-0.2,0.2-0.3c0.2-2.4,0.1-4.9,0-7.3c0-3.4,4.3-2.9,6.6-2.5c0,0,0,0,0.1,0c0.1,0.2,0.5,0.3,0.7,0
	c0.6-1.3,0.7-2.6,0.4-4.1c0-0.1-0.2-0.3-0.3-0.2c-2.2,0.2-4.3-0.1-6.5,0.2c-1.3,0.1-2.8,0.2-3.6,1.3c-0.9,1.1-0.8,2.8-0.8,4.1
	c-0.1,1.4-0.1,2.8-0.1,4.1c0,0-0.1,0-0.1,0.1c-0.4,0.6-0.2,1.4-0.2,2.1c0,0.6,0.1,1.1,0.2,1.7c0,0-0.1,0-0.1,0
	c-1.5-0.5-1.7-2-2.8-2.9c-1.5-1.2-4-1.9-6-1.4c0.1-0.2,0.1-0.4,0.2-0.6c0.9-3.3,2.6-8.1-2.1-9.2c-0.5-0.1-1.1-0.2-1.8-0.3
	c0.4-0.8,0.1-1.8-0.2-2.7c-0.1-0.3-0.6-0.5-0.8-0.2c-0.4,0.4-0.6,0.8-0.8,1.3c-0.2-0.3-0.5-0.6-0.9-0.9c-0.1-0.1-0.4-0.1-0.5,0.1
	c-0.5,0.6-0.9,1.3-1.2,2c-0.7-0.8-1.3-1.5-2-2.3c-0.2-0.2-0.5-0.1-0.6,0.2c-0.3,1.4-0.1,2.7,0.9,3.8c-1,0.6-1.8,1.3-2.2,2.4
	c-0.9,2.5,0.1,5.1,1.9,7.1c-1.3,0-2,1.2-2.9,2.1c-0.9,0.9-3.3,1.7-2.9,3.5c0.1,0.4,0.4,0.7,0.8,0.8c-1.8,1.5-4.1,3.2-5,5.2
	c-0.7,0.4-1.3,0.9-1.9,1.4c-1.5,1.4-2.2,3.5-1.9,5.3c-0.2-0.5-0.4-0.9-0.6-1.3c0,0-0.1,0-0.1,0c0.3,2.1,1.1,4.2,1.7,6.2
	c0.7,2.1,1.3,4.3,2,6.4c0.7,2.1,1.3,4.3,2,6.4c0.6,2,1.1,4.3,2.1,6.1c0,0,0.1,0.1,0.1,0.1c0.6,1.9,1.2,3.8,1.9,5.7
	c2.6,7.8,5.8,18.7,15.7,19.4c0,0,0,0,0,0c0.2,1.1-0.1,3-0.1,3.7c0,0.9-0.1,1.8,0,2.7c-2.4-0.3-4.9-0.3-7.3,0
	c-1.6,0.2-4.2,0.3-5.4,1.6c-2.6,3.1,5,4.3,6.4,4.5c4.9,0.9,9.9,0.8,14.8,0c2.7-0.4,9.2-1.1,8.3-5.3c-0.2-0.9-0.5-1-1.4-1.2
	c-1.2-0.4-2.4-0.6-3.7-0.8c-2-0.3-4-0.2-6,0.2c0-0.7,0-1.5,0-2.2c0-1.1,0.1-2.3-0.1-3.4c0,0,0.1,0.1,0.2,0.1
	c3.6-0.7,6.1-3.6,7.8-6.8c2.2-4.1,3.4-8.8,4.6-13.3c2.3-8.7,3.4-17.7,3.5-26.6C70.6,36.3,70.7,34.9,70.3,33.5z M67.5,10.1
	c-0.1-0.6-0.2-1.1-0.2-1.7C67.7,8.9,67.6,9.5,67.5,10.1z M57.6,20c-0.1-1.8-0.1-3.7,0-5.5c0-1.9-0.4-5.1,1.7-6
	c1.5-0.6,3.4-0.6,5-0.7c0.9-0.1,1.8-0.2,2.6,0.2c-0.2,1.1-0.1,2.2,0.2,3.4c-1.8-1-5.5-1.3-7,0.4c-0.8,0.9-0.5,2.5-0.5,3.6
	c0,2-0.1,4,0.1,6c0,0.1,0,0.2,0.1,0.2c0,0,0,0.1,0,0.1c-0.8-0.3-1.5-0.5-2.3-0.8c0-0.2,0-0.4,0-0.7C57.5,20.3,57.6,20.1,57.6,20z
	 M42.7,6.2c0.1-0.4,0.2-0.7,0.3-1.1c0,0.4,0,0.8,0.2,1.2C43,6.3,42.9,6.3,42.7,6.2C42.7,6.2,42.7,6.2,42.7,6.2z M41.1,4.8
	c0.4,0.4,0.6,0.8,0.7,1.4c0,0.1,0,0.1,0.1,0.1c-0.6,0.1-1.2,0.1-1.9,0.3C40.3,6,40.7,5.4,41.1,4.8z M37.4,4.6
	c0.6,0.7,1.2,1.5,1.8,2.2C38.8,7,38.4,7.2,38,7.4C37.5,6.5,37.3,5.6,37.4,4.6z M36.7,12.9c-0.5-1.8-0.1-3.3,1.6-4.3
	c1.3-0.8,3-1.2,4.6-1.2c1.5-0.1,3.8,0,4.8,1.5c0.8,1.3,0.2,3.1-0.1,4.5c-0.3,1.1-0.4,2.5-1,3.5c0,0,0,0,0,0c0,0,0,0,0,0.1
	c-0.2,0.4-0.6,0.7-1,0.9c-0.4,0.2-1,0.2-1.5,0.5c-0.5,0.2-0.9,0.6-1.4,0.8c-0.3,0.1-0.5,0.2-0.8,0.1c0.2-0.3,0.2-0.7-0.2-0.8
	C39.3,17.4,37.4,15.5,36.7,12.9z M27,30.6c0,0.5,0.1,1.1,0.4,1.7c0,0,0.1,0,0.1,0c-0.2-0.7-0.2-1.3-0.1-1.9c0.3-0.3,0.7-0.5,1-0.7
	c0,0,0.1,0,0.1-0.1c0.1-0.7,0.3-1.3,0.7-1.9c-0.3,0.1-0.5,0.3-0.8,0.4c1.4-1.9,3.8-3.4,5.4-5c0.1,0,0.1-0.1,0.1-0.1
	c0.2-0.3-0.1-0.7-0.4-0.4c0,0,0,0,0,0c0.2-0.6-1.7,0.2-0.5-1.2c0.4-0.5,0.5-0.5,0.9-0.8c0.3-0.2,0.6-0.4,0.9-0.6
	c0.9-0.8,1.4-2,2.6-2.2c1.7-0.3,2.6,1.8,4.2,2.3c0.4,0.1,0.8,0.2,1.3,0c0.9-0.3,1.6-1,2.6-1.3c1.2-0.4,1.8-0.9,2.2-1.8
	c2.4,0,5.2,0,6.6,2.4c0.4,0.7,0.5,1.2,1.2,1.6c0.5,0.4,1.2,0.5,1.8,0.7c0.1,0.1,0.2,0.1,0.3,0.1c0.1,0,0.3,0.1,0.4,0.1
	c0.7,0.2,1.4,0.5,2,0.8c0,0,0,0,0,0.1c0,0.1,0.1,0.1,0.1,0c0,0,0,0,0,0c0.4,0.2,0.8,0.5,1.2,0.7c0.7,0.5,1.4,0.9,1.7,1.7
	c0.2,0.4,0.1,0.8,0.1,1.3c0.6,1.1,1.3,2.4,1.5,3.6c0.3,0.5,0.4,1,0.4,1.6c-0.4-0.1-0.8,0.3-0.6,0.8c0.1,0.1,0.1,0.2,0.1,0.3
	c0,0.1,0,0.2,0,0.3c-0.2,1.3-3.5,1.6-4.3,2.3c-0.5,0.4-0.8,1-1.1,1.6c-0.5,1.1-1.3,1.8-2.5,2c-1.9,0.3-3.7-0.5-5.6-0.6
	c-2.1-0.1-3.5,1-5.4,1.7c-1.8,0.6-3.7,0.4-5.3-0.5c-1.7-1-2.1-2.5-3.2-4c-0.8-1-1.7-1.1-2.9-0.9c-1.1,0.2-2.2,0.5-3.4,0.2
	c-1.6-0.4-3-1.8-2.9-3.5c0-0.1-0.1-0.1-0.1,0c-0.1,1.7,0.7,3.2,2.3,3.9c0.8,0.4,1.8,0.5,2.7,0.5c0.5,0,1.1-0.2,1.6-0.3
	c1.6-0.1,1.7,0.2,2.3,1.2c0.9,1.7,1.8,3.1,3.6,4c1.6,0.8,3.6,1,5.3,0.4c1.2-0.4,2.3-1.2,3.5-1.5c1.6-0.4,3.2,0.1,4.8,0.4
	c1.6,0.3,3.6,0.3,5-0.8c0.8-0.6,0.9-1.4,1.4-2.3c0.8-1.3,2-1.1,3.2-1.6c0.9-0.4,1.7-1.1,1.9-2c1.2-1.1,0.7-2.7-0.1-4
	c1,0.5,1.9,1.2,2.6,2c-0.7,1.4-1.2,2.7-2.3,3.9c-1.2,1.4-2.7,2.6-4.4,3.5c-3.8,2.2-8.3,2.8-12.6,3c-4.3,0.2-9,0.4-13.1-1.2
	c-2.1-0.8-3.9-2-5.7-3.3c-1.7-1.3-3.8-2.8-4.1-5C26,31.6,26.5,31.1,27,30.6z M25.3,40.1c-0.3-0.9-0.6-1.8-0.9-2.7
	c0.2,0.3,0.3,0.5,0.5,0.8c0.2,0.9,0.4,1.8,0.6,2.8C25.4,40.6,25.4,40.3,25.3,40.1z M65.9,62.1c-1.1,4.4-2.3,9-4.1,13.1
	c-1.6,3.6-3.9,7.1-7.7,8.6C54,83.9,54,84,54,84c0-0.2,0-0.3-0.1-0.5c0-0.1-0.1-0.1-0.1,0c-0.4,1.3-0.4,2.8-0.5,4.1
	c-0.1,0.8-0.2,1.7-0.2,2.5c-0.1,0-0.3,0.1-0.4,0.1c-0.3,0.1-0.2,0.6,0.1,0.5c0.1,0,0.2,0,0.3,0c0,0.4,0,0.7,0.1,1.1
	c0.1,0.4,0.7,0.4,0.8,0c0.1-0.4,0.2-0.8,0.2-1.2c1.7-0.2,3.4-0.3,5.1-0.2c1.1,0.1,2.2,0.3,3.3,0.6c0.4,0.1,1.1,0.2,1.4,0.4
	c0.7,0.6,0.2,1.8-0.3,2.3c-1.4,1.5-4.1,1.7-6,2c-2.3,0.4-4.6,0.7-7,0.8c-2.1,0.1-4.3,0-6.4-0.3c-2.1-0.3-4.7-0.5-6.6-1.5
	c-0.7-0.3-0.9-0.4-0.7-1.3c0.2-0.9,0.7-0.9,1.5-1.1c1-0.3,2-0.5,3-0.7c2.4-0.4,4.8-0.5,7.2-0.6c0,0.2,0,0.5,0.1,0.7
	c0,0.2,0.4,0.2,0.5,0c0.3-1.5,0.1-3.1,0.1-4.7c0-0.9,0.2-2.1-0.1-3c0.3-0.3,0.1-1.1-0.5-1.1C38.4,82.4,35.6,69.6,32.9,62
	c-1.6-4.6-3.2-9.3-4.6-14c-0.9-3-1.6-6-2.4-9c0.3,0.1,0.6,0,0.7-0.3c0.3,0.4,0.6,0.8,0.9,1.1c2,7.7,4.9,15.3,7.4,22.9
	c1.9,5.7,3.3,12.7,7.8,17c3.9,3.7,10.1,4,14.3,0.7c2.4-1.9,3.7-4.7,4.6-7.5c1.2-3.6,2.2-7.3,3.2-10.9c2-7.2,3.7-14.7,3.8-22.2
	c0.1-0.1,0.2-0.3,0.3-0.4C68.7,47.1,67.7,54.7,65.9,62.1z M27.9,40.3c3.8,3.9,9.8,5.2,15.3,5.4c4.4,0.2,8.9,0,13.3-0.7
	c3.8-0.6,7.8-1.6,10.9-3.9c0.2-0.1,0.4-0.3,0.6-0.5c-0.5,5.7-1.5,11.3-2.9,16.9c-0.9,3.4-1.8,6.8-2.9,10.1c-0.9,3.1-1.7,6.4-3.4,9.2
	c-3.3,5.4-10.9,6.4-15.6,2.1c-4.5-4.2-5.9-11.4-7.8-17C32.9,54.8,30.7,47.3,27.9,40.3z M69.1,36.9c-0.1,0.3-0.3,0.6-0.4,0.9
	c0-0.5,0-1-0.1-1.5c0-0.3-0.5-0.3-0.5,0c0,0.8-0.1,1.6-0.1,2.4c-0.5,0.7-1.2,1.3-2,1.8c-2.7,1.8-6.1,2.6-9.3,3.2
	c-3.6,0.7-7.3,0.9-11,0.9c-7.4,0.1-16.9-0.9-20.2-8.8c-0.1-0.2-0.4-0.2-0.4,0c-0.3-1.1-0.2-2.2,0.2-3.3c0.2,1.2,0.9,2.3,1.8,3.3
	c1.7,1.8,3.7,3.3,5.8,4.5c4.5,2.5,9.7,2.6,14.7,2.4c4.8-0.1,9.9-0.7,14.2-3.2c2.6-1.5,5.7-4.1,6.9-7.1c0.1,0.2,0.2,0.4,0.3,0.6
	C69.1,34.5,69.1,35.7,69.1,36.9z"/>
</svg>
