<?xml version="1.0" encoding="utf-8"?>
<!-- Generator: Adobe Illustrator 21.0.2, SVG Export Plug-In . SVG Version: 6.00 Build 0)  -->
<svg version="1.1" id="Layer_1" xmlns="http://www.w3.org/2000/svg" xmlns:xlink="http://www.w3.org/1999/xlink" x="0px" y="0px"
	 width="100px" height="100px" viewBox="0 0 100 100" style="enable-background:new 0 0 100 100;" xml:space="preserve">
<style type="text/css">
	.st0{fill:url(#SVGID_1_);}
	.st1{fill:url(#XMLID_2_);}
	.st2{fill:url(#XMLID_3_);}
	.st3{fill:#680D0D;}
</style>
<g id="Layer_1_1_">
	
		<radialGradient id="SVGID_1_" cx="61.7215" cy="70.0127" r="66.6466" fx="127.1598" fy="57.3799" gradientTransform="matrix(1 0 0 -1 0 102)" gradientUnits="userSpaceOnUse">
		<stop  offset="4.854370e-03" style="stop-color:#FBF5A9"/>
		<stop  offset="7.887553e-02" style="stop-color:#FBF49C"/>
		<stop  offset="0.1748" style="stop-color:#FCF38F"/>
		<stop  offset="0.2665" style="stop-color:#FEF385"/>
		<stop  offset="0.4075" style="stop-color:#FAE26E"/>
		<stop  offset="0.58" style="stop-color:#F6C94B"/>
		<stop  offset="0.7759" style="stop-color:#EDA520"/>
		<stop  offset="0.8398" style="stop-color:#EB9822"/>
		<stop  offset="0.9291" style="stop-color:#F18F20"/>
		<stop  offset="1" style="stop-color:#F5831F"/>
	</radialGradient>
	<circle class="st0" cx="50.4" cy="50.1" r="49.1"/>
	<g>
	</g>
	<g>
	</g>
	
		<radialGradient id="XMLID_2_" cx="88.3485" cy="14.7253" r="39.9438" gradientTransform="matrix(0.999 -4.370000e-02 4.370000e-02 0.999 0.3969 9.0885)" gradientUnits="userSpaceOnUse">
		<stop  offset="4.854370e-03" style="stop-color:#EE2E2C"/>
		<stop  offset="0.2205" style="stop-color:#EE2D29"/>
		<stop  offset="0.4096" style="stop-color:#EE2524"/>
		<stop  offset="0.5887" style="stop-color:#DE1F26"/>
		<stop  offset="0.7616" style="stop-color:#C62127"/>
		<stop  offset="0.9286" style="stop-color:#A41E22"/>
		<stop  offset="1" style="stop-color:#951B1E"/>
	</radialGradient>
	<path id="XMLID_43_" class="st1" d="M62.6,17.3c5.8-1.8,11,0.9,13.9,5.8c3.9-4.2,9.4-6,14.8-3.1c6.8,3.6,7.5,11.1,4,17.8
		c-2.6,4.9-12.9,13.5-18.5,18c-2,1.6-4.9,1.3-6.5-0.6c-4.6-5.4-13.2-15.8-14.8-21.1C53.2,26.8,55.3,19.6,62.6,17.3z"/>
	<radialGradient id="XMLID_3_" cx="41.2515" cy="19.2297" r="38.2956" gradientUnits="userSpaceOnUse">
		<stop  offset="4.854370e-03" style="stop-color:#EE2E2C"/>
		<stop  offset="0.2205" style="stop-color:#EE2D29"/>
		<stop  offset="0.4096" style="stop-color:#EE2524"/>
		<stop  offset="0.5887" style="stop-color:#DE1F26"/>
		<stop  offset="0.7616" style="stop-color:#C62127"/>
		<stop  offset="0.9286" style="stop-color:#A41E22"/>
		<stop  offset="1" style="stop-color:#951B1E"/>
	</radialGradient>
	<path id="XMLID_51_" class="st2" d="M38.1,17.3c-5.8-1.8-11,0.9-13.9,5.8c-3.9-4.2-9.4-6-14.8-3.1c-6.8,3.6-7.5,11.1-4,17.8
		c2.6,4.9,12.9,13.5,18.5,18c2,1.6,4.9,1.3,6.5-0.6c4.6-5.4,13.2-15.8,14.8-21.1C47.6,26.8,45.4,19.6,38.1,17.3z"/>
	<g>
		<path class="st3" d="M33.7,68.6c2.9,1.7,5.5,3.1,8.1,3.9c1.3,0.4,2.5,0.8,3.8,0.9l0.5,0.1l0.5,0.1c0.3,0,0.6,0.1,0.9,0.1
			c0.3,0,0.6,0,1,0.1l0.5,0.1h0.5c2.5,0,5-0.4,7.6-1.2c2.6-0.8,5.1-2,8-3.9c-0.4,3.4-2.5,6.5-5.3,8.7s-6.5,3.4-10.2,3.4
			c-0.9,0.1-1.8-0.1-2.7-0.2c-0.4-0.1-0.9-0.2-1.3-0.3l-0.7-0.2L44,79.9c-1.8-0.5-3.4-1.4-4.8-2.6c-1.4-1.1-2.6-2.4-3.5-3.9
			c-0.4-0.8-0.9-1.5-1.2-2.3C34.1,70.3,33.8,69.5,33.7,68.6z"/>
	</g>
</g>
<g id="Layer_2">
</g>
</svg>
