<?xml version="1.0" encoding="utf-8"?>
<!-- Generator: Adobe Illustrator 21.0.2, SVG Export Plug-In . SVG Version: 6.00 Build 0)  -->
<svg version="1.1" id="Layer_1" xmlns="http://www.w3.org/2000/svg" xmlns:xlink="http://www.w3.org/1999/xlink" x="0px" y="0px"
	 width="100px" height="100px" viewBox="0 0 100 100" style="enable-background:new 0 0 100 100;" xml:space="preserve">
<style type="text/css">
	.st0{fill:#CD794F;}
	.st1{fill:#F9F7EA;}
	.st2{fill:#6BC1BF;}
</style>
<path class="st0" d="M66.6,12.5c0-0.1,0-0.2-0.1-0.3c-0.1-0.2-0.2-0.4-0.2-0.7c-0.1-0.7-0.1-1.5-0.1-2.2c0-0.7,0-1.4,0.1-2.1
	c0-0.2,0.1-0.4,0.1-0.6c-1.4-1.5-3.6-1.7-5.5-1.4c-1.8,0.3-3.5,1.1-5.2,1.6c-1.5,0.5-3,0.8-4.6,1.1c-0.2,0-0.3,0-0.5,0.1
	c-0.3-0.1-0.6-0.2-0.9-0.3c-2.3-0.7-4.9-0.2-7.3,0c-0.8,0.1-1.7,0.1-2.6,0.1c-1.1-0.3-2.2-0.8-3.2-1.4c-0.2-0.1-0.7,0.1-0.4,0.3
	c0.5,0.4,1,0.8,1.5,1.2c-0.5,0.1-1,0.1-1.5,0.3c-0.4,0.1-0.8,0.4-1,0.8c-0.3,0.3-0.6,0.6-0.8,1c0.2,0.2,0.4,0.4,0.5,0.8
	c0.2,1.1,0.3,2.2,0.2,3.3c0,0.2-0.1,0.4-0.1,0.5c0.2,0.1,0.4,0.2,0.6,0.2c0.7,1.1,2,2,3.3,2.2c5.3,0.8,10.8,1.2,16.1,0.8
	c2.5-0.2,5.4-0.3,7.4-1.9c0.5-0.4,1-0.9,1.3-1.4c0.2-0.1,0.5-0.1,0.7-0.2c0.8-0.2,1.5-0.5,2.2-0.9c0.1,0,0.1-0.1,0.1-0.1
	C66.8,13,66.6,12.8,66.6,12.5z"/>
<path class="st1" d="M71.3,26.3c-2.8-2.2-6.9-2.7-10.3-3.4c-7.4-1.5-15.4-2.5-23-1.9c-3.5,0.3-7.1,1.2-9.6,3.8
	c-0.4,1.6-0.7,3.1-1.1,4.7c-0.2,1-0.4,1.9-0.7,2.9c0,0.1-0.1,0.1-0.1,0.2c0.4,1.2,1.1,2.3,2.2,3.3c1.4,1.3,3,2.1,4.8,2.6
	c1.6,1.5,3.8,2.2,5.8,2.7c1.1,0.3,2.3,0.5,3.4,0.7c4.5,2.4,9.9,3.4,14.8,2.9c6-0.6,12.2-3.1,15.2-8.7C74.5,32.6,74.5,28.8,71.3,26.3
	z"/>
<path class="st1" d="M74.9,77.9c0-1-0.5-1.9-1.1-2.7c0.1-1.3,0.2-2.7,0.2-4c0-2.3-2.4-3.9-4.4-4.3c-2.3-0.5-5.1,0.2-6.6,2.2
	c-1.5,1.9-3.2,3.3-5.2,4.1c-2.7-0.3-5.3-0.8-8.1-1.5c-6.3-1.7-12.8-5.7-19.8-5c-2.2,0.2-4.5,0.9-5.6,3c-0.9,1.8-0.3,3.9,1.4,5.1
	c0.4,0.3,0.8,0.6,1.2,0.8c-0.5,2.1-0.9,4.3-0.8,6.4c0.3,4.4,2.4,8.4,6,11c0.9,0.6,2.4,0.9,3.8,0.7c0.6,0.3,1.2,0.4,1.9,0.5
	c0.8,0.1,1.9-0.1,2.9-0.4c0.4,0.1,0.7,0.2,1.1,0.2c1.2,1.2,3.2,1.7,5.1,1.5c1.4,0.8,3.2,1,4.9,0.6c1.6,1.1,4,1.3,6.1,0.6
	c1.1,0.9,2.7,1.5,3.8,1.5c2.3,0.2,5.6-0.7,6.3-3.3l0.8-3.1c1.3-0.5,2.3-1.4,2.8-2.7c1-2.5,1.5-5,1.6-7.6c0-0.1,0-0.2,0-0.3
	C74.1,80.6,74.9,79.5,74.9,77.9z"/>
<path class="st0" d="M37.7,4.9c2.7-1.3,6.6-1,9.5-1.2c3.2-0.2,6.5-0.2,9.7,0c2.2,0.2,4.8,0.3,6.4,1.5c0,0.1-0.1,0.2-0.1,0.3
	C63.2,5.6,63,5.8,62.9,6c-2.6,1.6-5.5,1.8-8.4,1.9c-3.1,0.1-6.2,0.1-9.2-0.1c-1.8-0.1-3.6-0.2-5.4-0.5c-0.7-0.1-1.6-0.1-2.2-0.4
	c-0.7-0.3-0.7,0.2-0.9-0.8C36.5,5.3,36.9,5.2,37.7,4.9z"/>
<path d="M37.7,8.2C37.7,8.2,37.6,8.1,37.7,8.2c-0.5,2.5-0.4,5.2,0.4,7.6c0.1,0.2,0.4,0.1,0.3-0.1C37.9,13.1,37.6,10.8,37.7,8.2z"/>
<path d="M40,15.6c-0.6-2.4-0.9-4.7-0.6-7.2c0-0.1-0.3-0.2-0.3,0c-0.5,2.4-0.4,5,0.5,7.3C39.7,15.9,40.1,15.9,40,15.6z"/>
<path d="M41.1,8.6c0-0.3-0.5-0.2-0.5,0c-0.3,2.4-0.3,5,0.5,7.3c0.1,0.2,0.5,0.2,0.5-0.1C41.1,13.4,40.8,11.1,41.1,8.6z"/>
<path d="M47.6,16.5c-1-2.7-1.3-5.2-1.3-8c0,0-0.1,0-0.1,0c-0.8,2.6-0.3,5.8,0.9,8.2C47.2,16.9,47.7,16.8,47.6,16.5z"/>
<path d="M50.8,16.1c-1.1-2.4-1.5-4.7-1.6-7.2c0,0-0.1-0.1-0.1,0c-0.5,2.5-0.1,5.1,1,7.4C50.3,16.6,51,16.5,50.8,16.1z"/>
<path d="M55,16.5c-2-2.2-1.8-4.8-2-7.5c0-0.1-0.1-0.1-0.1,0c-0.5,2.7-0.3,5.7,1.5,7.9C54.6,17,55.2,16.8,55,16.5z"/>
<path d="M56.6,16.3c-2.3-2-2.3-4.8-2.1-7.6c0-0.3-0.5-0.3-0.6-0.1c-0.5,2.9-0.6,6.3,2,8.2C56.2,17.3,57.1,16.8,56.6,16.3z"/>
<path d="M58,15.8c-1.6-2.1-2.4-4.5-2.3-7.2c0-0.1-0.3-0.1-0.3,0c-0.4,2.7,0.2,5.3,1.9,7.4C57.6,16.4,58.3,16.2,58,15.8z"/>
<path d="M61.5,16.6c-1.8-2.2-2.6-4.4-2.7-7.2c0-0.1-0.2-0.1-0.2,0c-0.9,1.7-0.2,4.5,2.1,7.6C61,17.3,61.8,17,61.5,16.6z"/>
<path d="M62.5,15.8c-1.9-2-2.1-4.4-2.4-7c0-0.2-0.3-0.2-0.3,0c-0.1,2.6,0.1,5.5,2.1,7.4C62.1,16.4,62.8,16.1,62.5,15.8z"/>
<path d="M70,22.7c-2.1-4-3.5-7.7-2.7-12.3c0.1-0.5-0.2-0.8-0.6-0.9c0-1.7-0.4-3.4-1.3-4.7c0.1-0.6-0.5-1.1-1-0.9
	c-0.4-0.3-0.8-0.5-1.3-0.7C59.2,1.5,54.1,1.9,49.9,2c-2.3,0.1-4.7,0.2-7,0.4c-1.9,0.1-4,0.2-5.8,1c-1.6,0.7-3.2,2.5-2.5,3.9
	c0,0,0,0,0,0c-0.2,1.7-0.4,3.7-0.1,5.4c-0.1,2.8-1.1,5.4-2.8,7.7c-1.9,2.7-3.3,5.1-3.8,8.4c-1,7.2-1.1,14.6-1.3,21.8
	c-0.3,7.6-0.3,15.2-0.2,22.8c0.1,5.6-0.4,12.4,2.9,17.3c3.4,5,10.5,6.3,16.1,6.9C49,98,52.6,98,56.2,97.5c2.9-0.4,6.1-0.9,8.7-2.5
	c4.6-2.9,5.2-8.6,5.3-13.6c0.3-7.6,0.5-15.2,0.8-22.8c0.3-8.6,0.6-17.1,0.9-25.7C71.9,29.2,71.7,26,70,22.7z M37.7,4.9
	c2.7-1.3,6.6-1,9.5-1.2c3.2-0.2,6.5-0.2,9.7,0c2.2,0.2,4.8,0.3,6.4,1.5c0,0.1-0.1,0.2-0.1,0.3C63.2,5.6,63,5.8,62.9,6
	c-2.6,1.6-5.5,1.8-8.4,1.9c-3.1,0.1-6.2,0.1-9.2-0.1c-1.8-0.1-3.6-0.2-5.4-0.5c-0.7-0.1-1.6-0.1-2.2-0.4c-0.7-0.3-0.7,0.2-0.9-0.8
	C36.5,5.3,36.9,5.2,37.7,4.9z M36.1,8.3c2.1,0.8,4.7,0.8,6.9,1c2.6,0.2,5.3,0.2,7.9,0.2c4.1,0,8.6,0.2,12.3-1.8
	c0.3,0,0.6-0.1,0.8-0.4c0,0,0-0.1,0.1-0.1c0,0,0,0,0,0c0.2-0.1,0.3-0.4,0.4-0.6c0,0,0.1-0.1,0.1-0.1C64.8,7,65,7.6,65,8.3
	c0.1,1.3,0.2,2.8-0.2,4.1c-0.5,1.8-2.1,2.6-3.8,3C58,16,54.8,15.9,51.8,16c-3.7,0.1-7.5,0.1-11.2-0.3c-2.2-0.2-3.9-1-4.5-3.2
	c0,0,0,0,0-0.1c0-0.9-0.1-1.7-0.2-2.6C36,9.3,36,8.8,36.1,8.3z M68.6,80.3c-0.1,2.8-0.2,5.6-1,8.3c-2.2,6.9-10.8,7.6-17,7.6
	c-3.5,0-7-0.4-10.4-1.2c-3.1-0.8-6.4-1.7-8.6-4.2c-4.1-4.6-3.4-12.2-3.5-17.9c0-2.1,0-4.2,0-6.2c4.1,6.5,12.4,8,19.7,8.1
	c7.5,0.1,16.1-0.5,21.3-6.4c0,0.4,0,0.7,0,1.1C68.9,73.2,68.7,76.8,68.6,80.3z M70.1,37.3l-0.4,10.7l-0.6,17.9
	C69,65.9,69,65.9,68.9,66c-4.5,7-13.7,7.4-21.2,7.4c-7.2-0.1-15.5-1.6-19.1-8.7c-0.1-0.3-0.4-0.4-0.6-0.4c0-4.3,0.1-8.5,0.2-12.8
	c0.1-3.9,0.3-7.9,0.5-11.8c0.1-2,0.2-4,0.3-6c4.7,5.9,12.7,8.1,20,8.9c7.7,0.8,16.4-0.9,21.1-7.4C70.1,35.9,70.1,36.6,70.1,37.3z
	 M70.3,32.4c-0.2,0-0.4,0.2-0.5,0.4c-4.1,7.3-13,9-20.7,8.2c-7.2-0.8-15.4-3-19.5-9.3c-0.1-0.1-0.2-0.2-0.3-0.3
	c0.1-1.1,0.3-2.3,0.5-3.4c0.8-3.8,3.6-6.2,5.1-9.6c0.4-1,0.7-2,0.9-3c0.1,0.1,0.2,0.2,0.3,0.3c1.1,1.1,2.7,1.4,4.2,1.6
	c2.5,0.3,5.1,0.3,7.6,0.3c4.3,0.1,9,0.2,13.2-0.7c1.9-0.4,3.4-1.2,4.3-2.5c0.1,1.3,0.3,2.5,0.7,3.8c0.9,2.9,2.9,5.3,3.7,8.2
	C70.3,28.3,70.4,30.4,70.3,32.4z"/>
<path class="st2" d="M40.6,66.2c0.6-6.2,0.8-12.5,0.7-18.7c0-0.8-1.1-1.1-1.5-0.4c-1.7,3.5-2.2,7.5-3.6,11.2
	c-0.5-4-0.9-7.9-1.4-11.9c-0.1-0.8-1.4-1.2-1.6-0.2c-0.9,5.7-1.5,11.4-1.8,17.2c0,1,1.6,1,1.6,0c0.2-3.6,0.4-7.1,0.9-10.7
	c0.3,2.8,0.7,5.6,1,8.5c0.1,0.8,1.1,1.1,1.5,0.4c1.7-3,2.3-6.5,3.3-9.8c0,5.3-0.3,10.6-0.8,15.9c-0.1,1,1.3,1,1.6,0.2
	c0.1-0.3,0.2-0.6,0.3-0.9C40.9,66.6,40.8,66.4,40.6,66.2z"/>
<path class="st2" d="M45.1,48.4c-0.7,6.7-1.4,13.3-2,20c-0.1,0.9,1.4,1.1,1.6,0.2c0-0.2,0.1-0.4,0.1-0.7c0-0.2,0-0.3,0-0.5
	c0.7-6.4,1.3-12.7,2-19.1C46.8,47.4,45.2,47.4,45.1,48.4z"/>
<path class="st2" d="M55.5,66.8c-0.9-0.1-2.2,0.1-3.1-0.2c-1.5-0.5-1.2-1.1-1.3-2.3c-0.1-1.8-0.1-3.6-0.1-5.5
	c0-3.7,0.1-7.3,0.3-10.9c0.1-1-1.6-1-1.6,0c-0.3,5.1-0.4,10.2-0.2,15.2c0,1.3-0.4,3.6,0.8,4.6c1.2,1,3.8,0.6,5.2,0.7
	C56.6,68.4,56.5,66.8,55.5,66.8z"/>
<path class="st2" d="M62.9,52.5c0.8-1.3,1.6-2.5,2.4-3.8c0.6-0.9-0.8-1.7-1.4-0.8c-1.1,1.7-2.1,3.4-3.2,5c-0.3,0.5-0.8,1.1-1.2,1.7
	c0.1-2.9,0.2-5.8,0.3-8.6c0-1-1.6-1-1.6,0c-0.3,7.1-0.5,14.1-0.8,21.2c0,1,1.6,1,1.6,0c0.1-2.4,0.2-4.8,0.3-7.3
	c0.2,0.3,0.4,0.6,0.6,0.9c1.1,1.8,2.1,3.5,3.2,5.3c0.5,0.9,1.9,0.1,1.4-0.8c-0.8-1.3-1.6-2.7-2.4-4c-1-1.6-2.3-3.2-1.6-5.1
	C60.9,55,62.1,53.7,62.9,52.5z"/>
</svg>
