<?xml version="1.0" encoding="utf-8"?>
<!-- Generator: Adobe Illustrator 21.0.2, SVG Export Plug-In . SVG Version: 6.00 Build 0)  -->
<svg version="1.1" id="Layer_1" xmlns="http://www.w3.org/2000/svg" xmlns:xlink="http://www.w3.org/1999/xlink" x="0px" y="0px"
	 width="100px" height="100px" viewBox="0 0 100 100" style="enable-background:new 0 0 100 100;" xml:space="preserve">
<style type="text/css">
	.st0{fill:#0E3552;}
	.st1{fill:#46BCBC;}
	.st2{fill:#F22C67;}
	.st3{fill:#4FC5C9;}
	.st4{fill:#F7E8BC;}
	.st5{fill:#FFFFFF;}
	.st6{fill:#F29C9E;}
	.st7{fill:#EAD192;}
</style>
<path class="st0" d="M73.8,82.8V58.6c0-4.3,2.1-8,5.3-10.3h-6.2h-1.6h-6.2c3.2,2.2,5.3,6,5.3,10.3v24.2c0,6.6-5.1,12.1-11.3,12.3v0
	h26.3v0C78.8,94.9,73.8,89.4,73.8,82.8z"/>
<rect x="58.9" y="95.1" class="st1" width="26.3" height="3.3"/>
<path class="st2" d="M69.8,52.6c0.2,1.2-3.3,4.6-5.5,6.6C59,64.2,52.4,70.5,54,78.5l2.1-2.6l2.7,1.4c-0.8-5.3,4.4-10.2,9-14.6
	c4.2-3.9,7.7-7.3,6.9-11.2L69.8,52.6z"/>
<g>
	<g>
		<path class="st2" d="M88,71l1.8-2.7c-0.7,0.1-1.5,0.2-2,0.2c-7.1,0.1-11.9-12.3-13.2-17.1l-4.8,1.3c0.2,0.9,5.7,20.9,18,20.7
			c0.8,0,1.5-0.1,2.2-0.2L88,71z"/>
	</g>
</g>
<path class="st3" d="M59.9,1.7v37.7c0,6.3,5.2,11.5,11.5,11.5h1.2c6.3,0,11.5-5.2,11.5-11.5V1.7H59.9z"/>
<path class="st4" d="M82,1.7H61.9v37.7c0,5.2,4.2,9.4,9.4,9.4h1.2c5.2,0,9.4-4.2,9.4-9.4V1.7z"/>
<path class="st5" d="M61.9,14.9v24.6c0,5.2,4.2,9.4,9.4,9.4h1.2c5.2,0,9.4-4.2,9.4-9.4V14.9H61.9z"/>
<circle class="st6" cx="67.3" cy="24.4" r="1.7"/>
<circle class="st4" cx="71.3" cy="31.5" r="1.2"/>
<circle class="st4" cx="75.3" cy="26.2" r="1.8"/>
<circle class="st6" cx="77.9" cy="19.2" r="1.2"/>
<circle class="st6" cx="77.9" cy="39" r="0.9"/>
<circle class="st7" cx="66.8" cy="39.5" r="1.2"/>
<circle class="st6" cx="64.9" cy="32.5" r="1.2"/>
<circle class="st6" cx="71.2" cy="38" r="1.6"/>
<circle class="st6" cx="74.2" cy="43.6" r="2.1"/>
<path class="st0" d="M31.4,82.8V58.6c0-4.3,2.1-8,5.3-10.3h-6.2h-1.6h-6.2c3.2,2.2,5.3,6,5.3,10.3v24.2c0,6.6-5.1,12.1-11.3,12.3v0
	h26.3v0C36.5,94.9,31.4,89.4,31.4,82.8z"/>
<rect x="16.5" y="95.1" class="st1" width="26.3" height="3.3"/>
<path class="st2" d="M31.7,56.1c-0.3,1,0.9,5.9,1.9,8.7c2.3,7,5.1,15.6,0,21.9l-0.6-3.2l-3-0.1c3.2-4.2,1-11-1-17.1
	c-1.8-5.4-3.3-10.1-0.8-13.1L31.7,56.1z"/>
<g>
	<g>
		<path class="st2" d="M11.9,72.4l-1.5-2.9c0.7,0.2,1.4,0.3,2,0.4c7,0.8,13.2-11,14.9-15.6l3.7,1.6c-0.3,0.8-7,20.4-19.3,18.9
			c-0.8-0.1-1.5-0.2-2.2-0.4L11.9,72.4z"/>
	</g>
</g>
<path class="st3" d="M17.5,1.7v37.7C17.5,45.8,22.7,51,29,51h1.2c6.3,0,11.5-5.2,11.5-11.5V1.7H17.5z"/>
<path class="st4" d="M39.7,1.7c0,0-5,0-10,0c-5,0-10,0-10,0v37.7c0,5.2,4.2,9.4,9.4,9.4h1.2c5.2,0,9.4-4.2,9.4-9.4V1.7z"/>
<path class="st5" d="M19.6,14.9v24.6c0,5.2,4.2,9.4,9.4,9.4h1.2c5.2,0,9.4-4.2,9.4-9.4V14.9H19.6z"/>
<circle class="st7" cx="25" cy="24.4" r="1.7"/>
<circle class="st6" cx="28.9" cy="31.5" r="1.2"/>
<circle class="st6" cx="32.9" cy="26.2" r="1.8"/>
<circle class="st7" cx="35.5" cy="19.2" r="1.2"/>
<circle class="st7" cx="35.5" cy="39" r="0.9"/>
<circle class="st6" cx="24.4" cy="39.5" r="1.2"/>
<circle class="st6" cx="22.6" cy="32.5" r="1.2"/>
<circle class="st7" cx="28.8" cy="38" r="1.6"/>
<circle class="st6" cx="31.9" cy="43.6" r="2.1"/>
</svg>
