<?xml version="1.0" encoding="utf-8"?>
<!-- Generator: Adobe Illustrator 21.0.2, SVG Export Plug-In . SVG Version: 6.00 Build 0)  -->
<svg version="1.1" id="Layer_1" xmlns="http://www.w3.org/2000/svg" xmlns:xlink="http://www.w3.org/1999/xlink" x="0px" y="0px"
	 width="100px" height="100px" viewBox="0 0 100 100" style="enable-background:new 0 0 100 100;" xml:space="preserve">
<style type="text/css">
	.st0{fill:#F5E2C8;}
	.st1{fill:#FBDAAE;}
	.st2{fill:#B40E22;}
	.st3{fill:#F7E561;}
	.st4{fill:#F1C077;}
	.st5{fill:#1B1B1B;}
</style>
<path class="st0" d="M96,19.5c-0.1-0.5-0.3-0.9-0.6-1.3c-1.1-2-2.6-3.8-4.2-5.1c-4.3-3.6-9.7-5.2-15.3-6.2C68.2,4.1,60,2.6,51.7,2
	C43,1.3,34.2,1.8,25.4,2.6C18.8,3.2,7,3.7,7.7,12.8c0.1,0.8,0.4,1.5,0.8,2.1c0.2,0.5,0.4,1,0.9,1.3c5.1,3.8,11,4,17.2,3.1
	c6.1-0.8,11.9-2.1,18.1-2.1c9.6-0.1,19.3,1.6,28.2,5c2.4,1.3,4.8,2.7,7.3,3.8c1.1,0.5,2.5,1.2,3.9,1.7c1.5,1,3,1.9,4.6,2.5
	c2.8,1,5.6-0.1,7.1-2.5C97.4,25.2,97.1,22.2,96,19.5z"/>
<path class="st1" d="M82.3,28.2c-1.1-0.4-2.2-0.7-3.3-1.1c-3.7-3.8-8.6-6.7-13.8-8.2c-6.8-2-14.1-2.2-21.2-2.2
	c-6.5,0.1-13.1,0.4-19.6,1.1c-0.9-0.4-1.8-0.4-2.7-0.1c-0.1-0.1-0.3-0.1-0.4-0.2c-1.7-0.5-4.1,0.5-4.5,2.3C12.9,38,9,56.2,5.1,74.4
	c-1.6,7.3-3.7,17.4,5.1,21.5c4.1,1.9,8.1,0.6,11.9-1.1c3.5-1.6,7-3.2,10.4-5c13.7-7,26.8-15.5,37.7-26c5.4-5.2,10.3-11,14.4-17.2
	c1.9-2.9,4.3-6.3,5-9.7C90.6,31.9,86.7,29.6,82.3,28.2z"/>
<path class="st2" d="M35.9,37.3c-0.1-0.9-0.4-1.7-0.8-2.6c-0.1-0.1-0.1-0.2-0.2-0.3c-0.9-1.8-2.6-3.3-4.6-4.1
	c-0.4-0.2-0.8-0.3-1.2-0.4c-2.2-1.2-4.7-1.6-7.2-1.3c-5.5,0.4-11.3,3.8-11.3,9.2c-0.4,2.3,0.2,4.8,1.9,6.8C15,47.5,19,49,22.9,49.2
	c5.1,0.3,9.7-2.1,11.9-5.9c0.8-0.7,1.4-1.5,1.6-2.7C36.7,39.3,36.5,38.2,35.9,37.3z"/>
<path class="st3" d="M51.9,26.6c-0.4,3-1.3,5.9-2.6,8.7c-1.4,3.2,5.4,4.8,6.8,1.6c1.5-3.3,2.4-6.7,2.8-10.1
	C59.5,23.4,52.3,23.3,51.9,26.6z"/>
<path class="st0" d="M71.2,53.3C63.6,60.2,55.9,66.9,48,73.5c-3.9,3.2-7.8,6.5-11.7,9.6c-3.8,3.1-7.7,6-12.2,8
	c-0.8,0.3-0.7,1.1-0.3,1.6c-2.9,1.1-6,1.9-9.2,2.2c-0.9,0.1-1.2,0.9-1,1.5c-0.8,0.2-1.8,0.4-2.2,0.4c-0.4-0.5-1.1-0.7-1.7-0.2
	l-0.1,0.1c-0.4,0.4-0.4,1.1,0,1.5c0.7,0.8,1.5,0.7,2.5,0.5c1.8-0.3,3.5-0.7,5.2-1.1c3.1-0.7,6.1-1.7,9-2.8
	c6.3-2.4,12.1-5.5,17.5-9.4c1-0.7,0-1.9-0.9-1.8c7.7-6.1,14.6-13,21.4-19.8c0.5-0.5,0.4-1.1,0-1.5c2.9-2.6,5.8-5.1,8.6-7.8
	C73.7,53.8,72.2,52.3,71.2,53.3z M40.7,82.7c-1.5,1.2-3,2.3-4.6,3.4c0.2-0.1,0.4-0.3,0.5-0.4c4.1-3.3,8.2-6.6,12.3-10
	c0.6-0.5,1.2-1,1.7-1.5C47.5,77.1,44.2,80,40.7,82.7z"/>
<path class="st0" d="M9.7,71.7c-1,4.5-2,9-3.1,13.5c-0.3,1.3,1.8,1.9,2.1,0.6c1-4.5,2-9,3.1-13.5C12.1,71,10,70.4,9.7,71.7z"/>
<path class="st3" d="M20.6,62.3c0-0.2,0-0.4,0-0.6v-0.1l0.1-2.3c0-1.4-2.2-1.4-2.2-0.1l-0.1,2.4c-0.3,0.2-0.5,0.4-0.5,0.8
	c0,0.7,0,1.3-0.1,2c0,1.2,1.8,1.4,2.2,0.3c0.2-0.4,0.3-0.9,0.4-1.3c0.1-0.1,0.1-0.3,0.2-0.5V62.3z"/>
<path class="st4" d="M93.9,18.3c-3.4-3.6-8.1-5.7-12.8-7.2c-3-0.9-6.1-1.7-9.2-2.5C71.3,8.4,70.6,8.2,70,8c0.2-0.5,0.1-1.2-0.6-1.5
	C55.9,0.9,40.6,0.2,26.5,4.2c-0.3,0-0.6,0-0.9,0c-0.3-0.3-0.8-0.5-1.4-0.3c-0.3,0.2-0.6,0.4-0.9,0.6c-0.3-0.6-1.1-1-1.8-0.4
	c-0.1,0-0.1,0.1-0.2,0.2h-0.1l0,0C21.6,3.6,21,2.5,20,2.8C19,3,18.1,3.5,17.2,4c-3.8,1.4-8.3,5.5-5.7,9.3c0.9,1.3,2.6,2.1,4.3,2.6
	c1.1,1.1,2.6,1.9,4.1,2.3c0.9,0.2,1.5-0.6,1.4-1.3c0.5,0,1,0.1,1.5,0.1c2.4,1.4,5.2,2.2,8.1,2c1.4-0.1,1.5-2.2,0.1-2.1
	c-0.9,0.1-1.8,0-2.7-0.1c0.1,0,0.3,0,0.4,0c0.3,0,0.4-0.1,0.6-0.3c11.5-0.6,23.2,0.7,34.3,3.7c6.4,1.8,12.7,4.1,18.6,7.1
	c1.9,0.9,3.9,2.1,6.1,2.8v0.1c-2.8-1.3-6.4-0.8-8.7,1.3c-1.7,1.6-2.5,3.7-2.9,5.9c-0.3,0.5-0.7,0.9-1,1.4
	c-7.6,11.1-16,21.9-26.2,30.9c-6.7,5-13.7,9.5-21.2,13.4C22.1,86.3,15.6,89,8.8,91c-2.8,0.7-2,4.3,0.6,4c0.2,1,1,1.9,2.1,2
	c13.6,1.8,24.9-6.7,34.1-15c4.3-3.9,8.6-7.9,12.8-11.9c5.8-5.1,11.4-10.4,16.8-15.9c3.7-2.2,7.1-4.6,10.3-7.4
	c2.9-2.5,6.4-5.6,6.2-9.5c0-0.5-0.1-1-0.3-1.5l0,0c1.1-1.3,0.4-3-0.8-3.5c-0.2-0.3-0.4-0.5-0.6-0.8c1.9,0.2,4,0.2,5.3-1.4
	c0.4-0.5,0.7-1.1,0.8-1.6C99.1,25.5,96.4,20.9,93.9,18.3z M85.1,36.6c-0.1-0.2-0.3-0.3-0.5-0.5l0,0c0.3-0.1,0.6-0.1,1-0.1
	C85.4,36.2,85.2,36.4,85.1,36.6z M61,6c-2-0.4-3.9-0.7-5.9-1c-3.5-0.5-6.9-1-10.4-1.3c-0.1,0-0.1,0-0.2,0C50.1,3.8,55.6,4.5,61,6z
	 M13.5,9.6c0,0.3-0.1,0.5-0.1,0.8c0,0.6,0.1,1.2,0.2,1.8C13.1,11.5,13.1,10.5,13.5,9.6z M17.1,13.9c-0.9-1.2-1.3-2.6-1.2-4l0,0
	c0,1.4,0.5,2.7,1.4,3.8c0.1,0.1,0.1,0.2,0.2,0.3C17.4,14,17.2,13.9,17.1,13.9z M88.4,27.9c-2.5-0.9-4.8-2.3-7.1-3.4
	c-2.4-1.1-4.9-2.2-7.4-3.2c-4.8-1.9-9.8-3.4-14.9-4.5c-7.9-1.8-16-2.6-24.1-2.6c-0.1-0.4-0.4-0.7-1-0.7c-1,0.1-2,0.2-3,0.3
	c-0.2-0.6-0.9-1.1-1.6-0.7c-0.9,0.4-1.9,0.6-2.8,0.4c-0.2-0.1-0.3-0.2-0.6-0.2c-0.2,0-0.3,0-0.5-0.1c-0.9-0.3-1.7-1-2.2-1.8
	c-0.4-0.8-0.5-1.7-0.3-2.5c0.4-0.6,0.9-1.2,1.3-1.7c0,0,0,0,0-0.1c0.9-0.3,1.8-0.6,2.7-0.9c0.8,0,1.6,0,2.3,0
	C35.1,6.2,41,6.5,46.8,7c8.2,0.7,16.5,1.8,24.6,3.6c0.2,0.1,0.5,0.2,0.7,0.2c5,1.6,9.8,3.9,14,7c2.1,1.6,4.1,3.5,5.8,5.5
	c0.8,1,2,2.4,2.2,3.7c0,0.2,0,0.3,0,0.5C92.5,28.6,89.9,28.4,88.4,27.9z M94.5,23.4c-2.3-3.1-5.2-5.8-8.4-8.1c2.2,1.1,4.3,2.4,6,4.2
	c1.2,1.3,2.8,3.2,3.2,5C95,24.2,94.7,23.8,94.5,23.4z"/>
<path class="st2" d="M83.1,40.5c0.1-0.6,0.1-1.3,0-2c-0.4-2.7-2.2-4.5-4.5-5.4c-2.6-2.2-6.5-3-10.2-1.1c-2.8,1.5-4.2,4.1-4.3,6.8
	c-1.1,1.8-1.6,4-0.5,6c0.7,1.3,1.8,2.4,3.2,3.1c1.1,0.8,2.5,1.2,3.9,1.3c0.3,0.1,0.7,0.2,1,0.3C77.4,51,83.9,46,83.1,40.5z"/>
<path class="st2" d="M51,65.1c-0.2-0.7-0.5-1.4-0.9-2c-0.1-0.3-0.2-0.5-0.3-0.8c-0.1-0.4-0.3-0.8-0.5-1.3
	c-3.4-6.9-13.2-7.6-17.8-1.5c-3.5,4.6-1.9,10.7,2.2,14.4c1.1,1.6,2.8,2.7,5.3,3c0.5,0.1,1,0.1,1.5,0c3.6,0.3,6.9-1.3,8.9-3.9
	c1.3-0.9,2.3-2,3.2-3.2C53.9,67.8,52.7,65.9,51,65.1z"/>
<path class="st5" d="M97.2,21.5c-2.6-5.6-9.9-8.6-15.5-11c-6.8-3-14-5.2-21.4-6.6c-8.2-1.6-16.6-2.3-25-1.9
	C31.2,2.2,27.1,2.6,23,3.3C20.5,3.7,17.3,4,15.6,6c-2,1.4-3.1,4.2-1.9,6.7c1.1,2.4,3.1,3.7,5.4,4.5c-1,4.6-1.9,9.2-2.9,13.8
	c-0.2,0.2-0.2,0.4-0.1,0.6c-0.9,4.2-1.8,8.4-2.6,12.6c-0.7-0.2-1.7,0.3-1.1,0.8c0.3,0.3,0.5,0.5,0.8,0.7c-0.8,4-1.7,8-2.5,11.9
	c-1.4,6.8-2.9,13.6-4.3,20.5c-0.9,4.2-2.6,9.6-0.2,13.6c-0.6-0.2-1.5,0-1.3,0.7c2.4,6.2,11.2,5.8,16.7,4.4c8.1-2,15.2-6.8,21.8-11.6
	c13.4-9.6,25.4-21.1,35.5-33.8c3.4-4.3,6.6-8.8,9.6-13.4c1.3-1.5,2.5-3.1,3.8-4.6c0.3-0.4,0-0.7-0.4-0.9l0,0
	C97.3,31.8,99.2,25.9,97.2,21.5z M17.8,31.6c3.2-2.2,9.2-1.7,12.6-0.4c4.5,1.7,6,6.7,4,10.7c-3.5,7-13.5,8.1-19.5,3.5
	C15.8,40.8,16.8,36.2,17.8,31.6z M65.9,63.8C60.7,69.2,55.1,74.3,49.2,79c-6.1,4.8-12.5,9.6-19.4,13.2c-4,2.1-8.4,3.7-13,4.2
	c-3.6,0.3-8.2-0.3-9.9-3.6c3,3.5,8,3.2,12.1,1.8c5.6-1.9,10.6-5.6,15.5-8.7c3.9-2.5,7.8-5.2,11.5-8l0,0c0.7-0.3,1.4-0.8,1.9-1.4
	C53.4,72.3,58.8,68,64,63.4c4.5-4,8.8-8.1,12.9-12.4c0.6,0,0.9-0.4,0.8-0.8c0.6-0.6,1.2-1.2,1.7-1.8C75.1,53.7,70.6,58.9,65.9,63.8z
	 M44.8,76.7c-2.4,0.8-6.1-0.2-8.3-1c-2.9-1-4.8-3.1-5.2-6c-0.6-4.9,2.7-8.8,6-12.2c4.4,0.2,10.1,0.8,12,5.2c1.1,2.5,0.5,5.2-0.4,7.6
	c-0.5,1.5-1.2,3.7-2.4,5.2C46,75.8,45.4,76.3,44.8,76.7z M76.8,32.5c0.3,0.1,0.7,0.1,1-0.1c3.6,2.1,5.3,6.3,4,10.2
	c-0.1,0.2,0,0.4,0.1,0.5c-2,2.2-4,4.4-6.1,6.6c-4.6-0.2-10.5-1.2-10.3-6.7C65.7,38.2,70.7,29.8,76.8,32.5z M86.9,37.3
	c-1,1.2-2,2.3-3,3.5c0.3-3.7-1.6-7.2-4.8-9.3c0.1-0.3-0.1-0.6-0.6-0.7c-0.4-0.1-0.9-0.2-1.3-0.3c-0.3-0.1-0.7,0.1-0.9,0.3
	c-6.3-1.6-11.4,5.3-12.4,10.7c-1.2,6.7,5,8.8,10.7,9.2c-7.8,7.9-16.1,15.4-25,22.2c0.3-0.6,0.5-1.2,0.7-1.8c1-2.7,1.8-5.8,0.8-8.7
	c-1.8-4.9-7.7-6.1-12.7-6.4c0.2-0.6-1.1-1-1.6-0.4c-0.1,0.1-0.2,0.2-0.4,0.4c-0.4,0.1-0.6,0.3-0.6,0.6c-4.1,4.3-8.4,10-5.4,15.8
	c1.2,2.3,3.5,3.7,6.1,4.5c1.7,0.5,4,1.1,6.1,1.2c-0.8,0.5-1.5,1.1-2.3,1.6c-4.8,3.3-9.7,6.5-14.7,9.6c-4.1,2.5-10.7,6.8-15.7,4
	C4.5,90.3,7,82.6,8,78c1.3-6.4,2.7-12.8,4-19.3c0.8-4,1.7-8,2.5-12.1c7.1,4.6,18.3,3.1,21.7-5.1c1.9-4.5-0.1-9.7-5-11.6
	C28.8,29.2,26,29,23.4,29c-1.8,0-3.6,0.1-5.2,0.8c0.8-4,1.7-8.1,2.5-12.1c3.2,0.7,6.9,0.5,9.9,0.4c14.7-0.4,30.3,0,43.8,6.4
	c3.4,1.6,6.3,3.8,9.5,5.7c1.8,1.1,3.9,2.1,6.1,2.4C89,34.1,88,35.7,86.9,37.3z M90.6,31.3c-4-0.2-8.8-4.3-11.7-6
	c-9.7-5.7-21.1-7.8-32.4-8.4c-6.6-0.4-13.1-0.2-19.7,0c-1.9,0-4,0-6-0.5c0.1-0.6-0.9-0.8-1.4-0.4c-1.3-0.5-2.5-1.3-3.5-2.5
	c-1.1-1.3-1.6-3.1-0.9-4.7c0.2-0.4,0.4-0.7,0.7-1c0.3,0,0.7-0.1,0.8-0.4C16.7,7.1,16.9,7,17,6.8c0.9-0.5,2-0.6,3-0.2
	C20.8,7,21.9,6,20.9,5.5c-0.4-0.2-0.8-0.3-1.2-0.4c1.9-0.6,4.1-0.7,5.6-0.9c3.4-0.5,6.9-0.8,10.3-1c6.2-0.3,12.5,0,18.6,0.9
	c12.2,1.7,25,5.5,35.4,11.9c4.4,2.7,9,8,5.5,13c-0.7,1-1.5,1.6-2.4,1.9c0.5-0.8,1-1.7,1.4-2.5s-1.3-1.1-1.7-0.4
	C91.8,29.2,91.2,30.3,90.6,31.3z"/>
<path class="st5" d="M58.3,22.7c-1.6-0.3-3.1-0.3-4.6,0.1c-0.1,0-0.2,0.1-0.3,0.1c-0.4,0-0.8,0.2-0.8,0.6c-0.6,3.9-1.2,7.8-1.8,11.6
	c-0.3,2-0.5,4.2,2.4,4.2c2.6,0,3.3-2.4,3.8-4.4c0.8-3.9,1.4-7.8,2.1-11.7C59,23,58.6,22.8,58.3,22.7z M55.2,34.2
	c-0.1,0.6-0.2,1.2-0.4,1.8c-0.3,1.1-0.3,1.6-1.7,1.4c-1.2-0.2-1-0.1-0.9-1c0.1-0.6,0.2-1.3,0.3-1.9l0.6-3.5l1.1-6.9
	c1-0.2,1.9-0.3,2.9-0.2c-0.4,2.2-0.8,4.3-1.2,6.5C55.7,31.6,55.4,32.9,55.2,34.2z"/>
<path class="st5" d="M22,59.8c0-0.2-0.2-0.5-0.4-0.6c-1-0.4-2.1-0.7-3.1-1.1c0,0,0,0-0.1,0c-0.4-0.3-1.5-0.2-1.5,0.4
	c-0.3,2.6-0.6,5.3-0.9,7.9c0,0.3,0.3,0.6,0.6,0.6c1.7,0.3,3.3-0.3,4.3-1.6C22.3,63.9,22.2,61.7,22,59.8z M17.8,65.9
	c0.2-2.1,0.5-4.2,0.7-6.3c0.6,0.2,1.2,0.4,1.7,0.6C20.4,62.1,20.3,65.8,17.8,65.9z"/>
<path class="st3" d="M57.4,52.4c0-0.1,0-0.2,0-0.3v-0.1l0.1-1.2c0-0.7-1.1-0.7-1.1-0.1l-0.1,1.2c-0.2,0.1-0.3,0.2-0.3,0.4
	c0,0.4,0,0.7-0.1,1c0,0.6,0.9,0.7,1.1,0.2c0.1-0.2,0.2-0.5,0.2-0.7c0.1-0.1,0.1-0.2,0.1-0.3V52.4z"/>
<path class="st5" d="M58.2,51.1c0-0.1-0.1-0.3-0.2-0.3c-0.5-0.2-1.1-0.4-1.6-0.6c0,0,0,0-0.1,0c-0.2-0.2-0.8-0.1-0.8,0.2
	c-0.2,1.3-0.3,2.7-0.5,4.1c0,0.2,0.2,0.3,0.3,0.3c0.9,0.2,1.7-0.2,2.2-0.8C58.3,53.3,58.3,52.1,58.2,51.1z M56,54.3
	c0.1-1.1,0.3-2.2,0.4-3.3c0.3,0.1,0.6,0.2,0.9,0.3C57.3,52.3,57.3,54.3,56,54.3z"/>
<path class="st3" d="M35.4,23.6c0-0.1,0-0.2,0-0.3v-0.1l0.1-1.2c0-0.7-1.1-0.7-1.1-0.1l-0.1,1.2c-0.2,0.1-0.3,0.2-0.3,0.4
	c0,0.4,0,0.7-0.1,1c0,0.6,0.9,0.7,1.1,0.2c0.1-0.2,0.2-0.5,0.2-0.7c0.1-0.1,0.1-0.2,0.1-0.3V23.6z"/>
<path class="st5" d="M36.1,22.4c0-0.1-0.1-0.3-0.2-0.3c-0.5-0.2-1.1-0.4-1.6-0.6c0,0,0,0-0.1,0c-0.2-0.2-0.8-0.1-0.8,0.2
	c-0.2,1.3-0.3,2.7-0.5,4.1c0,0.2,0.2,0.3,0.3,0.3c0.9,0.2,1.7-0.2,2.2-0.8C36.3,24.5,36.2,23.3,36.1,22.4z M33.9,25.5
	c0.1-1.1,0.3-2.2,0.4-3.3c0.3,0.1,0.6,0.2,0.9,0.3C35.3,23.5,35.2,25.5,33.9,25.5z"/>
</svg>
