<?xml version="1.0" encoding="utf-8"?>
<!-- Generator: Adobe Illustrator 21.0.2, SVG Export Plug-In . SVG Version: 6.00 Build 0)  -->
<svg version="1.1" id="Layer_1" xmlns="http://www.w3.org/2000/svg" xmlns:xlink="http://www.w3.org/1999/xlink" x="0px" y="0px"
	 width="100px" height="100px" viewBox="0 0 100 100" style="enable-background:new 0 0 100 100;" xml:space="preserve">
<style type="text/css">
	.st0{fill:#5B6868;}
	.st1{fill:#525E5E;}
	.st2{fill:#F0C835;}
	.st3{fill:#CCA527;}
	.st4{fill:#468C96;}
	.st5{fill:#5096A0;}
</style>
<path class="st0" d="M75.7,95.8L52,30.9c0,0,0-0.1,0-0.1c0-0.1-0.1-0.2-0.1-0.2c0-0.1-0.1-0.1-0.1-0.2c0-0.1-0.1-0.1-0.1-0.2
	c-0.1-0.1-0.1-0.1-0.2-0.2c-0.1-0.1-0.1-0.1-0.2-0.1c-0.1-0.1-0.1-0.1-0.2-0.2c-0.1,0-0.1-0.1-0.2-0.1c-0.1,0-0.2-0.1-0.2-0.1
	c0,0,0,0-0.1,0c0,0-0.1,0-0.1,0c-0.1,0-0.2-0.1-0.3-0.1c-0.1,0-0.1,0-0.2,0c-0.1,0-0.2,0-0.2,0c-0.1,0-0.2,0-0.2,0
	c-0.1,0-0.1,0-0.2,0c-0.1,0-0.2,0-0.3,0.1c0,0-0.1,0-0.1,0c0,0,0,0-0.1,0c-0.1,0-0.2,0.1-0.2,0.1c-0.1,0-0.1,0.1-0.2,0.1
	c-0.1,0-0.1,0.1-0.2,0.2c-0.1,0-0.1,0.1-0.2,0.1c-0.1,0.1-0.1,0.1-0.2,0.2c0,0.1-0.1,0.1-0.1,0.2c0,0.1-0.1,0.1-0.1,0.2
	c0,0.1-0.1,0.1-0.1,0.2c0,0,0,0.1,0,0.1l-23.6,65c-0.4,1.2,0.2,2.6,1.4,3c0.3,0.1,0.5,0.1,0.8,0.1c1,0,1.9-0.6,2.2-1.5l3.1-8.4h36.7
	l3.1,8.4c0.3,1,1.3,1.5,2.2,1.5c0.3,0,0.5,0,0.8-0.1C75.5,98.4,76.1,97.1,75.7,95.8z M49.8,38.6l0.8,2.2l-2.3,2.1L49.8,38.6z
	 M51.9,44.3l1.3,3.6h-5.3L51.9,44.3z M45.1,51.4h5.4l-7.2,4.8L45.1,51.4z M54.9,52.7l2.3,6.4H45.4L54.9,52.7z M41,62.6h11.1L38.7,69
	L41,62.6z M58.8,63.4l2.8,7.6H42.7L58.8,63.4z M36.7,74.6h19.1l-22.5,9.2L36.7,74.6z M38.4,85.5l24.7-10.2l3.7,10.2H38.4z"/>
<path class="st1" d="M50.6,40.7l-0.8,0.7v4.7l2.1-1.9l1.3,3.6h-3.4v3.5h0.7l-0.7,0.5v4.3l5.1-3.5l2.3,6.4h-7.5v3.5h2.3l-2.3,1.1v3.9
	l9-4.3l2.8,7.6H49.8v3.5h6l-6,2.5v3.8l13.4-5.5l3.7,10.2H49.8V89h18.4l3.1,8.4c0.3,1,1.3,1.5,2.2,1.5c0.3,0,0.5,0,0.8-0.1
	c1.2-0.4,1.9-1.8,1.4-3L52,30.9c0,0,0-0.1,0-0.1c0-0.1-0.1-0.2-0.1-0.2c0-0.1-0.1-0.1-0.1-0.2c0-0.1-0.1-0.1-0.1-0.2
	c-0.1-0.1-0.1-0.1-0.2-0.2c-0.1-0.1-0.1-0.1-0.2-0.1c-0.1-0.1-0.1-0.1-0.2-0.2c-0.1,0-0.1-0.1-0.2-0.1c-0.1,0-0.2-0.1-0.2-0.1
	c0,0,0,0-0.1,0c0,0-0.1,0-0.1,0c-0.1,0-0.2-0.1-0.3-0.1c-0.1,0-0.1,0-0.2,0c-0.1,0-0.2,0-0.2,0v9.2L50.6,40.7z"/>
<circle class="st2" cx="49.7" cy="31.9" r="6.2"/>
<circle class="st3" cx="49.7" cy="31.9" r="3.8"/>
<path class="st4" d="M34.8,18.7l-0.6-0.6c-0.3-0.3-0.8-0.5-1.3-0.5c-0.5,0-1,0.2-1.3,0.6c-3.6,4.2-5.8,9.7-5.8,15.7h4.4
	c0-4.9,1.8-9.3,4.7-12.8C35.5,20.4,35.5,19.4,34.8,18.7z"/>
<path class="st4" d="M25.8,35.9c0,5.9,2.1,11.3,5.7,15.4c0.3,0.4,0.8,0.6,1.3,0.6c0.5,0,1-0.2,1.3-0.5l0.6-0.6
	c0.6-0.6,0.7-1.7,0.1-2.4c-2.9-3.4-4.6-7.8-4.6-12.6v0L25.8,35.9L25.8,35.9z"/>
<path class="st5" d="M66.7,17.6c-0.5,0-1,0.2-1.3,0.5l-0.6,0.6c-0.7,0.7-0.7,1.7-0.1,2.4c3,3.4,4.7,7.9,4.7,12.8h4.4
	c0-6-2.2-11.5-5.8-15.7C67.6,17.9,67.2,17.6,66.7,17.6z"/>
<path class="st5" d="M69.4,35.9c0,4.8-1.7,9.2-4.6,12.6c-0.6,0.7-0.5,1.7,0.1,2.4l0.6,0.6c0.3,0.3,0.8,0.5,1.3,0.5
	c0.5,0,1-0.2,1.3-0.6c3.5-4.2,5.7-9.6,5.7-15.4v0L69.4,35.9L69.4,35.9z"/>
<path class="st4" d="M27.2,13.4c0.6-0.7,0.6-1.8-0.1-2.4l-0.6-0.6c-0.3-0.3-0.8-0.5-1.3-0.5c-0.5,0-0.9,0.2-1.3,0.6
	c-5.6,6.2-9,14.4-9,23.4c0,0,0,0,0,0h4.4c0,0,0,0,0,0C19.3,26,22.3,18.8,27.2,13.4z"/>
<path class="st4" d="M23.8,59.1c0.3,0.4,0.8,0.6,1.3,0.6c0.5,0,1-0.2,1.3-0.5l0.6-0.6c0.7-0.7,0.7-1.7,0.1-2.4
	c-4.8-5.4-7.7-12.5-7.7-20.3h-4.4C14.9,44.8,18.3,52.9,23.8,59.1z"/>
<path class="st5" d="M72.6,56.2c-0.6,0.7-0.6,1.8,0.1,2.4l0.6,0.6c0.3,0.3,0.8,0.5,1.3,0.5c0.5,0,0.9-0.2,1.3-0.6
	c5.5-6.2,8.9-14.3,8.9-23.2h-4.4C80.3,43.7,77.4,50.8,72.6,56.2z"/>
<path class="st5" d="M75.6,10.5c-0.3-0.4-0.8-0.6-1.3-0.6c-0.5,0-0.9,0.2-1.3,0.5L72.5,11c-0.7,0.7-0.7,1.7-0.1,2.4
	c4.9,5.4,7.9,12.6,7.9,20.5c0,0,0,0,0,0h4.4c0,0,0,0,0,0C84.7,24.9,81.3,16.7,75.6,10.5z"/>
<path class="st4" d="M19.4,5.7C20.1,5,20,4,19.4,3.3l-0.6-0.6c-0.3-0.3-0.8-0.5-1.3-0.5c-0.5,0-0.9,0.2-1.3,0.6
	C8.7,10.9,4,21.9,4,33.9c0,0,0,0,0,0h4.4c0,0,0,0,0,0C8.4,23,12.6,13.1,19.4,5.7z"/>
<path class="st4" d="M16.1,66.8c0.3,0.4,0.8,0.6,1.3,0.6c0.5,0,0.9-0.2,1.3-0.5l0.6-0.6c0.7-0.7,0.7-1.7,0.1-2.4
	c-6.8-7.4-10.9-17.2-10.9-28H4C4,47.8,8.6,58.7,16.1,66.8z"/>
<path class="st5" d="M91.2,35.9C91.2,35.9,91.2,35.9,91.2,35.9c0,10.8-4.1,20.6-10.9,28c-0.6,0.7-0.6,1.8,0.1,2.4l0.6,0.6
	c0.3,0.3,0.8,0.5,1.3,0.5c0.5,0,0.9-0.2,1.3-0.6c7.5-8.2,12.1-19,12.1-30.9c0,0,0,0,0,0H91.2z"/>
<path class="st5" d="M83.3,2.7c-0.3-0.4-0.8-0.6-1.3-0.6c-0.5,0-0.9,0.2-1.3,0.5l-0.6,0.6c-0.7,0.7-0.7,1.8,0,2.4
	C87,13.1,91.2,23,91.2,33.9h4.4C95.6,21.9,90.9,10.9,83.3,2.7z"/>
</svg>
