<?xml version="1.0" encoding="utf-8"?>
<!-- Generator: Adobe Illustrator 21.0.2, SVG Export Plug-In . SVG Version: 6.00 Build 0)  -->
<svg version="1.1" id="Layer_1" xmlns="http://www.w3.org/2000/svg" xmlns:xlink="http://www.w3.org/1999/xlink" x="0px" y="0px"
	 width="100px" height="100px" viewBox="0 0 100 100" style="enable-background:new 0 0 100 100;" xml:space="preserve">
<style type="text/css">
	.st0{fill:#4E96A2;}
	.st1{fill:#5C8195;}
	.st2{fill:#F0C835;}
	.st3{fill:#DDB32A;}
	.st4{fill:#58B9C8;}
	.st5{fill:#62C3D2;}
	.st6{fill:#327882;}
	.st7{fill:#F0F0F0;}
	.st8{fill:#FBDD60;}
	.st9{fill:#B1B8B8;}
</style>
<rect x="56.3" y="85.2" class="st0" width="36.7" height="2.3"/>
<g>
	<g>
		
			<rect x="52.4" y="-20.2" transform="matrix(0.2804 -0.9599 0.9599 0.2804 20.2762 64.2347)" class="st1" width="1.1" height="77.7"/>
		<rect x="71.8" y="7.2" transform="matrix(0.2804 -0.9599 0.9599 0.2804 29.293 88.259)" class="st1" width="3.4" height="34.9"/>
		<rect x="63" y="-5.3" transform="matrix(0.2804 -0.9599 0.9599 0.2804 25.1938 77.3352)" class="st1" width="2.3" height="54.3"/>
	</g>
	<rect x="16.9" y="5.1" transform="matrix(0.2696 -0.963 0.963 0.2696 5.6099 24.8309)" class="st0" width="4.6" height="7.2"/>
	<rect x="10.2" y="22.2" class="st2" width="13.6" height="6.6"/>
	<rect x="26.7" y="25.5" class="st3" width="13.6" height="3.3"/>
	<path class="st4" d="M98,87.3c0,3.2-2.6,5.7-5.7,5.7H7.4c-3.2,0-5.7-2.6-5.7-5.7V33.4c0-3.2,2.6-5.7,5.7-5.7h84.8
		c3.2,0,5.7,2.6,5.7,5.7V87.3z"/>
	<path class="st5" d="M92.3,93c3.2,0,5.7-2.6,5.7-5.7V33.4c0-3.2-2.6-5.7-5.7-5.7H49.9V93H92.3z"/>
	<path class="st6" d="M29.5,40.6c-12.5,0-22.7,10.2-22.7,22.7C6.8,75.8,16.9,86,29.5,86C42,86,52.2,75.8,52.2,63.3
		C52.2,50.7,42,40.6,29.5,40.6L29.5,40.6z"/>
	<rect x="56.3" y="32.2" class="st7" width="36.7" height="16.2"/>
	<path class="st2" d="M70.5,57.9c0,2.8-1.8,5.1-4.3,6c-0.6,0.2-1.3,0.3-2,0.3c-0.7,0-1.4-0.1-2-0.3c-2.5-0.8-4.3-3.2-4.3-6
		c0-2.8,1.8-5.1,4.3-6c0.6-0.2,1.3-0.3,2-0.3c0.7,0,1.4,0.1,2,0.3C68.7,52.8,70.5,55.1,70.5,57.9z"/>
	<circle class="st2" cx="85" cy="57.9" r="6.3"/>
	<rect x="56.3" y="66.8" class="st0" width="36.7" height="2.3"/>
	<rect x="56.3" y="71.6" class="st0" width="36.7" height="2.3"/>
	<rect x="56.3" y="76.5" class="st0" width="36.7" height="2.3"/>
	<rect x="56.3" y="81.3" class="st0" width="36.7" height="2.3"/>
	<path class="st8" d="M69.6,54.6L62,63.8c-0.6-0.2-1.2-0.6-1.8-1c-0.5-0.4-1-1-1.3-1.5l7.6-9.2c0.6,0.2,1.2,0.6,1.8,1
		C68.8,53.5,69.2,54,69.6,54.6z"/>
	<path class="st8" d="M87.4,52.1L86.6,64c-0.6,0.2-1.3,0.2-2,0.2c-0.7,0-1.4-0.2-2-0.5l0.8-11.9c0.6-0.2,1.3-0.2,2-0.2
		C86.1,51.7,86.8,51.8,87.4,52.1z"/>
	<g>
		<rect x="57.6" y="33.5" class="st9" width="0.6" height="8.7"/>
		<rect x="60.7" y="33.5" class="st9" width="0.6" height="8.7"/>
		<rect x="63.7" y="33.5" class="st9" width="0.6" height="8.7"/>
		<rect x="66.7" y="33.5" class="st9" width="0.6" height="8.7"/>
		<rect x="69.8" y="33.5" class="st9" width="0.6" height="8.7"/>
		<rect x="72.8" y="33.5" class="st9" width="0.6" height="8.7"/>
		<rect x="75.8" y="33.5" class="st9" width="0.6" height="8.7"/>
		<rect x="78.9" y="33.5" class="st9" width="0.6" height="8.7"/>
		<rect x="81.9" y="33.5" class="st9" width="0.6" height="8.7"/>
		<rect x="84.9" y="33.5" class="st9" width="0.6" height="8.7"/>
		<rect x="88" y="33.5" class="st9" width="0.6" height="8.7"/>
		<rect x="91" y="33.5" class="st9" width="0.6" height="8.7"/>
	</g>
	<g>
		<rect x="57.8" y="36.7" class="st9" width="0.3" height="5.6"/>
		<rect x="58.8" y="36.7" class="st9" width="0.3" height="5.6"/>
		<rect x="59.8" y="36.7" class="st9" width="0.3" height="5.6"/>
		<rect x="60.8" y="36.7" class="st9" width="0.3" height="5.6"/>
		<rect x="61.8" y="36.7" class="st9" width="0.3" height="5.6"/>
		<rect x="62.8" y="36.7" class="st9" width="0.3" height="5.6"/>
		<rect x="63.8" y="36.7" class="st9" width="0.3" height="5.6"/>
		<rect x="64.8" y="36.7" class="st9" width="0.3" height="5.6"/>
		<rect x="65.8" y="36.7" class="st9" width="0.3" height="5.6"/>
		<rect x="66.9" y="36.7" class="st9" width="0.3" height="5.6"/>
		<rect x="67.9" y="36.7" class="st9" width="0.3" height="5.6"/>
		<rect x="68.9" y="36.7" class="st9" width="0.3" height="5.6"/>
		<rect x="69.9" y="36.7" class="st9" width="0.3" height="5.6"/>
		<rect x="70.9" y="36.7" class="st9" width="0.3" height="5.6"/>
		<rect x="71.9" y="36.7" class="st9" width="0.3" height="5.6"/>
		<rect x="72.9" y="36.7" class="st9" width="0.3" height="5.6"/>
		<rect x="73.9" y="36.7" class="st9" width="0.3" height="5.6"/>
		<rect x="74.9" y="36.7" class="st9" width="0.3" height="5.6"/>
		<rect x="76" y="36.7" class="st9" width="0.3" height="5.6"/>
		<rect x="77" y="36.7" class="st9" width="0.3" height="5.6"/>
		<rect x="78" y="36.7" class="st9" width="0.3" height="5.6"/>
		<rect x="79" y="36.7" class="st9" width="0.3" height="5.6"/>
		<rect x="80" y="36.7" class="st9" width="0.3" height="5.6"/>
		<rect x="81" y="36.7" class="st9" width="0.3" height="5.6"/>
		<rect x="82" y="36.7" class="st9" width="0.3" height="5.6"/>
		<rect x="83" y="36.7" class="st9" width="0.3" height="5.6"/>
		<rect x="84" y="36.7" class="st9" width="0.3" height="5.6"/>
		<rect x="85.1" y="36.7" class="st9" width="0.3" height="5.6"/>
		<rect x="86.1" y="36.7" class="st9" width="0.3" height="5.6"/>
		<rect x="87.1" y="36.7" class="st9" width="0.3" height="5.6"/>
		<rect x="88.1" y="36.7" class="st9" width="0.3" height="5.6"/>
		<rect x="89.1" y="36.7" class="st9" width="0.3" height="5.6"/>
		<rect x="90.1" y="36.7" class="st9" width="0.3" height="5.6"/>
		<rect x="91.1" y="36.7" class="st9" width="0.3" height="5.6"/>
	</g>
	<polygon class="st1" points="68.1,48.4 69.3,38.8 70.4,48.4 	"/>
	<path class="st0" d="M29.5,43.7c-10.8,0-19.6,8.8-19.6,19.6c0,10.8,8.8,19.6,19.6,19.6c10.8,0,19.6-8.8,19.6-19.6
		C49,52.5,40.3,43.7,29.5,43.7L29.5,43.7z"/>
	<path class="st6" d="M29.5,50.9c-6.8,0-12.4,5.5-12.4,12.4c0,6.8,5.5,12.4,12.4,12.4c6.8,0,12.4-5.5,12.4-12.4
		C41.9,56.4,36.3,50.9,29.5,50.9L29.5,50.9z"/>
</g>
</svg>
