<?xml version="1.0" encoding="utf-8"?>
<!-- Generator: Adobe Illustrator 21.0.2, SVG Export Plug-In . SVG Version: 6.00 Build 0)  -->
<svg version="1.1" id="Layer_1" xmlns="http://www.w3.org/2000/svg" xmlns:xlink="http://www.w3.org/1999/xlink" x="0px" y="0px"
	 width="100px" height="100px" viewBox="0 0 100 100" style="enable-background:new 0 0 100 100;" xml:space="preserve">
<style type="text/css">
	.st0{fill:url(#SVGID_1_);}
	.st1{fill:#680D0D;}
	.st2{fill:#2399BD;}
	.st3{font-family:'OregonLDOUltraBlackSinistral';}
	.st4{font-size:59.1176px;}
	.st5{font-size:35.3186px;}
	.st6{font-size:17.7367px;}
</style>
<radialGradient id="SVGID_1_" cx="60.6588" cy="69.2926" r="65.7629" fx="125.2295" fy="56.8273" gradientTransform="matrix(1 0 0 -1 0 102)" gradientUnits="userSpaceOnUse">
	<stop  offset="4.854370e-03" style="stop-color:#FBF5A9"/>
	<stop  offset="7.887553e-02" style="stop-color:#FBF49C"/>
	<stop  offset="0.1748" style="stop-color:#FCF38F"/>
	<stop  offset="0.2665" style="stop-color:#FEF385"/>
	<stop  offset="0.4075" style="stop-color:#FAE26E"/>
	<stop  offset="0.58" style="stop-color:#F6C94B"/>
	<stop  offset="0.7759" style="stop-color:#EDA520"/>
	<stop  offset="0.8398" style="stop-color:#EB9822"/>
	<stop  offset="0.9291" style="stop-color:#F18F20"/>
	<stop  offset="1" style="stop-color:#F5831F"/>
</radialGradient>
<circle class="st0" cx="49.5" cy="50.6" r="48.5"/>
<g>
</g>
<g>
</g>
<path id="XMLID_61_" class="st1" d="M23.1,38.9c0,0,0,0.1-0.1,0.3c-0.1,0.2-0.2,0.4-0.2,0.8c-0.1,0.3-0.1,0.8-0.2,1.2
	c0,0.2,0,0.5,0,0.8c0,0.3,0,0.6,0.1,0.9c0,0.3,0.1,0.6,0.2,1c0.1,0.3,0.2,0.7,0.4,1c0.1,0.4,0.4,0.7,0.6,1c0.2,0.3,0.6,0.6,0.9,1
	c0.3,0.3,0.7,0.6,1.1,0.8c0.4,0.2,0.8,0.4,1.3,0.6c0.4,0.1,0.9,0.3,1.3,0.3c0.4,0,0.9,0.1,1.3,0.1l0,0l0.2,0l0,0l0.1,0l0.1,0l0.3,0
	l0.5,0c0.1,0,0.4-0.1,0.7-0.1c0.2-0.1,0.5-0.1,0.7-0.2c0.5-0.1,0.9-0.4,1.3-0.6c0.4-0.2,0.8-0.5,1.1-0.8c0.3-0.3,0.6-0.6,0.9-1
	c0.2-0.4,0.5-0.7,0.6-1c0.3-0.7,0.5-1.4,0.6-2c0-0.3,0.1-0.6,0.1-0.9c0-0.3,0-0.5,0-0.8c0-0.5-0.1-0.9-0.2-1.2
	c-0.1-0.3-0.2-0.6-0.2-0.8c-0.1-0.2-0.1-0.3-0.1-0.3s-0.2,0.4-0.5,0.9c-0.1,0.3-0.3,0.6-0.5,1c-0.1,0.2-0.2,0.4-0.3,0.6
	c-0.1,0.2-0.2,0.4-0.4,0.6c-0.1,0.2-0.3,0.4-0.5,0.6c-0.1,0.2-0.3,0.4-0.5,0.5c-0.2,0.2-0.4,0.3-0.5,0.5c-0.2,0.1-0.4,0.2-0.6,0.4
	c-0.2,0.1-0.4,0.2-0.6,0.3l-0.3,0.1c-0.1,0-0.2,0.1-0.3,0.1c-0.1,0-0.2,0-0.3,0c-0.1,0-0.2,0.1-0.4,0.1l-0.9,0c-0.3,0-0.5,0-0.8,0
	c-0.3,0-0.5-0.1-0.7-0.1c-0.2-0.1-0.4-0.1-0.7-0.2c-0.2-0.1-0.4-0.2-0.6-0.3c-0.2-0.1-0.4-0.2-0.6-0.4c-0.2-0.2-0.4-0.3-0.6-0.5
	c-0.2-0.2-0.4-0.3-0.5-0.5c-0.2-0.2-0.3-0.4-0.5-0.6c-0.2-0.2-0.3-0.4-0.4-0.6c-0.1-0.2-0.2-0.4-0.3-0.6c-0.2-0.4-0.4-0.7-0.5-1
	C23.2,39.3,23.1,38.9,23.1,38.9z"/>
<path id="XMLID_1_" class="st1" d="M57.4,38.9c0,0,0,0.1-0.1,0.3c-0.1,0.2-0.2,0.4-0.2,0.8c-0.1,0.3-0.1,0.8-0.2,1.2
	c0,0.2,0,0.5,0,0.8c0,0.3,0,0.6,0.1,0.9c0,0.3,0.1,0.6,0.2,1c0.1,0.3,0.2,0.7,0.4,1c0.1,0.4,0.4,0.7,0.6,1c0.2,0.3,0.6,0.6,0.9,1
	c0.3,0.3,0.7,0.6,1.1,0.8c0.4,0.2,0.8,0.4,1.3,0.6c0.4,0.1,0.9,0.3,1.3,0.3c0.4,0,0.9,0.1,1.3,0.1l0,0l0.2,0l0,0l0.1,0l0.1,0l0.3,0
	l0.5,0c0.1,0,0.4-0.1,0.7-0.1c0.2-0.1,0.5-0.1,0.7-0.2c0.5-0.1,0.9-0.4,1.3-0.6c0.4-0.2,0.8-0.5,1.1-0.8c0.3-0.3,0.6-0.6,0.9-1
	c0.2-0.4,0.5-0.7,0.6-1c0.3-0.7,0.5-1.4,0.6-2c0-0.3,0.1-0.6,0.1-0.9c0-0.3,0-0.5,0-0.8c0-0.5-0.1-0.9-0.2-1.2
	c-0.1-0.3-0.2-0.6-0.2-0.8C71,39.1,70.9,39,70.9,39s-0.2,0.4-0.5,0.9c-0.1,0.3-0.3,0.6-0.5,1c-0.1,0.2-0.2,0.4-0.3,0.6
	c-0.1,0.2-0.2,0.4-0.4,0.6c-0.1,0.2-0.3,0.4-0.5,0.6c-0.1,0.2-0.3,0.4-0.5,0.5c-0.2,0.2-0.4,0.3-0.5,0.5c-0.2,0.1-0.4,0.2-0.6,0.4
	c-0.2,0.1-0.4,0.2-0.6,0.3l-0.3,0.1c-0.1,0-0.2,0.1-0.3,0.1c-0.1,0-0.2,0-0.3,0c-0.1,0-0.2,0.1-0.4,0.1l-0.9,0c-0.3,0-0.5,0-0.8,0
	c-0.3,0-0.5-0.1-0.7-0.1c-0.2-0.1-0.4-0.1-0.7-0.2c-0.2-0.1-0.4-0.2-0.6-0.3c-0.2-0.1-0.4-0.2-0.6-0.4c-0.2-0.2-0.4-0.3-0.6-0.5
	c-0.2-0.2-0.4-0.3-0.5-0.5c-0.2-0.2-0.3-0.4-0.5-0.6c-0.2-0.2-0.3-0.4-0.4-0.6c-0.1-0.2-0.2-0.4-0.3-0.6c-0.2-0.4-0.4-0.7-0.5-1
	C57.6,39.3,57.4,38.9,57.4,38.9z"/>
<circle class="st1" cx="48.5" cy="77.4" r="5.9"/>
<text transform="matrix(1 0 0 1 65.0938 34.5449)" class="st2 st3 st4">z</text>
<text transform="matrix(1 0 0 1 50.3662 30.7422)" class="st2 st3 st5">z</text>
<text transform="matrix(1 0 0 1 38.1533 31.1016)" class="st2 st3 st6">z</text>
</svg>
