<?xml version="1.0" encoding="utf-8"?>
<!-- Generator: Adobe Illustrator 21.0.2, SVG Export Plug-In . SVG Version: 6.00 Build 0)  -->
<svg version="1.1" id="Layer_1" xmlns="http://www.w3.org/2000/svg" xmlns:xlink="http://www.w3.org/1999/xlink" x="0px" y="0px"
	 width="100px" height="100px" viewBox="0 0 100 100" style="enable-background:new 0 0 100 100;" xml:space="preserve">
<style type="text/css">
	.st0{fill:url(#SVGID_1_);}
</style>
<linearGradient id="SVGID_1_" gradientUnits="userSpaceOnUse" x1="2.524960e-02" y1="49.5739" x2="99.3575" y2="49.5739">
	<stop  offset="0" style="stop-color:#F7952F"/>
	<stop  offset="1" style="stop-color:#F26522"/>
</linearGradient>
<path class="st0" d="M46.6,27c0,9.7-1.4,19.1-5,28.2c9.5-4.1,13.5-3.7,21.6,1.7c1.7-1.6,3.2-3.4,5-4.8c6.4-4.5,13.3-5.2,20.2-1.7
	c6.9,3.5,10.5,9.3,10.8,17.1c0.3,8.2-3.2,14.5-9.7,19.2c-5.4,3.9-11.6,6.1-18.1,7.5c-10.9,2.4-22,3.3-33.1,2.1
	c-11.1-1.2-21.3-4.8-30.3-11.4c-1.6-1.2-3-2.6-4.4-4c-3-3-4.1-6.8-3.5-11c1.6-11.5,5.7-22.2,12.6-31.5c7.5-10,15.6-19.5,23.3-29.4
	c4.4-5.7,10.3-7.3,17-7c4.2,0.2,8.3,1.2,12.2,2.6c6.2,2.3,10.2,8.3,9.9,14.8c-0.2,6.7-4.5,12.3-10.9,14.3c-6.3,1.9-13.2-0.4-17-5.8
	C47.1,27.7,46.9,27.4,46.6,27z"/>
</svg>
