<?xml version="1.0" encoding="utf-8"?>
<!-- Generator: Adobe Illustrator 21.0.2, SVG Export Plug-In . SVG Version: 6.00 Build 0)  -->
<svg version="1.1" id="Layer_1" xmlns="http://www.w3.org/2000/svg" xmlns:xlink="http://www.w3.org/1999/xlink" x="0px" y="0px"
	 width="100px" height="100px" viewBox="0 0 100 100" style="enable-background:new 0 0 100 100;" xml:space="preserve">
<style type="text/css">
	.st0{fill:#DFF1F4;}
	.st1{fill:#A84C00;}
	.st2{opacity:0.28;fill:#FFB633;}
	.st3{opacity:0.28;fill:#FFAB00;}
	.st4{opacity:0.28;fill:#EF9300;}
</style>
<path class="st0" d="M88.2,54.2c-1.8-3.2-5.2-4.5-8.2-3.8c-1-0.4-2-0.6-3.1-0.6c3-0.9,6.2-3.4,8.2-5.4c2.8-2.8,5-6.3,6-10.2
	c0.9-3.5,0.7-7.6-0.7-11c-1.5-3.6-4-5.4-7.3-7.1c-0.2-0.1-0.5,0.2-0.3,0.4c3.9,4.3,5.3,12,3.6,17.4c-0.9,3-2.8,5.6-5.1,7.7
	c-1.8,1.6-3.9,2.5-5.9,3.6c0.6-1.3,1.2-2.6,1.7-3.9c2.5-6.3,5.6-13.6,5.6-20.5c0-4.6-2.1-12.1-7.7-12.6c-0.5-0.1-0.8,0.4-0.6,0.9
	c0.7,2.2,1.8,4.1,2.2,6.5c0.5,2.7,0.5,5.2,0.1,7.9c-0.9,5.8-3.2,11.8-5.5,17.2c-0.1,0.1-0.1,0.3-0.2,0.4c0.2,0.3,0.4,0.6,0.6,1
	c2.3,4.6,3,9.5,2.2,14.1c0.1,1.1-0.1,2.3-0.8,3.4c-0.4,1.1-0.8,2.2-1.4,3.2c2.1,1.3,3.5,3.9,2.6,6.5c0.3,1.4,0,2.9-1.1,4.4
	c-6.1,7.5-14.2,11.2-23.9,11.6c-0.3,0-0.6,0-0.9,0c-1.8,0.9-3.6,1.6-5.4,2.3c-0.6,0.2-1.2,0.4-1.7,0.6c-0.7,0.2-1.1,0.3-1.3,0.4
	c2-0.5-1.3,0.4,0,0c-0.2,0.1-0.6,0.2-1,0.3c-0.6,0.2-1.2,0.3-1.7,0.4c-1.9,0.4-3.8,0.6-5.7,0.9c-4.8,0.6-9.7,1-14.5,0.7
	c-0.3,0-0.6,0-0.9-0.1c0.9,3.1,3.8,5.2,7.1,6c10.9,2.3,21.9,3.4,32.1-0.8c1.4-0.1,2.8-0.1,4.3-0.1c7.9,0,15,0.6,21.9-4
	c5.8-3.9,9.6-10.1,11.1-16.8C93.8,68,91.5,60.3,88.2,54.2z"/>
<path class="st1" d="M27.9,22.5c8.7,2.2,18,2,26.9,1.8c4.2-0.1,8.3-1.1,12.5-1.6c1.7-0.2,3.5-0.4,5.2-0.6c0.1,0,0.2,0,0.3,0
	c1.7-0.7,3.3-1.5,4.6-2.6c0.1-0.1,0.2-0.1,0.2-0.2c2.2,0.3,3-3.2,0.9-4C60.8,9,40.2,6.2,22.8,15.6c-2.3,1.3-2.2,5.2,0.9,5.4
	c0,0,0.1,0,0.1,0c0.8,0.7,1.7,1.2,2.8,1.6C27,22.5,27.4,22.4,27.9,22.5z"/>
<path class="st2" d="M73.5,17.9c-0.7-0.6-1.6-1-2.4-1.5c-0.6-0.4-1.1-0.9-1.5-1.4c0,0,0-0.1,0.1-0.1c0.5-1.2-1.3-1.9-1.9-0.7
	c-2.1,4.2-9.7,1.1-13.2,0.5c-3.9-0.7-7.8-1.3-11.8-1.3c-7.1,0-13.6,1.8-18.7,6.8c-0.4,0.4,0.1,1,0.5,0.6c0.4-0.4,0.9-0.8,1.3-1.2
	c-0.3,0.7,0,1.6,0.9,2c0.2,0.1,0.3,0.1,0.5,0.2c0.1,0.3,0.2,0.5,0.3,0.8c0,0,0.1,0,0.1,0c8.7,2.2,18,2,26.9,1.8
	c4.2-0.1,8.3-1.1,12.5-1.6c1.7-0.2,3.5-0.4,5.2-0.6c0.1,0,0.1,0,0.2,0c0.2-0.1,0.4-0.3,0.6-0.5c0.2-0.3,0.3-0.6,0.4-0.9
	c0.2,0.4,0.2,0.8,0.1,1.3c0,0,0,0,0,0c0.6,0,1.3-0.1,1.8-0.3C75.7,20.1,74.7,18.9,73.5,17.9z"/>
<path class="st3" d="M73.2,18.3c-0.8-0.7-1.6-1.4-2.4-2c-0.4-0.2-0.7-0.4-1.1-0.4c-0.1,0-0.2-0.1-0.3-0.1c-0.2-0.1-0.3-0.2-0.3-0.5
	c0,0,0-0.1-0.1-0.1c0-0.1,0-0.1,0-0.2c0-0.1-0.2-0.2-0.2-0.1c-0.1,0.6-0.5,1-0.8,1.4c0,0-0.1,0-0.1,0.1c-0.9,0.6-3.6,0.5-4.7,0.5
	c-1.7,0.1-3.4-0.2-5.1-0.6c-3.4-0.8-6.7-1.6-10.1-2c-4.7-0.6-12-1.1-16.3,1.9c-1.5,0.3-3,1.2-4.2,2.3c-0.2,0-0.4,0-0.6,0.1
	c-0.4,0.2-0.8,0.6-1,1.1c-0.1,0.3-0.2,0.5-0.1,0.8c-0.2,0.5,0.1,1,0.6,1.1c0.1,0.4,0.2,0.7,0.4,1c0.3-0.1,0.7-0.1,1.1,0
	c8.7,2.2,18,2,26.9,1.8c4-0.1,7.9-1,11.9-1.5c0.4-0.3,0.8-0.7,1.1-1.1c0.2,0.3,0.4,0.6,0.6,0.9c1.3-0.2,2.7-0.3,4-0.5
	c0.5-0.1,1.1-0.1,1.7-0.2C74.7,20.8,74.6,19.4,73.2,18.3z"/>
<path class="st4" d="M71.2,20.9c-1-1.1-1.7-2.4-2.4-3.8c-0.1-0.3-0.5-0.4-0.8-0.3c-3.5,1.7-7.4,1.1-11.1,0.2
	c-3.5-0.9-6.9-1.7-10.5-1.7c-3.6,0.1-7.2,0.6-10.6,1.6c-3.2,0.9-5,2.8-6.9,5.4c-0.2,0.3,0.2,0.6,0.4,0.3c0.1-0.1,0.1-0.1,0.2-0.2
	c-0.1,0.4-0.1,0.9,0.2,1.2c0.3,0.3,0.8,0.5,1.2,0.3c0.3-0.1,0.4-0.4,0.6-0.7c0.1,0.1,0.3,0.1,0.5,0.1c0,0,0,0.1,0,0.1
	c0.1,0.5,0.8,0.4,1,0.1c0.1-0.1,0.2-0.3,0.3-0.4c0.1,0,0.2,0.1,0.2,0.1c0.4,0.1,0.7,0.1,0.9-0.1c0.2,0.4,0.6,0.6,1.2,0.6
	c0.4,0,0.7-0.2,1-0.4c0.3,0.1,0.6,0,0.9-0.2c0.4,0.2,0.9,0.2,1.2,0c0.2,0.1,0.3,0.1,0.6,0.1c0.2,0.1,0.5,0.2,1,0.2
	c0.3,0,0.7-0.1,1-0.3c0.2,0.3,0.6,0.5,1,0.5c0.2,0,0.4-0.1,0.6-0.2c0.4,0.2,0.8,0.2,1.3,0.1c0.1,0,0.2,0.1,0.3,0.1
	c0.2,0.2,0.6,0.2,0.8,0c0,0,0,0,0,0c0.2,0.2,0.7,0.3,0.9-0.1c0,0,0-0.1,0.1-0.1c0,0,0,0,0.1,0c0,0,0,0.1,0,0.1
	c0,0.3,0.4,0.6,0.7,0.5c0.3-0.1,0.6-0.2,0.9-0.4c0.1,0.1,0.2,0.1,0.4,0.1c0.2,0.3,0.6,0.6,0.9,0.3c0.1-0.1,0.3-0.3,0.4-0.4
	c0,0,0,0,0,0c-0.1,0.6,0.7,0.8,1.1,0.4c0,0,0,0,0,0c0.2,0,0.4,0,0.6-0.2c0.1-0.1,0.2-0.3,0.3-0.4c0.3,0.1,0.6,0,0.8-0.3
	c0,0,0-0.1,0-0.1c0,0,0.1,0,0.1,0.1c0,0,0,0.1-0.1,0.1c-0.2,0.7,0.6,1.1,1,0.6c0.3,0.2,0.7,0.2,0.9-0.1c0.1-0.1,0.2-0.3,0.3-0.4
	c0.1,0.1,0.2,0.1,0.3,0.2c0.2,0.4,0.8,0.6,1.1,0c0,0,0.1,0.1,0.1,0.1c0,0,0,0,0,0c-0.2,0.7,0.9,0.8,1.2,0.3c0.1-0.1,0.1-0.2,0.2-0.4
	c0.1,0.1,0.3,0.2,0.5,0.2c0.2,0.3,0.8,0.3,1-0.1c0.1-0.1,0.1-0.2,0.2-0.3l0,0c0.1,0.4,0.8,0.6,1.1,0.2l0.4-0.6
	c0.2,0.1,0.4,0.2,0.6,0.2c0.1,0.5,0.9,0.6,1.2,0.1c0,0,0,0,0,0c0.2,0,0.3-0.1,0.4-0.2c0.2,0.2,0.5,0.3,0.7,0.2
	c0.2,0.1,0.6,0.1,0.7-0.2c0.2-0.3,0.4-0.6,0.5-1c0.2,0.1,0.3,0.1,0.5,0c0.2,0.5,0.9,0.7,1.1,0.1c0,0,0-0.1,0.1-0.1
	c0.3,0.3,0.8,0.2,1-0.2c0.1-0.1,0.1-0.2,0.1-0.3c0.1,0.1,0.3,0.2,0.5,0.1c0.2,0.2,0.5,0.2,0.7,0c0.1,0,0.2,0,0.3,0c0,0,0,0,0.1,0.1
	c0.1,0.2,0.3,0.4,0.5,0.4c0.2,0.4,0.8,0.5,0.9,0c0-0.1,0.1-0.2,0.1-0.2C71.2,22,71.6,21.4,71.2,20.9z M54.2,17.8
	C54.2,17.8,54.2,17.8,54.2,17.8c-0.2,0.1-0.3,0.1-0.4,0.1c0,0,0-0.1,0-0.1c0-0.1-0.1-0.1-0.1-0.1c0-0.1-0.1-0.2-0.2-0.3
	c0.3,0.1,0.6,0.1,0.9,0.2C54.3,17.6,54.2,17.7,54.2,17.8z M42.9,16.9C42.9,17,42.9,17,42.9,16.9c-0.1,0-0.1,0.1-0.2,0.1
	c-0.1,0-0.2,0-0.2,0c0-0.1-0.1-0.1-0.1-0.2c0.3,0,0.7-0.1,1-0.1C43.3,16.8,43.1,16.8,42.9,16.9z M50.3,16.8c-0.2,0-0.3,0.1-0.4,0.1
	c-0.2,0-0.3,0-0.5,0.1c-0.1-0.1-0.2-0.2-0.3-0.3c0.2,0,0.4,0,0.7,0.1C50,16.7,50.2,16.8,50.3,16.8z M46.9,16.5
	c-0.2,0-0.3,0.1-0.5,0.1c-0.2,0-0.4,0.1-0.7,0.2c0-0.1,0-0.2,0-0.2C46.1,16.6,46.5,16.5,46.9,16.5z"/>
<path d="M89.7,56.6c-2.3-4.5-6.9-8.1-11.9-8.8c7-2.5,12.7-8.2,14.9-15.3c2.1-7.1,0-18.2-8.7-19.3c0.4-2.7-1.4-5.3-3.8-6.9
	C75.8,3.4,70,2.8,65,2.2C53.7,0.8,41.2,0.6,30.2,3.8C26.3,5,20.4,7,18.6,11.2c-0.2,0-0.4,0.2-0.4,0.4c-1.5,6.5,0.6,13.6,2.5,19.8
	c1.7,5.7,3.6,11.5,6,16.9C16.1,50.4,6.3,59,4.5,69.9c-2,12.1,12.1,20,21.8,22.9c11.8,3.4,25.2,3.7,37.3,2.1
	c11.3-1.5,21.8-6.7,25.9-18C91.9,70.5,92.9,62.8,89.7,56.6z M83.7,14.3c7.6,3,8.6,12.2,5.6,19.1c-2.4,5.6-7.2,9.7-13,11.3
	c0.9-2.1,1.7-4.1,2.5-6.3c4.6,0.1,8.6-5.3,9.4-9.4c0.7-3.7-1.1-8.8-5-10C83.3,17.5,83.5,15.9,83.7,14.3z M85.9,29
	c-1,3.2-3.3,5.2-6.2,6.3c1.5-5,2.5-10.1,3.2-15.2C85.5,22.4,87.1,25.3,85.9,29z M79.5,14.6c0.3,0.2,0.6,0.4,0.9,0.7
	c-0.6,0.6-1.4,1.1-2,1.5c-2,1.2-4.3,2-6.4,2.8c-5.1,1.7-10.5,2.4-15.9,2.7c-9.1,0.5-18.8,0.2-27.7-2.3c-0.1-0.3-0.4-0.5-0.7-0.6
	c-1.6-0.7-4.1-1.6-5.5-3.1C29,9.7,40.8,8.5,49.9,8.4c10-0.1,19.9,2.1,29,6.2C79.1,14.7,79.3,14.7,79.5,14.6z M28.3,7.4
	c5-2,10.5-2.7,15.8-3.2c5.9-0.5,11.9-0.5,17.8,0C67.4,4.8,74.1,5.1,78.8,8c1.3,0.8,2.8,2.1,3,3.8c0.1,0.9-0.2,1.7-0.6,2.4
	c-0.5-0.2-1-0.5-1.5-0.6c-0.1-0.1-0.2-0.3-0.4-0.4c-9.8-4.3-20.4-6.4-31.2-6c-8.9,0.3-20,1.8-26.4,8.6c-0.6-0.8-0.9-1.7-0.8-2.8
	C21.5,10,25.9,8.4,28.3,7.4z M22.8,31.3c-1.6-4.5-3.4-9.6-3.8-14.6c0.3,0.5,0.7,1,1.1,1.5c0,0.2,0.2,0.4,0.4,0.6
	c0.1,0,0.2,0.1,0.3,0.1c1.7,1.4,3.8,2.4,5.7,3.1c0.7,0.2,1.2,0,1.6-0.4c8.7,2.6,18,3.1,27,2.9c5.4-0.1,10.7-0.7,15.9-2.3
	c3.5-1,8-2.5,10.8-5.2c-1.8,9.8-4.2,19.7-8.7,28.6c0,0,0,0.1-0.1,0.1c-0.1,0.1-0.2,0.3-0.2,0.4c-2.4,4.6-5.4,8.9-9,12.6
	c-1.9,1.9-4,4-6.6,5c-2.6,1-5.2,0.1-7.8,0.6c-3.4-0.4-6.8-1.2-9.7-3c-5.1-3.1-8.2-8.7-10.6-14C26.6,42.2,24.7,36.7,22.8,31.3z
	 M65.2,63.2c0.8,0,1.6,0,2.4,0.1c0.7,0,1.3,0.2,1.9,0.4c0.4,0.9,0.7,1.9,1.1,2.8c-0.2,1.3-4.2,2.5-5.3,2.8c-3.4,1-7.1,1.3-10.6,1.5
	c-3.8,0.3-7.7,0.2-11.5-0.1c-1.9-0.2-3.8-0.4-5.6-0.7c-0.6-0.1-1.3-0.2-1.9-0.4c-0.4-1-0.9-2.1-1.3-3.1c0.1-1.3,2.8-2.4,3.8-2.8
	c0,0,0.1,0,0.1-0.1c0.1,0.1,0.2,0.1,0.3,0.2c2.9,1.7,6.2,2.6,9.5,3.1c0.3,0.3,0.7,0.5,1.3,0.5c0.8-0.1,1.5-0.1,2.3,0
	c1.6,0.1,3.1,0.2,4.7,0.3c0.6,0,1.1-0.3,1.3-0.7c0,0,0.1,0,0.1,0c2.5-0.9,4.6-2.6,6.5-4.5c0,0,0,0,0,0
	C64.3,62.8,64.6,63.2,65.2,63.2z M88,75.6C83.8,85.9,74.5,90.4,64.1,92c-9.8,1.5-20.3,1.4-30.1-0.1c-5.3-0.8-10.5-2.2-15.2-4.6
	c-4.6-2.3-9.8-6-11.9-11c-2.6-6.3,0.9-13.6,5-18.4c3.8-4.6,9.1-7.9,14.8-9.5c0.3,0.6,0.5,1.2,0.8,1.8c2.3,4.8,5.3,9.7,9.7,12.8
	c-2,0.5-4.1,1.4-4.8,3.6c-0.6,1.7-0.1,3.6,1.4,4.7c2.5,1.7,6.6,1.9,9.5,2.2c3.9,0.5,7.8,0.6,11.8,0.5c5.3-0.2,14.6-0.5,18-5.5
	c1.4-2,0.9-4.4-0.8-6.1c-1.7-1.7-4.2-2-6.5-1.9c3.2-3.4,5.9-7.2,8.1-11.3c0.1-0.2,0.2-0.4,0.3-0.5c0.1,0,0.3,0,0.4,0
	c0.4-0.1,0.8-0.2,1.2-0.3c0.1,0.1,0.2,0.2,0.4,0.3c5.6,0.9,10.6,3.8,13.1,9.1C92,63.2,90.2,70.3,88,75.6z"/>
<path d="M76,73c-10.1,8.5-23.2,10.4-36,9.4c-6.2-0.5-13.7-1.6-18-6.6c-6-7,1.6-14.8,8-17.5c0.2-0.1,0.1-0.3-0.1-0.2
	c-5.5,2.1-11,6.3-10.6,12.8c0.4,6.7,7.7,10.1,13.4,11.5C47.1,86,65.5,84.6,76.8,74C77.5,73.4,76.7,72.4,76,73z"/>
<path d="M62.1,74.5c-6.5,5-14.9,6.1-23.2,5.4c-4-0.3-8.9-1-11.6-4c-3.9-4.2,0.9-8.8,5.1-10.4c0.1,0-0.3-1.6-0.4-1.6
	c-3.5,1.2-6.7,5.2-6.5,9.1c0.3,4,5,6.1,8.7,7c9.3,2.2,21.2,1.5,28.4-4.8C63.1,74.8,62.5,74.2,62.1,74.5z"/>
</svg>
