<?xml version="1.0" encoding="utf-8"?>
<!-- Generator: Adobe Illustrator 21.0.2, SVG Export Plug-In . SVG Version: 6.00 Build 0)  -->
<svg version="1.1" id="Layer_1" xmlns="http://www.w3.org/2000/svg" xmlns:xlink="http://www.w3.org/1999/xlink" x="0px" y="0px"
	 width="100px" height="100px" viewBox="0 0 100 100" style="enable-background:new 0 0 100 100;" xml:space="preserve">
<style type="text/css">
	.st0{fill:url(#SVGID_1_);}
	.st1{fill:#680D0D;}
	.st2{fill:url(#XMLID_3_);}
</style>
<g>
	
		<radialGradient id="SVGID_1_" cx="63.6087" cy="69.0515" r="62.2617" fx="124.7416" fy="57.2499" gradientTransform="matrix(1 0 0 -1 0 102)" gradientUnits="userSpaceOnUse">
		<stop  offset="4.854370e-03" style="stop-color:#FBF5A9"/>
		<stop  offset="7.887553e-02" style="stop-color:#FBF49C"/>
		<stop  offset="0.1748" style="stop-color:#FCF38F"/>
		<stop  offset="0.2665" style="stop-color:#FEF385"/>
		<stop  offset="0.4075" style="stop-color:#FAE26E"/>
		<stop  offset="0.58" style="stop-color:#F6C94B"/>
		<stop  offset="0.7759" style="stop-color:#EDA520"/>
		<stop  offset="0.8398" style="stop-color:#EB9822"/>
		<stop  offset="0.9291" style="stop-color:#F18F20"/>
		<stop  offset="1" style="stop-color:#F5831F"/>
	</radialGradient>
	<circle class="st0" cx="53" cy="49.9" r="45.9"/>
	<g>
	</g>
	<g>
	</g>
	<g>
		<path class="st1" d="M67.6,77c-2.7-1.6-5.1-2.9-7.5-3.6c-1.2-0.4-2.4-0.7-3.5-0.9l-0.5-0.1l-0.5-0.1c-0.3,0-0.6-0.1-0.9-0.1
			c-0.3,0-0.6,0-0.9-0.1l-0.5-0.1H53c-2.4,0-4.7,0.4-7.1,1.1c-2.4,0.8-4.8,1.9-7.5,3.7c0.4-3.2,2.3-6.1,5-8.1c2.7-2,6.1-3.2,9.5-3.2
			c0.9-0.1,1.7,0.1,2.6,0.2c0.4,0.1,0.9,0.2,1.3,0.3l0.7,0.2l0.6,0.2c1.7,0.5,3.2,1.4,4.5,2.4c1.3,1.1,2.5,2.3,3.3,3.6
			c0.4,0.7,0.8,1.4,1.1,2.2C67.3,75.5,67.5,76.2,67.6,77z"/>
	</g>
	<path id="XMLID_61_" class="st1" d="M29,46.1c0,0,0-0.1-0.1-0.2c-0.1-0.2-0.1-0.4-0.2-0.7c-0.1-0.3-0.1-0.7-0.2-1.2
		c0-0.2,0-0.5,0-0.7c0-0.3,0-0.5,0.1-0.8c0-0.3,0.1-0.6,0.2-0.9c0.1-0.3,0.2-0.6,0.4-1c0.1-0.3,0.4-0.6,0.6-1
		c0.2-0.3,0.5-0.6,0.8-0.9c0.3-0.3,0.7-0.5,1-0.8c0.4-0.2,0.8-0.4,1.2-0.5c0.4-0.1,0.8-0.3,1.3-0.3c0.4,0,0.8-0.1,1.3-0.1l0,0l0.2,0
		l0,0l0.1,0l0.1,0l0.3,0l0.5,0c0.1,0,0.4,0.1,0.6,0.1c0.2,0.1,0.5,0.1,0.7,0.2c0.5,0.1,0.8,0.3,1.2,0.5c0.4,0.2,0.7,0.5,1.1,0.7
		c0.3,0.3,0.6,0.6,0.8,0.9c0.2,0.3,0.5,0.6,0.6,1c0.3,0.7,0.5,1.3,0.6,1.9c0,0.3,0.1,0.6,0.1,0.8c0,0.3,0,0.5,0,0.7
		c0,0.5-0.1,0.9-0.2,1.2c-0.1,0.3-0.2,0.6-0.2,0.7c-0.1,0.2-0.1,0.2-0.1,0.2s-0.2-0.3-0.4-0.9c-0.1-0.3-0.3-0.6-0.5-0.9
		c-0.1-0.2-0.2-0.4-0.3-0.5c-0.1-0.2-0.2-0.4-0.4-0.6c-0.1-0.2-0.3-0.4-0.4-0.5c-0.1-0.2-0.3-0.3-0.5-0.5c-0.2-0.2-0.4-0.3-0.5-0.4
		c-0.2-0.1-0.4-0.2-0.6-0.4c-0.2-0.1-0.4-0.2-0.6-0.3L37.1,41c-0.1,0-0.2-0.1-0.3-0.1c-0.1,0-0.2,0-0.3,0c-0.1,0-0.1-0.1-0.4-0.1
		l-0.9,0c-0.3,0-0.5,0-0.8,0c-0.2,0-0.5,0.1-0.7,0.1c-0.2,0.1-0.4,0.1-0.7,0.2c-0.2,0.1-0.4,0.2-0.6,0.3c-0.2,0.1-0.4,0.2-0.6,0.4
		c-0.2,0.1-0.4,0.3-0.5,0.4c-0.2,0.2-0.3,0.3-0.5,0.5c-0.2,0.2-0.3,0.4-0.4,0.5c-0.1,0.2-0.3,0.4-0.4,0.6c-0.1,0.2-0.2,0.4-0.3,0.5
		c-0.2,0.3-0.4,0.7-0.5,0.9C29.1,45.8,29,46.1,29,46.1z"/>
	<path id="XMLID_1_" class="st1" d="M61.5,46.1c0,0,0-0.1-0.1-0.2c-0.1-0.2-0.1-0.4-0.2-0.7c-0.1-0.3-0.1-0.7-0.2-1.2
		c0-0.2,0-0.5,0-0.7c0-0.3,0-0.5,0.1-0.8c0-0.3,0.1-0.6,0.2-0.9c0.1-0.3,0.2-0.6,0.4-1c0.1-0.3,0.4-0.6,0.6-1
		c0.2-0.3,0.5-0.6,0.8-0.9c0.3-0.3,0.7-0.5,1-0.8c0.4-0.2,0.8-0.4,1.2-0.5c0.4-0.1,0.8-0.3,1.3-0.3c0.4,0,0.8-0.1,1.3-0.1l0,0l0.2,0
		l0,0l0.1,0l0.1,0l0.3,0l0.5,0c0.1,0,0.4,0.1,0.6,0.1c0.2,0.1,0.5,0.1,0.7,0.2c0.5,0.1,0.8,0.3,1.2,0.5c0.4,0.2,0.7,0.5,1.1,0.7
		c0.3,0.3,0.6,0.6,0.8,0.9c0.2,0.3,0.5,0.6,0.6,1c0.3,0.7,0.5,1.3,0.6,1.9c0,0.3,0.1,0.6,0.1,0.8c0,0.3,0,0.5,0,0.7
		c0,0.5-0.1,0.9-0.2,1.2c-0.1,0.3-0.2,0.6-0.2,0.7c-0.1,0.2-0.1,0.2-0.1,0.2s-0.2-0.3-0.4-0.9c-0.1-0.3-0.3-0.6-0.5-0.9
		c-0.1-0.2-0.2-0.4-0.3-0.5c-0.1-0.2-0.2-0.4-0.4-0.6c-0.1-0.2-0.3-0.4-0.4-0.5c-0.1-0.2-0.3-0.3-0.5-0.5c-0.2-0.2-0.4-0.3-0.5-0.4
		c-0.2-0.1-0.4-0.2-0.6-0.4c-0.2-0.1-0.4-0.2-0.6-0.3L69.7,41c-0.1,0-0.2-0.1-0.3-0.1c-0.1,0-0.2,0-0.3,0c-0.1,0-0.1-0.1-0.4-0.1
		l-0.9,0c-0.3,0-0.5,0-0.8,0c-0.2,0-0.5,0.1-0.7,0.1c-0.2,0.1-0.4,0.1-0.7,0.2c-0.2,0.1-0.4,0.2-0.6,0.3c-0.2,0.1-0.4,0.2-0.6,0.4
		c-0.2,0.1-0.4,0.3-0.5,0.4c-0.2,0.2-0.3,0.3-0.5,0.5c-0.2,0.2-0.3,0.4-0.4,0.5c-0.1,0.2-0.3,0.4-0.4,0.6c-0.1,0.2-0.2,0.4-0.3,0.5
		c-0.2,0.3-0.4,0.7-0.5,0.9C61.7,45.8,61.5,46.1,61.5,46.1z"/>
	
		<radialGradient id="XMLID_3_" cx="-59.2045" cy="31.8459" r="44.1897" gradientTransform="matrix(0.6073 -0.7945 -0.7945 -0.6073 73.2204 -2.4811)" gradientUnits="userSpaceOnUse">
		<stop  offset="0" style="stop-color:#BFDEE4"/>
		<stop  offset="0.8058" style="stop-color:#30A7BF"/>
		<stop  offset="1" style="stop-color:#2C91CF"/>
	</radialGradient>
	<path id="XMLID_20_" class="st2" d="M-0.2,57C0,64.7,6.5,70.8,14.2,70.8c7.8-0.2,13.9-6.7,13.9-14.4c-0.2-7.8-14.8-34-14.8-34
		S-0.4,49.2-0.2,57z"/>
</g>
</svg>
