<?xml version="1.0" encoding="utf-8"?>
<!-- Generator: Adobe Illustrator 21.0.2, SVG Export Plug-In . SVG Version: 6.00 Build 0)  -->
<svg version="1.1" id="Layer_1" xmlns="http://www.w3.org/2000/svg" xmlns:xlink="http://www.w3.org/1999/xlink" x="0px" y="0px"
	 width="100px" height="100px" viewBox="0 0 100 100" style="enable-background:new 0 0 100 100;" xml:space="preserve">
<style type="text/css">
	.st0{opacity:0.15;fill:#3F4244;}
	.st1{fill:#FFFFFF;}
	.st2{fill:#D38B18;}
</style>
<g>
	<polygon class="st0" points="82.9,39.4 75.3,39.4 63.9,39.4 56.3,39.4 44.9,39.4 37.3,39.4 25.9,39.4 18.3,39.4 22.2,38.2 
		22.5,38.3 91.2,16.5 90.1,12.9 90.2,12.9 87.9,5.7 8.1,30.9 8,30.9 8,30.9 3.1,32.5 3.1,47 3.1,96.4 94.3,96.4 94.3,48.7 
		94.3,39.4 	"/>
	<polygon class="st1" points="5.6,30.6 89.6,4 92.9,14.7 20.7,37.4 95.9,37.4 95.9,46.7 5.6,44.9 	"/>
	<path class="st2" d="M95.9,37.4v56.4H5.6V44.9h7.5l7.5-7.5h7.5l-7.5,7.5H32l7.5-7.5H47l-7.5,7.5h11.3l7.5-7.5h7.5l-7.5,7.5h11.3
		l7.5-7.5h7.5l-7.5,7.5h11.3L95.9,37.4z M89.6,4l-7.2,2.3l9.4,4.9L89.6,4z M9.4,41.1c2.1,0,3.8-1.7,3.8-3.8c0-2.1-1.7-3.8-3.8-3.8
		c-2.1,0-3.8,1.7-3.8,3.8C5.6,39.5,7.3,41.1,9.4,41.1L9.4,41.1z M20.1,33.9l4.7,2.5l68.1-21.6l-1.1-3.6l-10.7,3.4l-9.4-4.9L64.5,12
		l9.4,4.9l-10.8,3.4l-9.4-4.9l-7.2,2.3l9.4,4.9l-10.8,3.4L35.8,21l-7.2,2.3l9.4,4.9l-10.8,3.4l-9.4-4.9L10.5,29L20.1,33.9L20.1,33.9
		z M20.1,33.9"/>
	<g>
		<g>
			<rect x="13.3" y="56" class="st1" width="74.6" height="0.8"/>
		</g>
		<g>
			<rect x="30.7" y="56.4" class="st1" width="0.8" height="11.9"/>
		</g>
		<g>
			<rect x="68.1" y="56.4" class="st1" width="0.8" height="11.9"/>
		</g>
		<g>
			<rect x="13.3" y="72.1" class="st1" width="74.6" height="0.8"/>
		</g>
		<g>
			<rect x="13.3" y="85.2" class="st1" width="74.6" height="0.8"/>
		</g>
	</g>
</g>
</svg>
