<?xml version="1.0" encoding="utf-8"?>
<!-- Generator: Adobe Illustrator 21.0.2, SVG Export Plug-In . SVG Version: 6.00 Build 0)  -->
<svg version="1.1" id="Layer_1" xmlns="http://www.w3.org/2000/svg" xmlns:xlink="http://www.w3.org/1999/xlink" x="0px" y="0px"
	 width="100px" height="100px" viewBox="0 0 100 100" style="enable-background:new 0 0 100 100;" xml:space="preserve">
<style type="text/css">
	.st0{fill:#EFB19C;}
	.st1{fill:#F22C67;}
	.st2{fill:#ACDCD5;}
	.st3{fill:#4FC5C9;}
	.st4{fill:#0E3552;}
	.st5{fill:#F29C9E;}
</style>
<rect x="70.2" y="43.2" class="st0" width="13" height="50.1"/>
<g>
	<g>
		<path class="st1" d="M76.7,90.6c-0.4,0-0.8-0.3-0.8-0.8V47.2c0-0.4,0.3-0.8,0.8-0.8c0.4,0,0.8,0.3,0.8,0.8v42.7
			C77.5,90.3,77.1,90.6,76.7,90.6z"/>
		<path class="st1" d="M73.4,90.6c-0.4,0-0.8-0.3-0.8-0.8V47.2c0-0.4,0.3-0.8,0.8-0.8c0.4,0,0.8,0.3,0.8,0.8v42.7
			C74.2,90.3,73.8,90.6,73.4,90.6z"/>
		<path class="st1" d="M80,90.6c-0.4,0-0.8-0.3-0.8-0.8V47.2c0-0.4,0.3-0.8,0.8-0.8c0.4,0,0.8,0.3,0.8,0.8v42.7
			C80.8,90.3,80.4,90.6,80,90.6z"/>
	</g>
</g>
<polygon class="st2" points="83.2,93.3 70.2,93.3 68.2,95.8 85.2,95.8 "/>
<rect x="68.2" y="95.8" class="st3" width="17.1" height="3"/>
<rect x="18.5" y="43.2" class="st0" width="13" height="50.1"/>
<g>
	<g>
		<path class="st1" d="M25,90.6c-0.4,0-0.8-0.3-0.8-0.8V47.2c0-0.4,0.3-0.8,0.8-0.8c0.4,0,0.8,0.3,0.8,0.8v42.7
			C25.8,90.3,25.4,90.6,25,90.6z"/>
		<path class="st1" d="M21.7,90.6c-0.4,0-0.8-0.3-0.8-0.8V47.2c0-0.4,0.3-0.8,0.8-0.8c0.4,0,0.8,0.3,0.8,0.8v42.7
			C22.5,90.3,22.2,90.6,21.7,90.6z"/>
		<path class="st1" d="M28.3,90.6c-0.4,0-0.8-0.3-0.8-0.8V47.2c0-0.4,0.3-0.8,0.8-0.8c0.4,0,0.8,0.3,0.8,0.8v42.7
			C29.1,90.3,28.7,90.6,28.3,90.6z"/>
	</g>
</g>
<polygon class="st2" points="31.5,93.3 18.5,93.3 16.5,95.8 33.6,95.8 "/>
<rect x="16.5" y="95.8" class="st3" width="17.1" height="3"/>
<path class="st4" d="M50.9,21.2c10.6,0,19.3,8.8,19.3,19.5h12.7C82.8,23,68.5,8.6,50.9,8.6C33.3,8.6,19,23,19,40.7h12.7
	C31.6,30,40.3,21.2,50.9,21.2z"/>
<rect x="16.9" y="39.4" class="st2" width="16.2" height="4.1"/>
<rect x="16.9" y="42" class="st4" width="16.2" height="1.5"/>
<circle class="st2" cx="16.9" cy="43.4" r="4"/>
<circle class="st1" cx="16.9" cy="43.4" r="2.5"/>
<circle class="st2" cx="33.1" cy="43.4" r="4"/>
<circle class="st1" cx="33.1" cy="43.4" r="2.5"/>
<rect x="68.6" y="39.4" class="st2" width="16.2" height="4.1"/>
<rect x="68.6" y="42" class="st4" width="16.2" height="1.5"/>
<circle class="st2" cx="68.6" cy="43.4" r="4"/>
<circle class="st1" cx="68.6" cy="43.4" r="2.5"/>
<circle class="st2" cx="84.8" cy="43.4" r="4"/>
<circle class="st1" cx="84.8" cy="43.4" r="2.5"/>
<g>
	<path class="st2" d="M72.6,16.8c1-2.3,0.6-4.9-0.8-7c-2.5,0.5-4.7,2-5.6,4.3c-1,2.3-0.6,4.9,0.8,7C69.5,20.6,71.7,19.1,72.6,16.8z"
		/>
	<path class="st3" d="M67,21.1L67,21.1l4.9-11.3l0,0c-2.5,0.5-4.7,2-5.6,4.3C65.2,16.4,65.6,18.9,67,21.1z"/>
</g>
<g>
	<path class="st2" d="M55.2,21.5c-0.1,1.3,0.4,2.6,1.5,3.5c1.2-0.7,2.1-1.8,2.2-3.1c0.1-1.3-0.4-2.6-1.5-3.5
		C56.2,19.1,55.4,20.2,55.2,21.5z"/>
	<path class="st3" d="M57.4,18.5L57.4,18.5L56.7,25l0,0c1.2-0.7,2.1-1.8,2.2-3.1C59.1,20.6,58.5,19.4,57.4,18.5z"/>
</g>
<g>
	<path class="st2" d="M73.9,16.6c-2.7,1.1-4.5,3.6-5.1,6.6c2.6,1.6,5.6,2.1,8.3,1c2.7-1.1,4.5-3.6,5.1-6.6
		C79.6,15.9,76.6,15.5,73.9,16.6z"/>
	<path class="st3" d="M82.2,17.6L82.2,17.6l-13.4,5.7v0c2.6,1.6,5.6,2.1,8.3,1C79.8,23,81.6,20.5,82.2,17.6z"/>
</g>
<g>
	<path class="st2" d="M81.3,28.3c-2.9,0.6-5.1,2.7-6.3,5.5c2.2,2.1,5.1,3.2,7.9,2.6c2.9-0.6,5.1-2.7,6.3-5.4
		C87,28.8,84.1,27.7,81.3,28.3z"/>
	<path class="st3" d="M89.2,30.9L89.2,30.9l-14.3,2.8l0,0c2.2,2.1,5.1,3.2,7.9,2.6C85.7,35.8,88,33.7,89.2,30.9z"/>
</g>
<g>
	<path class="st2" d="M57.5,10c-0.6,2.9,0.5,5.8,2.7,7.9c2.8-1.2,4.9-3.5,5.4-6.4c0.5-2.9-0.5-5.8-2.7-7.9
		C60.1,4.9,58.1,7.1,57.5,10z"/>
	<path class="st3" d="M62.9,3.6L62.9,3.6l-2.7,14.3l0,0c2.8-1.2,4.9-3.5,5.4-6.4C66.1,8.7,65,5.8,62.9,3.6z"/>
</g>
<g>
	<path class="st2" d="M58.7,9.6c1-2.3,0.6-4.9-0.8-7c-2.5,0.5-4.7,2-5.6,4.3c-1,2.3-0.6,4.9,0.8,7C55.6,13.4,57.7,11.9,58.7,9.6z"/>
	<path class="st3" d="M53.1,13.9L53.1,13.9l4.9-11.3l0,0c-2.5,0.5-4.7,2-5.6,4.3C51.3,9.2,51.7,11.7,53.1,13.9z"/>
</g>
<g>
	<path class="st2" d="M53.2,6c-0.6-2.4-2.4-4.3-4.8-5.2c-1.7,1.9-2.5,4.4-1.9,6.8c0.6,2.4,2.4,4.3,4.8,5.2C53,10.9,53.8,8.5,53.2,6z
		"/>
	<path class="st3" d="M51.2,12.8L51.2,12.8l-2.9-12l0,0c-1.7,1.9-2.5,4.4-1.9,6.8C47,10.1,48.8,11.9,51.2,12.8z"/>
</g>
<g>
	<path class="st2" d="M38.3,24.8c-2.4-1.1-5.1-0.9-7.4,0.5c0.4,2.7,1.9,5,4.3,6.1c2.4,1.1,5.1,0.8,7.4-0.5
		C42.2,28.3,40.7,26,38.3,24.8z"/>
	<path class="st3" d="M42.6,30.9L42.6,30.9l-11.7-5.6l0,0c0.4,2.7,1.9,5,4.3,6.1C37.5,32.6,40.2,32.3,42.6,30.9z"/>
</g>
<g>
	<path class="st2" d="M33.5,13.9c-0.2-2.5-1.7-4.6-4-5.9c-2,1.6-3.2,3.9-3,6.4c0.2,2.5,1.7,4.6,4,5.9C32.5,18.7,33.7,16.4,33.5,13.9
		z"/>
	<path class="st3" d="M30.5,20.3L30.5,20.3l-1-12.3l0,0c-2,1.6-3.2,3.9-3,6.4C26.8,17,28.3,19.1,30.5,20.3z"/>
</g>
<g>
	<path class="st2" d="M27.8,15.6c-1.4-2-3.8-3.1-6.4-3.1c-0.9,2.4-0.8,5,0.6,7.1c1.4,2,3.8,3.1,6.4,3.1
		C29.4,20.3,29.3,17.7,27.8,15.6z"/>
	<path class="st3" d="M28.5,22.7L28.5,22.7l-7-10.1l0,0c-0.9,2.4-0.8,5,0.6,7.1C23.5,21.6,25.9,22.7,28.5,22.7z"/>
</g>
<g>
	<path class="st2" d="M22.5,18.8c-2.5-1.5-5.6-1.4-8.4-0.1c0.2,3,1.7,5.7,4.2,7.2c2.5,1.5,5.6,1.4,8.3,0.1
		C26.4,22.9,25,20.2,22.5,18.8z"/>
	<path class="st3" d="M26.6,26L26.6,26l-12.5-7.4l0,0c0.2,3,1.7,5.7,4.2,7.2C20.8,27.3,23.9,27.3,26.6,26z"/>
</g>
<g>
	<path class="st2" d="M15.8,28.8c-2.8,0.7-5,2.9-6,5.8c2.3,2,5.2,2.9,8.1,2.2c2.8-0.7,5-2.9,6-5.8C21.6,29,18.7,28.1,15.8,28.8z"/>
	<path class="st3" d="M23.9,31L23.9,31L9.8,34.6l0,0c2.3,2,5.2,2.9,8.1,2.2C20.7,36.1,22.8,33.9,23.9,31z"/>
</g>
<g>
	<circle class="st5" cx="24.3" cy="34.1" r="4.3"/>
	<circle class="st1" cx="24.3" cy="34.1" r="3.2"/>
	<circle class="st5" cx="24.3" cy="34.1" r="1.8"/>
</g>
<g>
	<circle class="st5" cx="53.1" cy="18.4" r="4.3"/>
	<circle class="st1" cx="53.1" cy="18.4" r="3.2"/>
	<circle class="st5" cx="53.1" cy="18.4" r="1.8"/>
</g>
<g>
	<circle class="st5" cx="74.5" cy="29" r="4.3"/>
	<circle class="st1" cx="74.5" cy="29" r="3.2"/>
	<circle class="st5" cx="74.5" cy="29" r="1.8"/>
</g>
<g>
	<circle class="st5" cx="69" cy="24.2" r="3.2"/>
	<circle class="st1" cx="69" cy="24.2" r="1.8"/>
</g>
<g>
	<circle class="st1" cx="24.1" cy="27.9" r="3.2"/>
	<circle class="st5" cx="24.1" cy="27.9" r="1.8"/>
</g>
<g>
	<circle class="st5" cx="30.9" cy="28.8" r="4.3"/>
	<circle class="st1" cx="30.9" cy="28.8" r="3.2"/>
	<circle class="st5" cx="30.9" cy="28.8" r="1.8"/>
</g>
<g>
	<circle class="st1" cx="29.8" cy="22" r="3.2"/>
	<circle class="st5" cx="29.8" cy="22" r="1.8"/>
</g>
<circle class="st5" cx="37.6" cy="21.4" r="3.2"/>
<g>
	<circle class="st5" cx="44.5" cy="10.4" r="4.3"/>
	<circle class="st1" cx="44.5" cy="10.4" r="3.2"/>
	<circle class="st5" cx="44.5" cy="10.4" r="1.8"/>
</g>
<g>
	<circle class="st5" cx="44.2" cy="18.1" r="4.3"/>
	<circle class="st1" cx="44.2" cy="18.1" r="3.2"/>
	<circle class="st5" cx="44.2" cy="18.1" r="1.8"/>
</g>
<path class="st1" d="M59.9,15.1c1.7,0,3.2,1.4,3.2,3.2c0,1.7-1.4,3.2-3.2,3.2c-1.8,0-3.2-1.4-3.2-3.2C56.7,16.5,58.2,15.1,59.9,15.1
	L59.9,15.1z"/>
<circle class="st5" cx="59.9" cy="18.3" r="1.8"/>
<circle class="st1" cx="66.1" cy="18.1" r="2.5"/>
<circle class="st5" cx="67.6" cy="31.8" r="2.5"/>
<circle class="st5" cx="38.2" cy="13.6" r="2.5"/>
<g>
	<circle class="st1" cx="69.7" cy="35.4" r="3.2"/>
	<circle class="st5" cx="69.7" cy="35.4" r="1.8"/>
</g>
<g>
	<circle class="st1" cx="33.9" cy="16.1" r="2.8"/>
	<circle class="st5" cx="33.9" cy="16.1" r="1.6"/>
</g>
<circle class="st1" cx="57.2" cy="11.5" r="2.5"/>
<circle class="st5" cx="80" cy="35.5" r="2.5"/>
</svg>
