<?xml version="1.0" encoding="utf-8"?>
<!-- Generator: Adobe Illustrator 21.0.2, SVG Export Plug-In . SVG Version: 6.00 Build 0)  -->
<svg version="1.1" id="Layer_1" xmlns="http://www.w3.org/2000/svg" xmlns:xlink="http://www.w3.org/1999/xlink" x="0px" y="0px"
	 width="100px" height="100px" viewBox="0 0 100 100" style="enable-background:new 0 0 100 100;" xml:space="preserve">
<style type="text/css">
	.st0{fill:#BC1313;}
	.st1{fill:#B71313;}
	.st2{fill:#FFFFFF;}
	.st3{fill:#BF1111;}
</style>
<path class="st0" d="M49.3,2.7c-26,0-47,21-47,47c0,13.4,5.6,25.5,14.6,34l66.4-66.4C74.8,8.3,62.7,2.7,49.3,2.7z"/>
<path class="st1" d="M16,82.7c8.4,8,19.8,13,32.4,13c26,0,47-21,47-47c0-12.6-4.9-24-13-32.4L16,82.7z"/>
<g>
	
		<image style="overflow:visible;opacity:0.23;" width="53" height="41" xlink:href="A6B8D398.png"  transform="matrix(1 0 0 1 35 39)">
	</image>
	<g>
		<path class="st2" d="M62.3,66.6H40.8c-6.6,0-12-5.4-12-12v-9.9c0-6.6,5.4-12,12-12h21.5c6.6,0,12,5.4,12,12v9.9
			C74.3,61.2,68.9,66.6,62.3,66.6z"/>
	</g>
</g>
<polygon class="st3" points="58.1,49.7 43.7,41.4 43.7,58 "/>
</svg>
